<?xml version="1.0" encoding="utf-8"?>
<!-- Generator: Adobe Illustrator 19.1.0, SVG Export Plug-In . SVG Version: 6.00 Build 0)  -->
<svg version="1.1" id="Layer_1" xmlns="http://www.w3.org/2000/svg" xmlns:xlink="http://www.w3.org/1999/xlink" x="0px" y="0px"
	 width="512px" height="512px" viewBox="0 0 512 512" enable-background="new 0 0 512 512" xml:space="preserve">
<g>
	<path d="M291.7,103.9c-64.2,0-116.4,52.2-116.4,116.4c0,25.4,8.2,48.9,22,68l-71,71c-7.3,7.3-7.3,19.1,0,26.4
		c3.6,3.6,8.4,5.5,13.2,5.5c4.8,0,9.5-1.8,13.2-5.5l71-71c19.1,13.8,42.6,22,68,22c64.2,0,116.4-52.2,116.4-116.4
		S355.9,103.9,291.7,103.9z M291.7,302.8c-45.5,0-82.5-37-82.5-82.5c0-45.5,37-82.5,82.5-82.5c45.5,0,82.5,37,82.5,82.5
		C374.2,265.8,337.2,302.8,291.7,302.8z"/>
	<polygon points="26,129.6 26,26 129.6,26 	"/>
	<polygon points="382.4,26 486,26 486,129.6 	"/>
	<polygon points="486,382.4 486,486 382.4,486 	"/>
	<polygon points="129.6,486 26,486 26,382.4 	"/>
</g>
</svg>
