<?xml version="1.0" encoding="utf-8"?>
<!-- Generator: Adobe Illustrator 19.1.0, SVG Export Plug-In . SVG Version: 6.00 Build 0)  -->
<svg version="1.1" id="Layer_1" xmlns="http://www.w3.org/2000/svg" xmlns:xlink="http://www.w3.org/1999/xlink" x="0px" y="0px"
	 width="512px" height="512px" viewBox="0 0 512 512" enable-background="new 0 0 512 512" xml:space="preserve">
<path d="M314.7,26c-94.5,0-171.3,76.9-171.3,171.3c0,40,13.8,76.8,36.8,106L31.9,451.6c-7.9,7.9-7.9,20.6,0,28.5
	c3.9,3.9,9.1,5.9,14.3,5.9c5.2,0,10.3-2,14.3-5.9l148.3-148.3c29.2,23,66,36.8,106,36.8c94.5,0,171.3-76.9,171.3-171.3
	S409.1,26,314.7,26z M314,328c-72.2,0-131-58.8-131-131S241.8,66,314,66s131,58.8,131,131S386.2,328,314,328z"/>
</svg>
