<?xml version="1.0" encoding="utf-8"?>
<!-- Generator: Adobe Illustrator 19.2.1, SVG Export Plug-In . SVG Version: 6.00 Build 0)  -->
<svg version="1.1" id="Layer_1" xmlns="http://www.w3.org/2000/svg" xmlns:xlink="http://www.w3.org/1999/xlink" x="0px" y="0px"
	 width="512px" height="512px" viewBox="0 0 512 512" enable-background="new 0 0 512 512" xml:space="preserve">
<g>
	<path d="M195.5,76.9v272.4c-13.9-13.5-33.3-21.8-54.4-21.8C97.4,327.5,62,363,62,406.7c0,43.8,35.5,79.3,79.3,79.3
		c43.8,0,79.3-35.4,79.3-79.1c0,0-0.3,0.1-0.3,0.1l-0.1-8.3V178.7l205.1-45.4v160.5c-13.9-13.5-33.2-21.8-54.4-21.8
		c-43.8,0-79.2,35.5-79.2,79.2s35.5,79.2,79.3,79.2c43.7,0,78.9-35.4,79-79.1l0-5.8V26L195.5,76.9z M195.5,76.9"/>
</g>
</svg>
