<?xml version="1.0" encoding="utf-8"?>
<!-- Generator: Adobe Illustrator 19.1.0, SVG Export Plug-In . SVG Version: 6.00 Build 0)  -->
<svg version="1.1" id="Layer_1" xmlns="http://www.w3.org/2000/svg" xmlns:xlink="http://www.w3.org/1999/xlink" x="0px" y="0px"
	 width="512px" height="512px" viewBox="0 0 512 512" enable-background="new 0 0 512 512" xml:space="preserve">
<path d="M371,256c0-45.1-26.1-84.1-63.9-102.9v56.5l62.7,62.7C370.6,267,371,261.5,371,256z M434.9,256c0,24-5.2,46.6-13.8,67.5
	l38.7,38.7C476.4,330.4,486,294.3,486,256c0-109.4-76.5-200.9-178.9-224.1v52.8C381,106.6,434.9,175,434.9,256z M58.6,26L26,58.6
	l120.8,120.7H26v153.3h102.2L256,460.4V288.6l108.7,108.7c-17.1,13.2-36.4,23.8-57.6,30.2v52.8c35.1-8.1,67.2-24.1,94.2-46.3
	l52.1,52l32.6-32.6l-230-230L58.6,26z M256,51.6L202.6,105l53.4,53.4V51.6z"/>
</svg>
