<?xml version="1.0" encoding="utf-8"?>
<!-- Generator: Adobe Illustrator 19.1.0, SVG Export Plug-In . SVG Version: 6.00 Build 0)  -->
<svg version="1.1" id="Layer_1" xmlns="http://www.w3.org/2000/svg" xmlns:xlink="http://www.w3.org/1999/xlink" x="0px" y="0px"
	 width="129.8px" height="129.7px" viewBox="-72 192 129.8 129.7" enable-background="new -72 192 129.8 129.7"
	 xml:space="preserve">
<title>logo</title>
<g>
	<path fill="#E8E9E7" d="M-6.7,242.4c-0.6,2.2-1.8,5.7-3,9.2l-3.7,10.7H0.1l-3.8-10.7C-4.9,248.1-6.1,244.6-6.7,242.4z"/>
	<path fill="#E8E9E7" d="M-72,192v129.7H57.8V192H-72z M15.4,241.6l7.3-9.9c0.5-0.7,1.5-0.8,2.2-0.3l3.4,2.6
		c0.7,0.5,0.8,1.5,0.3,2.2l-7.3,9.9c-0.5,0.7-1.5,0.8-2.2,0.3l-3.4-2.6C15,243.3,14.9,242.3,15.4,241.6z M-41.4,234l3.4-2.6
		c0.7-0.5,1.7-0.4,2.2,0.3l7.3,9.9c0.5,0.7,0.4,1.7-0.3,2.2l-3.4,2.6c-0.7,0.5-1.7,0.4-2.2-0.3l-7.3-9.9
		C-42.2,235.5-42.1,234.5-41.4,234z M-39.4,273.8l-11.6,4.1c-0.8,0.3-1.7-0.2-2-1l-1.4-4c-0.3-0.8,0.2-1.7,1-2l11.6-4.1
		c0.8-0.3,1.7,0.2,2,1l1.4,4C-38.1,272.6-38.6,273.5-39.4,273.8z M-36.1,254.7l-1.4,4c-0.3,0.8-1.2,1.3-2,1l-16.4-5.5
		c-0.8-0.3-1.3-1.2-1-2l1.4-4c0.3-0.8,1.2-1.3,2-1l16.4,5.5C-36.3,253-35.8,253.9-36.1,254.7z M8.7,286.7l-4.6-13.2h-21.6l-4.6,13.2
		h-12.7l22.6-59.1h11.5l22.4,59.1H8.7z M41.3,272.9l-1.4,4c-0.3,0.8-1.2,1.3-2,1l-11.6-4.1c-0.8-0.3-1.3-1.2-1-2l1.4-4
		c0.3-0.8,1.2-1.3,2-1l11.6,4.1C41.1,271.2,41.6,272.1,41.3,272.9z M42.8,254.3l-16.4,5.4c-0.8,0.3-1.7-0.2-2-1l-1.4-4
		c-0.3-0.8,0.2-1.7,1-2l16.4-5.4c0.8-0.3,1.7,0.2,2,1l1.4,4C44.1,253.1,43.6,254,42.8,254.3z"/>
</g>
</svg>
