<?xml version="1.0" encoding="utf-8"?>
<!-- Generator: Adobe Illustrator 19.1.0, SVG Export Plug-In . SVG Version: 6.00 Build 0)  -->
<svg version="1.1" id="Layer_1" xmlns="http://www.w3.org/2000/svg" xmlns:xlink="http://www.w3.org/1999/xlink" x="0px" y="0px"
	 width="183px" height="45.9px" viewBox="0 0 183 45.9" enable-background="new 0 0 183 45.9" xml:space="preserve">
<path fill="#939393" d="M62.7,11c-2.1,0-3.3-1-3.3-3.3c0-2.4,1.3-4,3.6-4c1.9,0,2.6,1.3,2.6,3.3c0,0.2,0,0.4,0,0.8h-4.3
	c0,1.3,0.5,1.9,1.7,1.9c0.8,0,1.6-0.3,2.3-0.7l0.4,1.2C65,10.7,63.9,11,62.7,11z M64,6.6C64,5.5,63.6,5,62.9,5
	c-0.8,0-1.4,0.5-1.5,1.6H64z"/>
<path fill="#939393" d="M71.6,10.9V6c0-0.5-0.2-0.8-0.7-0.8c-0.5,0-1.1,0.3-1.7,0.9v4.8h-1.8V3.8l1.6-0.1c0.1,0.2,0.1,0.7,0.2,1.1
	C70,4,70.8,3.6,71.6,3.6c1.3,0,1.8,0.6,1.8,2v5.3H71.6z"/>
<path fill="#939393" d="M77.4,11c-1.3,0-1.9-0.5-1.9-1.8V5.1l-0.9,0l0.1-1.2l0.8,0l0.2-2.2l1.6-0.1v2.3h2.1l-0.1,1.3h-2v4
	c0,0.4,0.1,0.5,0.5,0.5c0.4,0,1-0.1,1.4-0.3l0.3,1.2C79.1,10.8,78.3,11,77.4,11z"/>
<path fill="#939393" d="M84.9,5.3c-0.2,0-0.4,0-0.6,0c-0.6,0-0.8,0.1-1.6,1.4v4.2h-1.8V3.8l1.4-0.1c0.1,0.2,0.2,0.9,0.2,1.6
	c0.7-1.3,1-1.6,1.7-1.6c0.3,0,0.6,0,0.9,0.1L84.9,5.3z"/>
<path fill="#939393" d="M88.9,11c-2.1,0-3.3-1-3.3-3.3c0-2.4,1.3-4,3.6-4c1.9,0,2.6,1.3,2.6,3.3c0,0.2,0,0.4,0,0.8h-4.3
	c0,1.3,0.5,1.9,1.7,1.9c0.8,0,1.6-0.3,2.3-0.7l0.4,1.2C91.1,10.7,90,11,88.9,11z M90.2,6.6C90.2,5.5,89.8,5,89,5
	c-0.8,0-1.4,0.5-1.5,1.6H90.2z"/>
<path fill="#939393" d="M100.2,1.5c-0.3-0.1-0.8-0.2-1.1-0.2c-0.5,0-0.6,0.2-0.6,0.7v1.7h1.5l-0.1,1.3h-1.4v5.8h-1.8V5.1l-0.9-0.1
	l0.1-1.2l0.8,0V2.3c0-1.6,0.6-2.3,2.2-2.3c0.6,0,1.2,0.1,1.6,0.3L100.2,1.5z"/>
<path fill="#939393" d="M104.1,11c-2.2,0-3.3-1.2-3.3-3.6c0-2.3,1.4-3.8,3.6-3.8c2.2,0,3.3,1.1,3.3,3.5C107.7,9.4,106.5,11,104.1,11
	z M104.3,5c-1,0-1.6,0.8-1.6,2.4c0,1.8,0.5,2.4,1.5,2.4c1.1,0,1.6-0.9,1.6-2.4C105.8,5.7,105.4,5,104.3,5z"/>
<path fill="#939393" d="M113.3,5.3c-0.2,0-0.4,0-0.6,0c-0.6,0-0.8,0.1-1.6,1.4v4.2h-1.8V3.8l1.4-0.1c0.1,0.2,0.2,0.9,0.2,1.6
	c0.7-1.3,1-1.6,1.7-1.6c0.3,0,0.6,0,0.9,0.1L113.3,5.3z"/>
<path fill="#939393" d="M59.8,26.9l0-7.3c0,0.3-0.1,0.5-0.2,0.8l-2.8,6.3h-1.3l-2.7-6.1c-0.1-0.3-0.2-0.5-0.2-0.8l-0.1,7.1h-1.6
	L51,16.5h1.8l3.4,7.7l3.5-7.7h1.8l0.1,10.3H59.8z"/>
<path fill="#939393" d="M67.3,26.1C66.7,26.7,66,27,65.1,27c-1.1,0-2-0.8-2-2.1c0-1,0.6-1.7,4.1-2c0-0.4,0-0.7,0-1
	c0-0.6-0.2-0.9-0.8-0.9c-0.8,0-1.7,0.3-2.4,0.8l-0.7-1.1c1-0.7,2.1-1.1,3.5-1.1c1.7,0,2.1,0.9,2.1,2.4v2.9c0,0.5,0.1,0.6,1,0.7
	l-0.3,1.3c-0.3,0-0.5,0-0.7,0C68,27,67.5,26.6,67.3,26.1z M64.9,24.8c0,0.6,0.3,0.9,0.9,0.9c0.6,0,1.2-0.3,1.5-0.7v-1.1
	C65.3,24.1,64.9,24.3,64.9,24.8z"/>
<path fill="#939393" d="M75.5,26.9V22c0-0.5-0.2-0.8-0.7-0.8c-0.5,0-1.1,0.3-1.7,0.9v4.8h-1.8v-7.1l1.6-0.1c0.1,0.2,0.2,0.7,0.2,1.1
	c0.8-0.8,1.7-1.2,2.5-1.2c1.3,0,1.8,0.6,1.8,2v5.3H75.5z"/>
<path fill="#939393" d="M83.7,26.9c-0.1-0.2-0.2-0.7-0.2-1c-0.8,0.8-1.7,1.1-2.5,1.1c-1.4,0-1.8-0.7-1.8-2v-5.2l1.8-0.1v4.9
	c0,0.5,0.2,0.8,0.7,0.8c0.5,0,1-0.3,1.7-0.8v-4.8l1.8-0.1v7.1L83.7,26.9z"/>
<path fill="#939393" d="M89.4,27c-1,0-1.8-0.2-2.6-0.6l0.3-1.3c0.8,0.4,1.7,0.6,2.4,0.6c0.8,0,1.1-0.3,1.1-0.7s-0.1-0.6-1.1-0.9
	c-2.1-0.6-2.5-1.2-2.5-2.2c0-1.4,1.1-2.2,2.7-2.2c0.9,0,1.7,0.1,2.4,0.5l-0.4,1.3c-0.5-0.3-1.4-0.4-2-0.4c-0.8,0-1,0.3-1,0.7
	c0,0.4,0.2,0.6,1.3,1c1.8,0.5,2.2,1.1,2.2,2.1C92.4,26,91.4,27,89.4,27z"/>
<path fill="#939393" d="M98.5,21.3c-0.5-0.1-1-0.2-1.3-0.2c-1.3,0-1.8,0.8-1.8,2.4c0,1.4,0.5,2.1,1.6,2.1c0.6,0,1.2-0.2,1.7-0.4
	l0.5,1.3c-0.7,0.4-1.5,0.6-2.5,0.6c-2,0-3.1-0.9-3.1-3.4c0-2.7,1.5-4,3.5-4c0.7,0,1.3,0.1,1.9,0.3L98.5,21.3z"/>
<path fill="#939393" d="M104.3,21.3c-0.2,0-0.4,0-0.6,0c-0.6,0-0.8,0.1-1.6,1.4v4.2h-1.8v-7.1l1.4-0.1c0.1,0.2,0.2,0.9,0.2,1.6
	c0.7-1.3,1-1.6,1.7-1.6c0.3,0,0.6,0,0.9,0.1L104.3,21.3z"/>
<path fill="#939393" d="M105.5,18.4v-1.6h1.8v1.6H105.5z M105.5,26.9v-7.1l1.8-0.1v7.2H105.5z"/>
<path fill="#939393" d="M112.3,26.9c-0.4,0-0.9,0-1.2-0.2v3.1l-1.8,0.1V19.8l1.6-0.1c0.1,0.2,0.1,0.6,0.2,0.9
	c0.6-0.6,1.4-0.9,2.2-0.9c1.6,0,2.6,1,2.6,3.5C115.9,25.2,114.9,26.9,112.3,26.9z M112.6,21.1c-0.6,0-1,0.3-1.4,0.7v3.7
	c0.3,0.1,0.8,0.2,1.2,0.2c1.1,0,1.7-0.8,1.7-2.4C114,21.9,113.5,21.1,112.6,21.1z"/>
<path fill="#939393" d="M119.5,27c-1.3,0-1.9-0.5-1.9-1.8v-4.1l-0.9,0l0.1-1.2l0.8,0l0.2-2.2l1.6-0.1v2.3h2.1l-0.1,1.3h-2v4
	c0,0.4,0.1,0.5,0.5,0.5c0.4,0,1-0.1,1.4-0.3l0.3,1.2C121.1,26.8,120.4,27,119.5,27z"/>
<path fill="#939393" d="M129.9,27c-2.8,0-4.3-1.5-4.3-5c0-3.4,1.7-5.5,4.7-5.5c1.4,0,2.2,0.1,3.2,0.6l-0.5,1.5
	c-0.8-0.4-1.7-0.5-2.6-0.5c-1.7,0-2.8,1.3-2.8,3.8c0,2.8,1.1,3.8,2.8,3.8c0.6,0,1.1-0.1,1.6-0.3v-2.1H130l0.1-1.4h3.6V26
	C132.8,26.6,131.4,27,129.9,27z"/>
<path fill="#939393" d="M138.5,27c-2.1,0-3.3-1-3.3-3.3c0-2.4,1.3-4,3.6-4c1.9,0,2.6,1.3,2.6,3.3c0,0.2,0,0.4,0,0.8H137
	c0,1.3,0.5,1.9,1.7,1.9c0.8,0,1.6-0.3,2.3-0.7l0.4,1.2C140.7,26.7,139.6,27,138.5,27z M139.7,22.6c0-1.1-0.4-1.6-1.2-1.6
	c-0.8,0-1.4,0.5-1.5,1.6H139.7z"/>
<path fill="#939393" d="M147.3,26.9V22c0-0.5-0.2-0.8-0.7-0.8c-0.5,0-1.1,0.3-1.7,0.9v4.8h-1.8v-7.1l1.6-0.1
	c0.1,0.2,0.2,0.7,0.2,1.1c0.8-0.8,1.7-1.2,2.5-1.2c1.3,0,1.8,0.6,1.8,2v5.3H147.3z"/>
<path fill="#939393" d="M153.9,27c-2.1,0-3.3-1-3.3-3.3c0-2.4,1.3-4,3.6-4c1.9,0,2.6,1.3,2.6,3.3c0,0.2,0,0.4,0,0.8h-4.3
	c0,1.3,0.5,1.9,1.7,1.9c0.8,0,1.6-0.3,2.3-0.7l0.4,1.2C156.2,26.7,155.1,27,153.9,27z M155.2,22.6c0-1.1-0.4-1.6-1.2-1.6
	c-0.8,0-1.4,0.5-1.5,1.6H155.2z"/>
<path fill="#939393" d="M160.6,27c-1.3,0-1.9-0.5-1.9-1.8v-4.1l-0.9,0l0.1-1.2l0.8,0l0.2-2.2l1.6-0.1v2.3h2.1l-0.1,1.3h-2v4
	c0,0.4,0.1,0.5,0.5,0.5c0.4,0,1-0.1,1.4-0.3l0.3,1.2C162.3,26.8,161.5,27,160.6,27z"/>
<path fill="#939393" d="M164,18.4v-1.6h1.8v1.6H164z M164,26.9v-7.1l1.8-0.1v7.2H164z"/>
<path fill="#939393" d="M172.4,21.3c-0.5-0.1-1-0.2-1.3-0.2c-1.3,0-1.8,0.8-1.8,2.4c0,1.4,0.5,2.1,1.6,2.1c0.6,0,1.2-0.2,1.7-0.4
	l0.5,1.3c-0.7,0.4-1.5,0.6-2.5,0.6c-2,0-3.1-0.9-3.1-3.4c0-2.7,1.5-4,3.5-4c0.7,0,1.3,0.1,1.9,0.3L172.4,21.3z"/>
<path fill="#939393" d="M176.3,27c-1,0-1.8-0.2-2.6-0.6l0.3-1.3c0.8,0.4,1.7,0.6,2.4,0.6c0.8,0,1.1-0.3,1.1-0.7s-0.1-0.6-1.1-0.9
	c-2.1-0.6-2.5-1.2-2.5-2.2c0-1.4,1.1-2.2,2.7-2.2c0.9,0,1.7,0.1,2.4,0.5l-0.4,1.3c-0.5-0.3-1.4-0.4-2-0.4c-0.8,0-1,0.3-1,0.7
	c0,0.4,0.2,0.6,1.3,1c1.8,0.5,2.2,1.1,2.2,2.1C179.2,26,178.3,27,176.3,27z"/>
<path fill="#939393" d="M54.8,43C52,43,51,41.6,51,39v-6.3h1.2V39c0,2,0.7,3,2.7,3c2.1,0,2.8-1.1,2.8-3.1v-6.1h1.2v6.1
	C58.8,41.3,57.6,43,54.8,43z"/>
<path fill="#939393" d="M65.6,42.9v-5c0-0.6-0.2-1.1-0.9-1.1c-0.6,0-1.5,0.4-2.2,1.2v4.9h-1.2v-7l1-0.1c0.1,0.2,0.2,0.7,0.2,1.2
	c1-0.9,1.8-1.3,2.7-1.3c1.3,0,1.7,0.6,1.7,1.9v5.2H65.6z"/>
<path fill="#939393" d="M69,34.3v-1.2h1.3v1.2H69z M69.1,42.9v-7l1.2-0.1v7H69.1z"/>
<path fill="#939393" d="M74.8,41c0.1,0.3,0.1,0.5,0.1,0.7c0-0.2,0-0.4,0.2-0.7l2-5.1h1.1l-2.8,7h-1l-2.7-7h1.3L74.8,41z"/>
<path fill="#939393" d="M82,43c-1.8,0-3-0.9-3-3.2c0-2.6,1.3-4,3.4-4c1.5,0,2.4,1.1,2.4,2.6c0,0.3,0,0.6,0,1.1h-4.5
	c0,1.8,0.7,2.5,2.1,2.5c0.7,0,1.5-0.3,2.2-0.7l0.4,0.8C84.1,42.6,83.2,43,82,43z M83.7,38.5c0-1.1-0.5-1.8-1.4-1.8
	c-1.1,0-1.8,0.6-2,1.9h3.4V38.5z"/>
<path fill="#939393" d="M90.3,36.9c-0.2,0-0.3,0-0.4,0c-0.7,0-0.9,0.2-2,2v4h-1.2v-7l0.9-0.1c0.1,0.2,0.2,1,0.2,1.9
	c0.8-1.6,1.2-1.9,1.9-1.9c0.3,0,0.6,0,0.7,0.1L90.3,36.9z"/>
<path fill="#939393" d="M93.6,43c-0.9,0-1.7-0.2-2.4-0.6l0.3-0.9c0.8,0.4,1.6,0.6,2.3,0.6c1,0,1.4-0.4,1.4-0.9
	c0-0.5-0.2-0.8-1.5-1.2c-1.8-0.6-2.2-1.1-2.2-2.1c0-1.2,0.9-2,2.6-2c0.9,0,1.6,0.2,2.1,0.5l-0.3,0.9c-0.4-0.2-1.2-0.4-1.9-0.4
	c-1,0-1.3,0.4-1.3,0.9c0,0.6,0.2,0.8,1.5,1.2c1.8,0.6,2.1,1.1,2.1,2C96.3,42,95.5,43,93.6,43z"/>
<path fill="#939393" d="M98.1,34.3v-1.2h1.3v1.2H98.1z M98.2,42.9v-7l1.2-0.1v7H98.2z"/>
<path fill="#939393" d="M103.5,43c-1.1,0-1.7-0.5-1.7-1.7v-4.5l-0.9,0L101,36l0.9,0l0.2-2.2l1-0.1v2.3h2.3l-0.1,0.9h-2.2v4.3
	c0,0.6,0.2,0.8,0.8,0.8c0.5,0,0.9-0.1,1.5-0.3l0.3,0.9C105,42.8,104.3,43,103.5,43z"/>
<path fill="#939393" d="M109.1,41c0.1,0.3,0.1,0.5,0.1,0.7c0-0.2,0-0.5,0.2-0.7l2-5.1h1.1l-3.5,8.5c-0.4,1-1,1.4-2.5,1.5l-0.2-0.9
	c1.2-0.1,1.5-0.3,1.7-0.9l0.6-1.4l-2.6-6.9h1.2L109.1,41z"/>
<path fill="#939393" d="M119.4,43c-2.1,0-3.1-1.1-3.1-3.5c0-2.2,1.3-3.8,3.3-3.8c2,0,3,1,3,3.5C122.6,41.4,121.5,43,119.4,43z
	 M119.5,36.7c-1.2,0-2,1-2,2.8c0,2,0.8,2.6,2,2.6c1.3,0,1.9-1.1,1.9-2.8C121.4,37.7,120.9,36.7,119.5,36.7z"/>
<path fill="#939393" d="M127.8,33.2c-0.2-0.1-0.8-0.1-1-0.1c-0.7,0-1,0.4-1,1.2v1.6h1.5l-0.1,0.9h-1.5v6h-1.2v-6l-1-0.1l0.1-0.8
	l0.9-0.1v-1.5c0-1.5,0.7-2.2,2-2.2c0.4,0,1.1,0.1,1.4,0.2L127.8,33.2z"/>
<path fill="#939393" d="M138.1,42.9l-1.1-3.1h-3.8l-1.2,3.1h-1.2l3.9-10.2h1.2l3.6,10.2H138.1z M133.5,38.9h3.2l-1.4-4.1
	c-0.1-0.3-0.2-0.6-0.2-0.8c0,0.2-0.1,0.5-0.2,0.8L133.5,38.9z"/>
<path fill="#939393" d="M145.3,42.9v-5c0-0.6-0.2-1.1-0.9-1.1c-0.6,0-1.5,0.4-2.2,1.2v4.9h-1.2v-7l1-0.1c0.1,0.2,0.1,0.7,0.2,1.2
	c1-0.9,1.8-1.3,2.7-1.3c1.3,0,1.7,0.6,1.7,1.9v5.2H145.3z"/>
<path fill="#939393" d="M150.7,43c-1.1,0-1.7-0.5-1.7-1.7v-4.5l-0.9,0l0.1-0.8l0.9,0l0.2-2.2l1-0.1v2.3h2.3l-0.1,0.9h-2.2v4.3
	c0,0.6,0.2,0.8,0.8,0.8c0.5,0,0.9-0.1,1.5-0.3l0.3,0.9C152.1,42.8,151.4,43,150.7,43z"/>
<path fill="#939393" d="M156.3,42.9h-1l-2.1-7h1.2l1.5,5c0.1,0.3,0.1,0.5,0.1,0.7c0-0.2,0.1-0.5,0.1-0.7l1.6-5l1-0.1l1.7,5.1
	c0.1,0.3,0.1,0.5,0.1,0.7c0-0.2,0-0.5,0.1-0.7l1.6-5h1.1l-2.3,7h-1l-1.7-5.1c-0.1-0.3-0.1-0.5-0.1-0.7c0,0.2,0,0.4-0.1,0.7
	L156.3,42.9z"/>
<path fill="#939393" d="M167.3,43c-1.8,0-3-0.9-3-3.2c0-2.6,1.3-4,3.4-4c1.5,0,2.4,1.1,2.4,2.6c0,0.3,0,0.6,0,1.1h-4.5
	c0,1.8,0.7,2.5,2.1,2.5c0.7,0,1.5-0.3,2.2-0.7l0.4,0.8C169.3,42.6,168.4,43,167.3,43z M168.9,38.5c0-1.1-0.5-1.8-1.4-1.8
	c-1.1,0-1.8,0.6-2,1.9h3.4V38.5z"/>
<path fill="#939393" d="M175.6,36.9c-0.2,0-0.3,0-0.4,0c-0.7,0-0.9,0.2-2,2v4H172v-7l0.9-0.1c0.1,0.2,0.2,1,0.2,1.9
	c0.8-1.6,1.2-1.9,1.9-1.9c0.3,0,0.6,0,0.7,0.1L175.6,36.9z"/>
<path fill="#939393" d="M179.6,43c-0.6,0-1-0.1-1.4-0.3v3.1l-1.2,0.1v-10l1-0.1c0.1,0.2,0.2,0.6,0.2,0.9c0.6-0.6,1.4-1,2.2-1
	c1.7,0,2.6,1.1,2.6,3.4C183,41.3,182,43,179.6,43z M180.1,36.8c-0.8,0-1.4,0.5-1.8,0.9v4.1c0.4,0.2,0.9,0.4,1.5,0.4
	c1.3,0,2.1-1,2.1-2.8C181.8,37.8,181.3,36.8,180.1,36.8z"/>
<path fill="#939393" d="M40.4,0.5H2.1C0.9,0.5,0,1.4,0,2.6v38.3C0,42.1,0.9,43,2.1,43h38.3c1.2,0,2.1-0.9,2.1-2.1V2.6
	C42.5,1.4,41.6,0.5,40.4,0.5z M31.6,24.1c-0.1,4.9-3.2,8.6-7.3,9.9c0,0,0,0,0,0c-0.1,0-0.1,0-0.2,0c0,0,0,0,0,0c0,0,0,0,0,0
	c-0.2,0.1-0.5,0.1-0.7,0.2c-0.3,0-0.6,0.1-0.8,0.1c-1.7,0.2-3.5,0.2-5.2-0.1c-0.2,0-0.4-0.1-0.6-0.1c-0.1,0-0.2,0-0.3-0.1
	c-0.1,0-0.2,0-0.3-0.1c-4.5-1.2-7.7-5.1-7.7-10.3V9.4h2.2v0h3.5v13.9c0,4.8,3.1,7.8,7.3,7.8c4.2,0,7.2-3,7.2-7.7
	c-0.8-0.3-1.7-0.6-2.7-1.1c-7.6-3.7-10.4-1.6-10.4-1.6s3.7-7,11.5-3.7c0.5,0.2,1.1,0.4,1.6,0.6V9.4h2.8v9.2c5,1.6,6.8,1.1,7.7-0.5
	C40,21.1,37.4,24.8,31.6,24.1z"/>
<path fill="#939393" d="M55.2,2c-1.7,0-2.7,1.2-2.7,3.8c0,2.9,1.2,3.6,2.7,3.6c1,0,1.9-0.3,2.8-0.8l0.5,1.4c-1,0.6-2.1,1-3.6,1
	c-2.8,0-4.3-1.5-4.3-5.1c0-3.4,1.7-5.5,4.7-5.5c1.3,0,2.1,0.2,2.9,0.6L58,2.6C58,2.6,56.8,2,55.2,2z"/>
</svg>
