<?xml version="1.0" encoding="utf-8"?>
<!-- Generator: Adobe Illustrator 19.1.0, SVG Export Plug-In . SVG Version: 6.00 Build 0)  -->
<svg version="1.1" id="Gruppe_1_Kopie_4_1_" xmlns="http://www.w3.org/2000/svg" xmlns:xlink="http://www.w3.org/1999/xlink"
	 x="0px" y="0px" width="409.8px" height="256.7px" viewBox="0 0 409.8 256.7" enable-background="new 0 0 409.8 256.7"
	 xml:space="preserve">
<g id="Ebene_6_Kopie_6_xA0_Bild_1_">
</g>
<g id="Ebene_6_Kopie_7_xA0_Bild_1_">
</g>
<g id="D">
	<g>
		<path fill="#939393" d="M178,46.5c-9.3-9.4-19.5-15.9-30.8-19.3c-11.3-3.4-25.7-5.1-43.3-5.1c-8.5,0-17.1,0.3-25.8,0.8v151.8
			c0,22.5,0.4,36.9,1.3,43.4c0.8,6.5,3.3,11,7.5,13.7c4.2,2.6,13,3.9,26.5,3.9c19.7,0,36-2.7,48.7-8.1c12.7-5.4,23.3-16.1,31.9-32
			c8.5-15.9,12.8-36.2,12.8-60.9c0-19.2-2.5-36.4-7.4-51.4C194.4,68.2,187.3,56,178,46.5z"/>
		<path fill="#939393" d="M0,0v256.7h255.5V0H0z M235.6,178c-5,13.8-11.9,25.3-20.7,34.4c-8.8,9.1-18.9,16-30.5,20.8
			c-11.6,4.8-22.5,7.7-32.9,8.9c-10.4,1.2-25,1.8-43.9,1.8H6.9v-7.7h9.4c9.7,0,16.5-1.2,20.2-3.7c3.7-2.5,6.1-6.3,7.2-11.5
			c1.1-5.2,1.6-17.3,1.6-36.3V75c0-18.1-0.5-29.8-1.6-35.1c-1.1-5.3-3.3-8.9-6.7-10.9C33.6,27,26.1,26,14.6,26H7.9v-7.7l37.4-1.8
			c31.2-1.6,52.2-2.3,63-2.3c33.7,0,60,5.1,78.9,15.4c18.9,10.3,32.9,24.2,42.1,41.8c9.2,17.6,13.8,37.9,13.8,60.9
			C243.2,149,240.7,164.2,235.6,178z"/>
	</g>
</g>
<g id="Digital_Scholarly_Editions__Initial__Training__Network_1_">
</g>
<g id="iXiT">
	<g>
		<path fill="#939393" d="M285.2,239.6c-0.4,0.3-1.8,1.2-4.2,2.6c-2.4,1.4-3.8,2.1-4.2,2.1c-1.4-1.1-2.8-2.3-4.2-3.6
			c-1.4-1.3-2.1-2.3-2.1-3.2v-20.8c0-1.7-0.9-3-2.7-4c-1.8-1-2.7-1.7-2.7-2.1c1.3-1.2,2.6-2.5,4-3.7c1.4-1.2,2.3-1.9,2.7-1.9
			c1.7,1.1,3.3,2.4,5,3.9c1.6,1.5,2.4,3.2,2.4,5.1v12.4c0,4.2,0.3,7.1,0.9,8.8c0.6,1.7,2.3,2.7,5.1,2.9V239.6z M280.3,189.3
			c0,0.5,0,1,0,1.5c0,0.5,0,0.9,0,1.2c0,1.1-0.6,1.9-1.7,2.3c-2.9,0.8-6,1.8-9.4,2.8c-0.1-0.4-0.1-0.6-0.1-0.8c0-0.6,0-1.1,0-1.5
			c0-1.6,0.9-2.9,2.8-3.9c1.9-1,4.2-2.3,7.1-3.9h1c0.1,0.6,0.2,1,0.2,1.4c0,0.4,0,0.7,0,0.8C280.3,189.2,280.3,189.2,280.3,189.3z"
			/>
		<path fill="#939393" d="M287.4,195.3c3-2.8,5.1-4.7,6.4-5.7c1.3-1,2.3-1.6,3-1.9c2.7,0,5.3,1.4,8,4.2c2.2,3.3,4.4,6.5,6.7,9.8
			c1.2-1.3,2.6-4.1,4.3-8.3c1.7-4.2,3.4-6.3,5.1-6.3c1.1,0,2.2,0.6,3.4,1.7c1.2,1.1,2.5,1.7,3.9,1.7c1.2,0,2.2-0.3,3.2-0.9
			c1-0.6,1.9-1.4,2.7-2.5h2.1c-0.9,4.5-2.5,7.6-4.9,9.3c-2.4,1.7-4.9,2.5-7.7,2.5c-1,0-1.7-0.1-2.3-0.2c-0.6-0.1-1-0.2-1.2-0.3
			c-0.6,0-1.7,1.7-3.4,5c-1.7,3.3-2.5,5.4-2.5,6.3c0.9,2.4,1.9,4.7,2.8,7.1c2.5,5.4,5.3,10.1,8.7,14.2c3.3,4,7.1,6.1,11.2,6.1v2.1
			l-9.3,6.7c-6.2-4.3-10.1-7.2-11.6-9c-1.5-1.7-2.5-3.8-3.2-6.1c-0.6-2.4-2-4.9-4-7.7c-1.8,3.8-3.5,7.3-5,10.6
			c-1.5,3.3-3.2,5.6-4.9,7c-1.8,1.4-5.1,3.1-10.1,5.2h-4v-2.1c4.3-1,8-3.6,11.2-7.8c3.2-4.2,5.8-8.7,7.8-13.7
			c0.7-2.2,1.5-4.3,2.3-6.5c-0.8-1.7-1.7-3.5-2.6-5.6c-1-2.1-1.8-3.8-2.6-5.3c-0.8-1.5-1.4-2.6-1.8-3.4c-0.4-0.8-0.9-1.5-1.6-2.3
			c-0.7-0.7-1.3-1.4-1.8-1.8c-0.6-0.5-1.2-0.9-2-1.2c-0.8-0.3-1.5-0.5-2.1-0.6c-0.6-0.1-1.3-0.1-2-0.1H287.4z"/>
		<path fill="#939393" d="M361,239.6c-0.4,0.3-1.8,1.2-4.2,2.6c-2.4,1.4-3.8,2.1-4.2,2.1c-1.4-1.1-2.8-2.3-4.2-3.6
			c-1.4-1.3-2.1-2.3-2.1-3.2v-20.8c0-1.7-0.9-3-2.7-4c-1.8-1-2.7-1.7-2.7-2.1c1.3-1.2,2.6-2.5,4-3.7c1.4-1.2,2.3-1.9,2.7-1.9
			c1.7,1.1,3.3,2.4,5,3.9c1.6,1.5,2.4,3.2,2.4,5.1v12.4c0,4.2,0.3,7.1,0.9,8.8c0.6,1.7,2.3,2.7,5.1,2.9V239.6z M356.1,189.3
			c0,0.5,0,1,0,1.5c0,0.5,0,0.9,0,1.2c0,1.1-0.6,1.9-1.7,2.3c-2.9,0.8-6,1.8-9.4,2.8c-0.1-0.4-0.1-0.6-0.1-0.8c0-0.6,0-1.1,0-1.5
			c0-1.6,0.9-2.9,2.8-3.9c1.9-1,4.2-2.3,7.1-3.9h1c0.1,0.6,0.2,1,0.2,1.4c0,0.4,0,0.7,0,0.8C356.1,189.2,356.1,189.2,356.1,189.3z"
			/>
		<path fill="#939393" d="M409.8,232.4c0,1.4-2.1,3.8-6.4,7c-4.2,3.2-9.1,4.9-14.7,4.9c-2.4,0-5.7-0.9-9.8-2.7
			c-4.1-1.8-7.8-4.6-11.1-8.4c-3.2-3.8-4.9-8.7-4.9-14.5c0-4.5,1.2-8.8,3.5-12.8c2.3-4,4.4-7.7,6.4-10.9c-2.6,0-4.8,0.5-6.8,1.6
			c-1.9,1.1-3.8,2.2-5.7,3.3c0.8-4,2.9-7,6.4-9.1c3.5-2.1,6.6-3.1,9.3-3.1h32.3c-0.8,2.2-1.6,4.4-2.3,6.7c-1,2.1-2.5,3.2-4.3,3.2
			l-24.4-3.3c-0.5,0.8-1.2,2.6-2,5.3c-0.9,2.7-1.3,8-1.3,15.8c0,6.2,1.5,11.6,4.4,16.2c2.9,4.5,7.2,6.8,12.7,6.8
			c3.1,0,6.2-0.9,9.3-2.7c3.1-1.8,5.9-3.5,8.5-5.1c0.2,0.2,0.3,0.5,0.5,0.8C409.7,231.5,409.8,231.9,409.8,232.4z"/>
	</g>
</g>
</svg>
