<?xml version="1.0" encoding="utf-8"?>
<!-- Generator: Adobe Illustrator 19.1.0, SVG Export Plug-In . SVG Version: 6.00 Build 0)  -->
<svg version="1.1" id="Layer_1" xmlns="http://www.w3.org/2000/svg" xmlns:xlink="http://www.w3.org/1999/xlink" x="0px" y="0px"
	 width="365.9px" height="130.3px" viewBox="-72 191.7 365.9 130.3" enable-background="new -72 191.7 365.9 130.3"
	 xml:space="preserve">
<title>logo</title>
<path fill="#939393" d="M85.4,270.7v-2.6h-5.6v-10.6h-3v13.2H85.4z M93.9,257.5v13.2h9.8v-2.6h-6.8v-2.8h5.9v-2.5h-5.9v-2.7h6.6
	v-2.6H94H93.9z M122.2,260.1v-2.6h-10.5v2.6h3.8v10.6h3V260h3.8L122.2,260.1z M140.6,260.1v-2.6h-10.4v2.6h3.8v10.6h3V260h3.8
	L140.6,260.1z M149.1,257.5v13.2h9.8v-2.6h-6.8v-2.8h5.9v-2.5h-5.9v-2.7h6.6v-2.6h-9.5H149.1z M177.6,258.5c-1.3-0.8-2.9-1.1-4.4-1
	h-5v13.2h3v-4.2h2l2.9,4.2h3.6l-3.4-4.7c1.7-0.6,2.5-2,2.5-4.1C178.9,260.6,178.5,259.4,177.6,258.5L177.6,258.5L177.6,258.5z
	 M173.3,263.9h-2.2V260h2.2c0.7-0.1,1.4,0.1,2,0.4c0.4,0.4,0.7,0.9,0.6,1.5c0.1,0.6-0.1,1.2-0.5,1.6c-0.6,0.4-1.4,0.6-2.1,0.5l0,0
	V263.9z M188.4,257.4v13.3h9.8v-2.6h-6.8v-2.8h5.9v-2.5h-5.9v-2.7h6.6v-2.6h-9.5L188.4,257.4z M216.7,265.9l-6.5-8.5h-2.8v13.3h3
	v-8.3l6.3,8.3h3v-13.2h-3v8.5l0,0V265.9z M237.7,262.9h-5.3v-5.4h-3v13.2h3v-5.2h5.3v5.2h3v-13.2h-3v5.5l0,0V262.9z M253.3,264.7
	v-7.2h-3v7.4c-0.1,1.6,0.5,3.2,1.6,4.4c2.3,2.1,5.9,2.1,8.2,0c1.1-1.2,1.7-2.8,1.6-4.4v-7.4h-3v7.3c0.1,0.9-0.2,1.8-0.7,2.5
	c-0.5,0.6-1.2,0.9-2,0.9c-0.8,0-1.5-0.3-2-0.9C253.5,266.6,253.2,265.7,253.3,264.7L253.3,264.7L253.3,264.7z M271.4,270.6h3v-13.1
	h-3v13.2l0,0V270.6z M288.4,259.7c1.3,0,2.6,0.5,3.6,1.3l1.5-2.2c-0.7-0.6-1.5-1-2.3-1.3c-0.9-0.3-1.8-0.5-2.7-0.5
	c-1.2-0.1-2.4,0.3-3.4,1c-0.9,0.7-1.4,1.8-1.4,2.9c-0.1,1.2,0.4,2.3,1.3,3c1,0.7,2.2,1.2,3.4,1.4c0.7,0.1,1.4,0.4,2,0.7
	c0.3,0.2,0.5,0.5,0.5,0.9c0,0.4-0.2,0.7-0.5,0.9c-0.4,0.3-0.8,0.4-1.3,0.4c-1.5-0.1-2.9-0.8-4-1.9l-1.8,2.2c1.5,1.5,3.6,2.4,5.7,2.4
	c1.3,0.1,2.5-0.3,3.5-1.1c0.9-0.7,1.3-1.8,1.3-2.9c0.1-1-0.3-2-1-2.7c-0.8-0.7-1.8-1.2-2.9-1.4c-0.8-0.2-1.6-0.4-2.4-0.8
	c-0.3-0.2-0.5-0.5-0.5-0.9c0-0.3,0.1-0.7,0.4-0.9c0.3-0.3,0.8-0.4,1.2-0.4l0,0L288.4,259.7z"/>
<path fill="#939393" d="M79.4,300.6l2.7-6.6H81l-2.1,5.4l-2-5.4h-1.2l2.6,6.6h1.2H79.4z M85,299.6V294h-1v6.6h4v-1h-2.9H85z
	 M94.5,299.1l0.6,1.5h1.2l-2.9-6.6h-1.1l-2.9,6.6h1.2l0.6-1.5H94.5L94.5,299.1z M94.1,298.1h-2.5l1.3-2.9L94.1,298.1L94.1,298.1z
	 M102.9,299.1l0.6,1.5h1.2l-2.9-6.6h-1.1l-2.9,6.6H99l0.6-1.5H102.9L102.9,299.1z M102.5,298.1H100l1.2-2.9L102.5,298.1L102.5,298.1
	L102.5,298.1z M113.6,300.6V294h-1.3l-2.2,4.4l-2.2-4.4h-1.3v6.6h1.1v-5l2.1,4.3h0.7l2.1-4.3v5H113.6L113.6,300.6z M118.5,293.9
	c-1.4,0-2.4,0.7-2.4,1.8s3.6,1.5,3.6,3s-0.5,0.8-1.2,0.8c-0.8-0.1-1.6-0.4-2.2-1l-0.5,1c0.7,0.7,1.7,1.1,2.7,1.1
	c1.5,0,2.5-0.7,2.5-1.9c0-1.2-3.6-1.6-3.6-3.1s0.4-0.7,1.1-0.7c0.7,0,1.3,0.2,1.9,0.6l0.5-1c-0.7-0.4-1.5-0.7-2.3-0.7l0,0
	L118.5,293.9z M127.9,295v-1h-4.7v6.6h4.8v-1h-3.7v-1.8h3.2v-1h-3.2V295C124.3,295,127.9,295,127.9,295z M134.9,299.6V294h-1.1v6.6
	h4v-1H134.9z M140.8,300.6V294h-1.1v6.6H140.8z M148,295v-1h-5.3v1h2.1v5.6h1.1V295H148z M154.6,295v-1h-4.7v6.6h4.8v-1H151v-1.8
	h3.2v-1H151V295H154.6L154.6,295z M161.2,300.6h1.3l-1.5-2.2c0.9-0.3,1.5-1.2,1.4-2.1c0-1.4-1-2.3-2.7-2.3H157v6.6h1.1v-2h1.9
	L161.2,300.6L161.2,300.6L161.2,300.6z M158.1,297.6V295h1.6c1,0,1.6,0.4,1.6,1.3c0,0.9-0.6,1.3-1.6,1.3
	C159.7,297.6,158.1,297.6,158.1,297.6z M169.2,299.1l0.6,1.5h1.2l-2.9-6.6H167l-2.9,6.6h1.2l0.6-1.5H169.2z M168.8,298.1h-2.5
	l1.2-2.9L168.8,298.1L168.8,298.1z M176.8,295v-1h-5.3v1h2.1v5.6h1.1V295H176.8L176.8,295z M184.4,294h-1.1v3.9
	c0.1,0.9-0.5,1.7-1.4,1.8c-0.1,0-0.3,0-0.4,0c-0.9,0.1-1.7-0.7-1.8-1.6c0-0.1,0-0.1,0-0.2V294h-1.1v3.9c0,1.6,1.3,2.9,2.9,2.9
	c1.6,0,2.9-1.3,2.9-2.9L184.4,294L184.4,294L184.4,294z M192.7,294h-1.1v3.9c0.1,0.9-0.5,1.7-1.4,1.8c-0.1,0-0.3,0-0.4,0
	c-0.9,0.1-1.7-0.7-1.8-1.6c0-0.1,0-0.1,0-0.2V294h-1.1v3.9c0,1.6,1.3,2.9,2.9,2.9c1.6,0,2.9-1.3,2.9-2.9V294L192.7,294z
	 M199.5,300.6h1.3l-1.5-2.2c0.9-0.3,1.5-1.2,1.4-2.1c0-1.4-1-2.3-2.7-2.3h-2.7v6.6h1.1v-2h1.9L199.5,300.6L199.5,300.6L199.5,300.6z
	 M196.4,297.6V295h1.6c1,0,1.6,0.4,1.6,1.3c0,0.9-0.6,1.3-1.6,1.3C198,297.6,196.4,297.6,196.4,297.6z"/>
<path fill="#939393" d="M82.2,289.1v-6.6h-1.1v2.9h-3.5v-2.9h-1.1v6.6h1.1v-2.8h3.5v2.7h1.1V289.1z M89.6,283.5v-1h-4.7v6.6h4.8v-1
	H86v-1.8h3.2v-1H86v-1.8H89.6L89.6,283.5z M96.6,283.5v-1h-5.3v1h2.1v5.6h1.1v-5.6H96.6L96.6,283.5z M106.5,285.9v1.8
	c-0.4,0.3-1,0.5-1.5,0.5c-1.3,0.3-2.6-0.6-2.8-1.9c-0.3-1.3,0.6-2.6,1.9-2.8c0.3-0.1,0.7-0.1,1,0c0.7,0,1.4,0.3,1.9,0.8l0.6-0.8
	c-0.7-0.6-1.6-0.9-2.5-0.9c-1.8-0.3-3.6,0.9-4,2.7c-0.3,1.8,0.9,3.6,2.7,4c0.4,0.1,0.8,0.1,1.2,0c0.9,0,1.8-0.3,2.6-0.9v-2.6h-1
	V285.9z M114.7,283.5v-1H110v6.6h4.8v-1h-3.7v-1.8h3.2v-1h-3.2v-1.8H114.7L114.7,283.5z M122.8,289.1v-6.6h-1.1v2.9h-3.5v-2.9h-1.1
	v6.6h1.1v-2.8h3.5v2.7h1.3L122.8,289.1z M130.2,283.5v-1h-4.7v6.6h4.8v-1h-3.7v-1.8h3.4v-1h-3.2v-1.8h3.6H130.2z M138.2,282.5h-1.1
	v3.9c0.1,0.9-0.5,1.7-1.4,1.8c-0.1,0-0.3,0-0.4,0c-0.9,0.1-1.7-0.7-1.8-1.6c0-0.1,0-0.1,0-0.2v-3.9h-1.1v3.9c0,1.6,1.3,2.9,2.9,2.9
	c1.6,0,2.9-1.3,2.9-2.9L138.2,282.5L138.2,282.5L138.2,282.5z M145.3,285.9v1.8c-0.4,0.3-1,0.5-1.5,0.5c-1.3,0.3-2.6-0.6-2.8-1.9
	c-0.3-1.3,0.6-2.6,1.9-2.8c0.3-0.1,0.7-0.1,1,0c0.7,0,1.4,0.3,1.9,0.8l0.6-0.8c-0.7-0.6-1.6-0.9-2.5-0.9c-1.8-0.3-3.6,0.9-4,2.7
	c-0.3,1.8,0.9,3.6,2.7,4c0.4,0.1,0.8,0.1,1.2,0c0.9,0,1.8-0.3,2.6-0.9v-2.6h-1V285.9z M153.5,283.5v-1H149v6.6h4.8v-1h-3.7v-1.8h3.2
	v-1h-3.2v-1.8h3.6H153.5z M161.6,289.1v-6.6h-1.1v4.8l-3.6-4.8h-1.1v6.6h1.1v-4.8l3.5,4.8h1.1H161.6z M170.7,289.1l2.7-6.6h-1.2
	l-2.1,5.4l-2-5.4h-1.2l2.6,6.6h1.5H170.7z M179,287.6l0.6,1.5h1.2l-2.9-6.6h-1.1l-2.9,6.6h1.2l0.6-1.5H179L179,287.6z M178.6,286.6
	h-2.5l1.3-2.9l1.3,2.9l0,0H178.6z M188.4,289.1v-6.6h-1.1v4.8l-3.3-4.8h-1.1v6.6h1.1v-4.8l3.5,4.8h1.1H188.4z M194.6,282.5v6.6h2.7
	c1.8,0,3.3-1.5,3.3-3.3s-1.5-3.3-3.3-3.3c0,0,0,0,0,0H194.6z M195.7,283.5h1.6c1.3,0,2.3,1,2.3,2.3c0.1,1.2-0.9,2.2-2.1,2.3
	c-0.1,0-0.1,0-0.2,0H196v-4.6l0,0H195.7z M207.7,283.5v-1H203v6.6h5v-1h-3.7v-1.8h3.2v-1h-3.2v-1.8h3.6H207.7z"/>
<g>
	<path fill="#939393" d="M-6.7,242.4c-0.6,2.2-1.8,5.7-3,9.2l-3.7,10.7H0.1l-3.8-10.7C-4.9,248.1-6.1,244.6-6.7,242.4z"/>
	<path fill="#939393" d="M-72,192v129.7H57.8V192H-72z M15.4,241.6l7.3-9.9c0.5-0.7,1.5-0.8,2.2-0.3l3.4,2.6
		c0.7,0.5,0.8,1.5,0.3,2.2l-7.3,9.9c-0.5,0.7-1.5,0.8-2.2,0.3l-3.4-2.6C15,243.3,14.9,242.3,15.4,241.6z M-41.4,234l3.4-2.6
		c0.7-0.5,1.7-0.4,2.2,0.3l7.3,9.9c0.5,0.7,0.4,1.7-0.3,2.2l-3.4,2.6c-0.7,0.5-1.7,0.4-2.2-0.3l-7.3-9.9
		C-42.2,235.5-42.1,234.5-41.4,234z M-39.4,273.8l-11.6,4.1c-0.8,0.3-1.7-0.2-2-1l-1.4-4c-0.3-0.8,0.2-1.7,1-2l11.6-4.1
		c0.8-0.3,1.7,0.2,2,1l1.4,4C-38.1,272.6-38.6,273.5-39.4,273.8z M-36.1,254.7l-1.4,4c-0.3,0.8-1.2,1.3-2,1l-16.4-5.5
		c-0.8-0.3-1.3-1.2-1-2l1.4-4c0.3-0.8,1.2-1.3,2-1l16.4,5.5C-36.3,253-35.8,253.9-36.1,254.7z M8.7,286.7l-4.6-13.2h-21.6l-4.6,13.2
		h-12.7l22.6-59.1h11.5l22.4,59.1H8.7z M41.3,272.9l-1.4,4c-0.3,0.8-1.2,1.3-2,1l-11.6-4.1c-0.8-0.3-1.3-1.2-1-2l1.4-4
		c0.3-0.8,1.2-1.3,2-1l11.6,4.1C41.1,271.2,41.6,272.1,41.3,272.9z M42.8,254.3l-16.4,5.4c-0.8,0.3-1.7-0.2-2-1l-1.4-4
		c-0.3-0.8,0.2-1.7,1-2l16.4-5.4c0.8-0.3,1.7,0.2,2,1l1.4,4C44.1,253.1,43.6,254,42.8,254.3z"/>
</g>
</svg>
