<?xml version="1.0" encoding="utf-8"?>
<!-- Generator: Adobe Illustrator 19.1.0, SVG Export Plug-In . SVG Version: 6.00 Build 0)  -->
<svg version="1.1" id="Layer_1" xmlns="http://www.w3.org/2000/svg" xmlns:xlink="http://www.w3.org/1999/xlink" x="0px" y="0px"
	 width="527.2px" height="201.3px" viewBox="38.7 122 527.2 201.3" style="enable-background:new 38.7 122 527.2 201.3;"
	 xml:space="preserve">
<style type="text/css">
	.st0{fill:#434343;}
</style>
<g>
	<path class="st0" d="M43.5,169.8c0.4,0,0.7,0.1,0.7,0.8c0.2,2.9,1.5,7,3.8,10.7c2.7,4.3,7.4,6.4,11.9,6.4s11.8-3,11.8-10.5
		c0-7.8-1.5-10.1-13.8-14.7c-2.8-1-8.9-4.1-13.7-8.2c-3.3-2.9-4.7-7.9-4.7-13.4c0-5.8,1.4-9.6,7.1-13.9c4.2-3.2,7.8-4.5,13.6-4.5
		c6.9,0,10.6,1.1,12.5,1.9c0.9,0.4,1.6,0.2,2.2-0.5l1.1-1.3c0.4-0.4,0.8-0.6,1.4-0.6c0.7,0,0.8,1,0.9,1.6l1.5,16.1
		c0,0.4-0.2,0.5-0.5,0.6l-2,0.7c-0.5,0.2-0.9,0-1.2-0.7c-1-2.7-2.6-6.4-5.8-9.8c-2.4-2.6-5.2-4-9.4-4c-7.1,0-10,6.1-10,8.6
		c0,3.5,0.1,6.3,2.5,8.7c2.5,2.5,7.8,4.8,12.4,6.1c4.5,1.3,8.2,3.7,12.1,7.2c3.7,3.3,5.2,7.4,5.2,14C83,182.7,74.8,192,62.3,192
		c-8.5,0-12.9-1.4-16.9-4.1c-1.1-0.8-1.7-1-2.2-1c-0.6,0-0.9,0.7-1.5,1.6c-0.6,1-1,1.1-1.7,1.1c-1,0-1.4-0.5-1.3-1.5l1.5-17.9
		c0.1-0.7,0.4-0.7,0.8-0.7L43.5,169.8z"/>
	<path class="st0" d="M155.1,165.3c3,0,5.9-0.2,6.7-0.4c1.1-0.3,2-0.9,3-2c0.7-1,1.5-2.8,1.5-4.1c0-0.5,0.2-0.6,0.5-0.6l1.8,0.2
		c0.3,0.1,0.6,0.1,0.5,0.5c-0.2,1.1-0.2,4.6-0.2,6.9c0,3,0.3,6.1,0.4,7.5c0.1,0.4-0.2,0.5-0.5,0.5l-1.6,0.3
		c-0.3,0.1-0.4-0.1-0.5-0.5c-0.3-1.1-0.9-2.6-1.3-3.4c-0.7-1.3-2.3-2.1-3.6-2.3c-1.8-0.3-3.8-0.4-6.7-0.4v4c0,3.6,0.3,10,0.3,11.2
		c0,3.4,0.7,4.6,1.6,5c1,0.4,2.2,0.6,5.5,0.6c1.1,0,3.9-0.1,5.3-0.2c1.3-0.1,3.3-0.8,5-2.2s5.4-5.5,6.7-7.1c0.3-0.3,0.5-0.3,0.7-0.2
		l1.1,0.7c0.3,0.1,0.3,0.3,0.3,0.5l-3,10c-0.2,0.6-0.7,1-1.5,1c-0.3,0-1.8-0.1-6-0.1c-4.3,0-11.3-0.1-22.7-0.1
		c-2.4,0-4.3,0.1-5.6,0.1c-1.4,0.1-2.2,0.1-2.8,0.1c-0.5,0-0.6-0.2-0.6-0.7v-1.4c0-0.4,0.2-0.6,0.7-0.6h2c3,0,3.3-0.5,3.3-2.8v-22.1
		c0-5.5-0.1-13.6-0.2-14.3c-0.3-2.1-0.9-2.6-2.7-2.6h-2.6c-0.3,0-0.3-0.2-0.3-0.7V144c0-0.2,0.1-0.5,0.5-0.5c1.5,0,3.8,0.2,9.8,0.2
		l23.2-0.1c1.1,0,2.3-0.1,2.6-0.1s0.5,0.1,0.5,0.3c0.3,0.9,2.4,10,2.7,10.6c0.1,0.3,0.1,0.5-0.2,0.7l-1.1,0.5
		c-0.3,0.1-0.6,0.1-0.8-0.3c-0.3-0.5-6.3-6.5-7.8-7.4c-1.4-0.9-3.2-1.7-5-1.8l-8.7-0.3L155.1,165.3z"/>
	<path class="st0" d="M187.1,164.6c0-4.1-0.1-13-0.1-13.9c0-3.4-0.5-4.3-2.2-4.3H182c-0.7,0-0.8-0.3-0.8-0.7v-1.3
		c0-0.4,0.1-0.8,0.7-0.8c1.1,0,3.2,0.2,9.8,0.2c6.5,0,8.8-0.2,10-0.2c0.7,0,0.8,0.2,0.8,0.7v1.4c0,0.4-0.1,0.6-0.8,0.6h-1.6
		c-2.4,0-2.7,1.1-2.9,3.6c-0.1,0.9-0.4,9.6-0.4,13.3v1c0,0.3,0.2,0.5,1.1,0.5h19.7c1,0,1.3-0.1,1.3-0.9v-0.7
		c0-3.8-0.5-12.9-0.5-13.6c-0.1-2.1-0.3-3.4-1.5-3.4h-2.7c-0.6,0-0.7-0.2-0.7-0.7v-1.5c0-0.4,0.1-0.6,0.6-0.6c1.2,0,4,0.2,9.6,0.2
		c5.5,0,8.2-0.2,9.1-0.2c0.8,0,0.9,0.2,0.9,0.7v1.3c0,0.5-0.1,0.7-0.9,0.7h-2c-1.9,0-2.1,1.1-2.1,3.4c0,0.9-0.1,12.1-0.1,14.5v2.2
		c0,2.1,0.1,14.7,0.2,18.3c0,2.4,0.7,3.3,2.6,3.3h2.2c0.5,0,0.6,0.2,0.6,0.6v1.5c0,0.3-0.1,0.7-0.7,0.7c-1.1,0-3.3-0.2-9.2-0.2
		c-6.7,0-8.8,0.2-10.4,0.2c-0.7,0-0.9-0.3-0.9-0.7v-1.5c0-0.4,0.1-0.6,0.7-0.6h2.9c1.6,0,1.8-1.3,1.8-2.9c0.1-3.1,0.3-13.7,0.3-15.8
		v-0.8c0-0.7-0.7-0.8-1.5-0.8h-19.7c-0.7,0-0.9,0.2-0.9,0.8v1c0,1.7,0.3,11.8,0.5,16.3c0.1,1.6,0.7,2.2,2.2,2.2h1.8
		c0.5,0,0.6,0.1,0.6,0.5v1.6c0,0.4-0.1,0.6-0.6,0.6c-1.2,0-3.5-0.2-9-0.2c-7,0-9,0.2-10.3,0.2c-0.6,0-0.7-0.2-0.7-0.7v-1.4
		c0-0.5,0.1-0.6,0.7-0.6h3c1.6,0,1.8-1.6,1.8-3c0.1-3.1,0.2-15.9,0.2-17.6v-2.5H187.1z"/>
	<path class="st0" d="M252.7,165.3c3,0,5.9-0.2,6.7-0.4c1.1-0.3,2-0.9,3-2c0.7-1,1.5-2.8,1.5-4.1c0-0.5,0.2-0.6,0.5-0.6l1.8,0.2
		c0.3,0.1,0.6,0.1,0.5,0.5c-0.2,1.1-0.2,4.6-0.2,6.9c0,3,0.3,6.1,0.4,7.5c0.1,0.4-0.2,0.5-0.5,0.5l-1.6,0.3
		c-0.3,0.1-0.4-0.1-0.5-0.5c-0.3-1.1-0.9-2.6-1.3-3.4c-0.7-1.3-2.3-2.1-3.6-2.3c-1.8-0.3-3.8-0.4-6.7-0.4v4c0,3.6,0.3,10,0.3,11.2
		c0,3.4,0.7,4.6,1.6,5c1,0.4,2.2,0.6,5.5,0.6c1.1,0,3.9-0.1,5.3-0.2c1.3-0.1,3.3-0.8,5-2.2c1.7-1.4,5.4-5.5,6.7-7.1
		c0.3-0.3,0.5-0.3,0.7-0.2l1.1,0.7c0.3,0.1,0.3,0.3,0.3,0.5l-3,10c-0.2,0.6-0.7,1-1.5,1c-0.3,0-1.8-0.1-6-0.1
		c-4.3,0-11.3-0.1-22.7-0.1c-2.4,0-4.3,0.1-5.6,0.1c-1.4,0.1-2.2,0.1-2.8,0.1c-0.5,0-0.6-0.2-0.6-0.7v-1.4c0-0.4,0.2-0.6,0.7-0.6h2
		c3,0,3.3-0.5,3.3-2.8v-22.1c0-5.5-0.1-13.6-0.2-14.3c-0.3-2.1-0.9-2.6-2.7-2.6h-2.6c-0.3,0-0.3-0.2-0.3-0.7V144
		c0-0.2,0.1-0.5,0.5-0.5c1.5,0,3.8,0.2,9.8,0.2l23.2-0.1c1.1,0,2.3-0.1,2.6-0.1c0.3,0,0.5,0.1,0.5,0.3c0.3,0.9,2.4,10,2.7,10.6
		c0.1,0.3,0.1,0.5-0.2,0.7l-1.1,0.5c-0.3,0.1-0.6,0.1-0.8-0.3c-0.3-0.5-6.3-6.5-7.8-7.4c-1.4-0.9-3.2-1.7-5-1.8l-8.7-0.3
		L252.7,165.3z"/>
	<path class="st0" d="M285,160.6c0-4.9,0-9.1-0.1-10.9c-0.1-2.2-0.9-3.3-1.8-3.3h-2.6c-0.3,0-0.4-0.2-0.4-0.5v-1.8
		c0-0.3,0.1-0.5,0.4-0.5c0.6,0,2.6,0.2,9.8,0.2c3.7,0,9.5-0.2,12.2-0.2c5.1,0,9,1.8,11.7,4.4c2.4,2.2,3.8,4.8,3.8,7.2
		c0,8.4-6.3,12.1-12.1,12.7v0.5c2,0.7,3.1,1.9,4.4,3.5c0.9,1.1,4.5,6.9,5,7.7c0.4,0.6,4,5.6,5.3,7.1c0.8,0.9,3.3,1.4,4.8,1.4
		c0.5,0,0.5,0.3,0.5,0.5v1.6c0,0.4-0.1,0.6-0.5,0.6c-0.5,0-2.2-0.2-7.3-0.2c-1.9,0-4.4,0.1-6.3,0.2c-2-1.5-6.1-9.2-7.2-11.4
		c-2.2-4.5-5-9.4-8.1-9.4h-2.2v3.4c0,3.9,0.2,11.3,0.3,12.1c0.1,1.4,0.7,2.6,1.6,2.6h2.7c0.5,0,0.5,0.2,0.5,0.5v1.6
		c0,0.5-0.1,0.6-1.1,0.6c-0.1,0-1.7-0.2-8.6-0.2c-7,0-8.5,0.2-9.2,0.2c-0.5,0-0.5-0.2-0.5-0.7v-1.5c0-0.3,0-0.5,0.3-0.5h2
		c1.5,0,2.6-0.5,2.6-2.1c0.1-6.5,0.1-12.7,0.1-19L285,160.6L285,160.6z M294.2,167.7c1.3,0.1,2,0.1,2.6,0.1
		c8.7,0,10.8-8.3,10.8-11.4c0-3-1.1-5.9-2.5-7.4c-2.4-2.1-5.3-2.9-7.3-2.9c-1.1,0-2,0.1-2.5,0.6c-0.4,0.3-0.6,1-0.7,1.8L294.2,167.7
		z"/>
	<path class="st0" d="M343,172.5c-0.5,1.4-3.8,10.4-3.8,12.5c0,1.5,0.6,3,2.6,3h2.3c0.7,0,0.7,0.3,0.7,0.5v1.5
		c0,0.5-0.1,0.7-0.6,0.7c-0.9,0-3.6-0.2-9-0.2c-4.8,0-6.3,0.2-7.2,0.2c-0.4,0-0.5-0.4-0.5-0.9v-1.3c0-0.4,0.1-0.6,0.5-0.6h1.7
		c1.6,0,3.2-0.9,4.5-2.9c0.9-1.4,5.6-12.9,7.8-18.7c0.5-1.3,5.9-15.5,6.5-17.3c0.2-0.7,0.5-1.5,0.1-2.2c-0.2-0.3-0.5-0.6-0.5-0.9
		c0-0.2,0.1-0.5,0.7-0.6c2.1-0.5,6.4-2.2,7.4-3.3c0.3-0.3,0.5-0.6,0.9-0.6s0.5,0.4,0.7,1.1c1.3,4.2,6.4,18.9,7.7,23.2
		c1.5,5.1,5.8,17.4,6.7,19.2c1.1,2.2,2.8,3,3.8,3h2.2c0.4,0,0.5,0.3,0.5,0.6v1.5c0,0.4-0.1,0.9-0.6,0.9c-1.3,0-2.6-0.2-11.1-0.2
		c-5.5,0-7.8,0.2-9.1,0.2c-0.7,0-0.7-0.4-0.7-0.9v-1.3c0-0.3,0.1-0.6,0.4-0.6h1.8c1.8,0,2.4-0.7,2-2.4c-0.6-2.4-3.2-10.8-4-13.2
		C357.4,172.5,343,172.5,343,172.5z M356.8,169.9l-4.9-17.5c-0.3-1-0.4-1.5-0.7-1.5c-0.4,0-0.6,0.3-0.8,0.9
		c-0.3,0.9-6,16.4-6.5,18.1H356.8z"/>
	<path class="st0" d="M397.2,146.3c-0.9,0-2,0.1-3.7,1.3c-1.4,0.9-7.1,7.3-8.4,9.1c-0.2,0.3-0.5,0.5-0.8,0.4l-1.1-0.6
		c-0.2-0.1-0.3-0.3-0.2-0.6l4.2-11.7c0.2-0.6,0.6-0.7,0.9-0.7c0.5,0,1,0.1,1.5,0.1c3.1,0.4,12.4,0.4,17.9,0.4c4,0,7.5-0.1,10-0.2
		c2.2-0.1,4.4-0.2,4.8-0.2c1.1,0,1.5,0.9,0.9,1.6c-0.5,0.6-29.4,41.1-30.8,42.9h15.9c1.8,0,3.2,0,4.9-0.7c1.9-0.9,8.4-7.7,9.3-8.8
		c0.3-0.3,0.5-0.3,0.9-0.2l1.1,0.6c0.2,0.1,0.3,0.3,0.1,0.6c-0.9,1.5-4.1,9.6-5,11.4c-0.1,0.3-0.5,0.7-0.9,0.7
		c-0.3,0-0.8-0.1-1.6-0.2c-3.6-0.5-14.1-0.7-20.1-0.7h-15.4c-0.5,0-1.3,0-1.3-0.5c0-0.4,0.1-0.9,0.3-1.3
		c2.7-4.2,29.8-41.7,30.3-42.5h-13.7V146.3z"/>
	<path class="st0" d="M481.2,160.3c0-1.7-0.2-11.1-0.3-12.1c-0.2-1.6-1.1-1.8-2.2-1.8h-3.3c-0.3,0-0.5-0.1-0.5-0.5V144
		c0-0.3,0.2-0.3,0.5-0.3c0.9,0,3.8,0.2,10.4,0.2c1.7,0,8.3-0.2,9.8-0.2c9,0,16.1,0.8,22.4,6c4.4,3.6,7.4,9.1,7.4,16.8
		c0,7.6-2.2,12.6-6.5,17.4c-6.4,6.9-17.7,7-21.8,7c-1.1,0-8.8-0.2-12.5-0.2c-5.7,0-8.4,0.2-9.3,0.2c-0.3,0-0.5-0.1-0.5-0.6v-1.7
		c0-0.3,0.2-0.4,0.5-0.4h3.4c1.3,0,2-0.5,2.1-1.6c0.2-1.4,0.5-16.2,0.5-21.3v-5H481.2z M491.1,166.7c0,0.9,0.1,12.1,0.1,16.2
		c0,1.3,0.3,2.4,1.1,3.6c0.8,1.2,3,1.6,5.3,1.6c3.8,0,8.9-1.9,12.3-6.5c2.6-3.5,4.7-8.9,4.7-15c0-5.4-2.2-11-5.3-14.4
		c-3.5-3.9-9.3-6-13.1-6c-1.8,0-2.8,0.1-3.7,0.5c-1,0.5-1.3,1.5-1.3,2.8c-0.1,2.8-0.1,11.4-0.1,12.5V166.7z"/>
	<path class="st0" d="M539.4,165.3c3,0,5.9-0.2,6.7-0.4c1.1-0.3,2-0.9,3-2c0.7-1,1.5-2.8,1.5-4.1c0-0.5,0.2-0.6,0.5-0.6l1.8,0.2
		c0.3,0.1,0.6,0.1,0.5,0.5c-0.2,1.1-0.2,4.6-0.2,6.9c0,3,0.3,6.1,0.4,7.5c0.1,0.4-0.2,0.5-0.5,0.5l-1.6,0.3
		c-0.3,0.1-0.4-0.1-0.5-0.5c-0.3-1.1-0.9-2.6-1.3-3.4c-0.7-1.3-2.3-2.1-3.6-2.3c-1.8-0.3-3.8-0.4-6.7-0.4v4c0,3.6,0.3,10,0.3,11.2
		c0,3.4,0.7,4.6,1.6,5c1,0.4,2.2,0.6,5.5,0.6c1.1,0,3.9-0.1,5.3-0.2c1.3-0.1,3.3-0.8,5-2.2s5.4-5.5,6.7-7.1c0.3-0.3,0.5-0.3,0.7-0.2
		l1.1,0.7c0.3,0.1,0.3,0.3,0.3,0.5l-3,10c-0.2,0.6-0.7,1-1.5,1c-0.3,0-1.8-0.1-6-0.1c-4.3,0-11.3-0.1-22.7-0.1
		c-2.4,0-4.3,0.1-5.6,0.1c-1.4,0.1-2.2,0.1-2.8,0.1c-0.5,0-0.6-0.2-0.6-0.7v-1.4c0-0.4,0.2-0.6,0.7-0.6h2c3,0,3.3-0.5,3.3-2.8v-22.1
		c0-5.5-0.1-13.6-0.2-14.3c-0.3-2.1-0.9-2.6-2.7-2.6h-2.6c-0.3,0-0.3-0.2-0.3-0.7V144c0-0.2,0.1-0.5,0.5-0.5c1.5,0,3.8,0.2,9.8,0.2
		l23.2-0.1c1.1,0,2.3-0.1,2.6-0.1s0.5,0.1,0.5,0.3c0.3,0.9,2.4,10,2.7,10.6c0.1,0.3,0.1,0.5-0.2,0.7l-1.1,0.5
		c-0.3,0.1-0.6,0.1-0.8-0.3c-0.3-0.5-6.3-6.5-7.8-7.4c-1.4-0.9-3.2-1.7-5-1.8l-8.7-0.3L539.4,165.3z"/>
	<path class="st0" d="M438.6,172.5c-0.5,1.4-3.8,10.4-3.8,12.5c0,1.5,0.6,3,2.6,3h2.3c0.7,0,0.7,0.3,0.7,0.5v1.5
		c0,0.5-0.1,0.7-0.6,0.7c-0.9,0-3.6-0.2-9-0.2c-4.8,0-6.3,0.2-7.2,0.2c-0.4,0-0.5-0.4-0.5-0.9v-1.3c0-0.4,0.1-0.6,0.5-0.6h1.7
		c1.6,0,3.2-0.9,4.5-2.9c0.9-1.4,5.6-12.9,7.8-18.7c0.5-1.3,5.9-15.5,6.5-17.3c0.2-0.7,0.5-1.5,0.1-2.2c-0.2-0.3-0.5-0.6-0.5-0.9
		c0-0.2,0.1-0.5,0.7-0.6c2.1-0.5,6.4-2.2,7.4-3.3c0.3-0.3,0.5-0.6,0.9-0.6s0.5,0.4,0.7,1.1c1.3,4.2,6.4,18.9,7.7,23.2
		c1.5,5.1,7.2,21.2,8.1,23c1.1,2.1,3.2,3.5,6.4,4.4c-21.2-4.1-37,33.9-71.2,14.6c20.9,9,35.1-11.6,52-16c2.6-0.7,1.8-2.8,1.4-4.5
		c-0.6-2.4-4-12.5-4.7-14.9h-14.5V172.5z M452.4,169.9l-4.9-17.5c-0.3-1-0.4-1.5-0.7-1.5c-0.4,0-0.6,0.3-0.8,0.9
		c-0.3,0.9-6,16.4-6.5,18.1H452.4z"/>
	<path class="st0" d="M89.5,164.6c0-4.1-0.1-13-0.1-13.9c0-3.4-0.5-4.3-2.2-4.3h-2.7c-0.7,0-0.8-0.3-0.8-0.7v-1.3
		c0-0.4,0.1-0.8,0.7-0.8c1.1,0,3.2,0.2,9.8,0.2c6.5,0,8.8-0.2,10-0.2c0.7,0,0.8,0.2,0.8,0.7v1.4c0,0.4-0.1,0.6-0.8,0.6h-1.6
		c-2.4,0-2.7,1.1-2.9,3.6c-0.1,0.9-0.4,9.6-0.4,13.3v1c0,0.3,0.2,0.5,1.1,0.5H120c1,0,1.3-0.1,1.3-0.9v-0.7c0-3.8-0.5-12.9-0.5-13.6
		c-0.1-2.1-0.3-3.4-1.5-3.4h-2.7c-0.6,0-0.7-0.2-0.7-0.7v-1.5c0-0.4,0.1-0.6,0.6-0.6c1.2,0,4,0.2,9.6,0.2c5.5,0,8.2-0.2,9.1-0.2
		c0.8,0,0.9,0.2,0.9,0.7v1.3c0,0.5-0.1,0.7-0.9,0.7h-2c-1.9,0-2.1,1.1-2.1,3.4c0,0.9-0.1,12.1-0.1,14.5v2.2c0,0.9,0.1,12.9-0.3,19.3
		c-0.6,11.1-14.5,15.8-28.4,17.7c47.5-1,77.7,29,123.2,18.1c-64.6,19.8-96.1-19.3-140.6-16.4c28.7-2.9,35.7-11.8,36.2-21.4
		c0.2-3.1,0.3-11.9,0.3-14v-0.8c0-0.7-0.7-0.8-1.5-0.8h-19.8c-0.7,0-0.9,0.2-0.9,0.8v1c0,1.7,0.3,11.8,0.5,16.3
		c0.1,1.6,0.7,2.2,2.2,2.2h1.8c0.5,0,0.6,0.1,0.6,0.5v1.6c0,0.4-0.1,0.6-0.6,0.6c-1.2,0-3.5-0.2-9-0.2c-7,0-9,0.2-10.3,0.2
		c-0.6,0-0.7-0.2-0.7-0.7v-1.4c0-0.5,0.1-0.6,0.7-0.6h3c1.6,0,1.8-1.6,1.8-3c0.1-3.1,0.2-15.9,0.2-17.6v-2.9H89.5z"/>
</g>
<g>
	<path class="st0" d="M100.3,260.1c-3.6-2.2-7.4-7.6-7.4-15c0-3.1,0.8-7.9,4.7-12.5c4.4-5.4,10.1-6.4,14.7-6.4c4.2,0,8.1,0.7,12.3,4
		c3.8,3,6.9,8.1,6.9,15.1c0,3.7-1.2,7.5-3.8,11c-3.3,4.1-7.6,7.1-15.5,7.1C108.6,263.3,104.2,262.5,100.3,260.1z M123.5,245.6
		c0-11-7.3-17.1-11.5-17.1c-1,0-3.5-0.3-6.6,2.7c-3,2.8-4.5,8.1-4.5,12.2c0,12.9,7.4,17.5,11.6,17.5
		C121.8,261,123.5,249.7,123.5,245.6z"/>
	<path class="st0" d="M145.7,244.8c2,0,4-0.2,5-0.3c0.9-0.1,1.8-0.8,2.6-1.8c0.6-0.7,0.9-1.8,1.1-2.7c0.1-0.3,0.2-0.4,0.4-0.4
		l1.2,0.1c0.2,0,0.3,0.2,0.3,0.4c-0.1,0.9-0.1,5-0.1,5.7c0,1.8,0.2,4.2,0.3,5.2c0,0.3-0.1,0.4-0.4,0.4l-1.1,0.3
		c-0.2,0-0.4-0.1-0.4-0.4c-0.1-0.4-0.7-1.9-1-2.4c-0.6-0.9-1.6-1.8-2.5-2c-1.6-0.3-3.4-0.4-5.4-0.4v1.9c0,1.5,0.1,10,0.1,10.6
		c0,1.4,0.5,1.6,1.2,1.6h3c0.3,0,0.5,0.1,0.5,0.3v1.4c0,0.3-0.1,0.4-0.4,0.4c-0.5,0-2.5-0.2-7.8-0.2c-4.9,0-6.9,0.2-7.6,0.2
		c-0.2,0-0.3-0.1-0.3-0.5v-1.4c0-0.2,0.2-0.3,0.4-0.3h1.8c1.1,0,1.5-0.2,1.5-1c0.1-1,0.2-7.4,0.2-16V240c0-2.2-0.1-9.3-0.1-9.8
		c0-1-0.7-1.5-2.1-1.5H134c-0.3,0-0.5-0.1-0.5-0.3v-1.5c0-0.2,0.2-0.3,0.4-0.3c0.6,0,2.5,0.2,8.6,0.2c0.7,0,14-0.2,16.4-0.2
		c1.1,0,2.2-0.2,2.6-0.2c0.3,0,0.4,0.3,0.5,0.9l2,8.2c0.1,0.2,0,0.4-0.2,0.4l-1,0.6c-0.3,0.1-0.4,0-0.7-0.5
		c-0.7-0.9-1.9-2.5-3.9-4.6c-0.9-1-2.3-2-3.5-2.3c-1.3-0.4-6.6-0.5-8.9-0.5c0,0.7-0.1,10.7-0.1,13.8L145.7,244.8L145.7,244.8z"/>
	<path class="st0" d="M194.1,246.8c0,0.9,0,11.7,0.2,13.8h2.9c2.4,0,4.6,0,7.4-0.3c2.7-0.3,6.1-6.3,6.9-8.2c0.2-0.3,0.3-0.5,0.6-0.3
		l1,0.4c0.2,0.1,0.2,0.2,0.1,0.5c-0.2,0.4-2.2,8.7-2.5,10c-1.3-0.1-15.8-0.2-20.5-0.2c-5,0-6.8,0.2-7.5,0.2c-0.4,0-0.4-0.1-0.4-0.5
		V261c0-0.3,0.1-0.4,0.4-0.4h1.6c1.9,0,2.2-0.7,2.2-1.3c0-1,0.2-13.5,0.2-16.6V240c0-3.2-0.1-10.9-0.2-11.7
		c-0.1-1.3-0.4-1.8-1.5-1.8h-2c-0.3,0-0.4-0.3-0.4-0.5v-1.2c0-0.3,0.1-0.4,0.4-0.4c0.6,0,2.4,0.2,7,0.2c5.9,0,8-0.2,8.5-0.2
		c0.4,0,0.5,0.2,0.5,0.5v1.2c0,0.3-0.1,0.4-0.5,0.4H196c-1.6,0-1.8,0.5-1.8,1.9c0,0.7-0.2,10.6-0.2,14.1v4.3H194.1z"/>
	<path class="st0" d="M217,241.5c0-1.2-0.2-10.3-0.2-10.9c-0.1-1.2-0.6-1.7-1.7-1.7h-2.4c-0.3,0-0.4-0.1-0.4-0.3v-1.5
		c0-0.2,0.2-0.3,0.4-0.3c0.6,0,3.2,0.2,8.1,0.2c5.1,0,6.8-0.2,7.5-0.2c0.3,0,0.4,0.2,0.4,0.5v1.3c0,0.3-0.2,0.4-0.4,0.4h-1.5
		c-1.3,0-2,0.4-2,1.3c0,0.5-0.2,11.6-0.2,12.2v3.9c0,0.5,0.2,12.1,0.2,12.6c0,1.6,0.8,1.8,1.7,1.8h2.1c0.3,0,0.4,0.1,0.4,0.4v1.4
		c0,0.2-0.2,0.3-0.5,0.3c-0.6,0-2.6-0.2-7.4-0.2c-5.3,0-7.5,0.2-8,0.2c-0.3,0-0.4-0.1-0.4-0.4V261c0-0.2,0.2-0.3,0.4-0.3h1.5
		c1,0,2.1-0.2,2.3-1.4c0.1-0.8,0.3-11.6,0.3-14.3v-3.5H217z"/>
	<path class="st0" d="M244.2,229.2h-1.8c-1.6,0-4.6,0.1-6.8,0.8c-1.1,0.8-3.3,3.9-4.6,5.7c-0.2,0.3-0.3,0.4-0.5,0.4l-1.1-0.4
		c-0.2-0.1-0.3-0.3-0.2-0.5c0.6-2.1,2.2-8.8,2.4-9.8c0.2-0.7,0.4-0.9,0.8-0.9c0.4,0,0.5,0.2,1,0.8c0.6,0.7,1.5,1.2,3.3,1.3
		c2.7,0.2,4.8,0.3,10,0.3h2.9c5.5,0,7.7-0.2,9.8-0.3c1.1,0,3.1-0.7,3.7-1.3c0.5-0.5,0.8-0.8,1.2-0.8s0.5,0.2,0.6,0.8l1.5,10
		c0.1,0.2-0.1,0.4-0.2,0.5l-1.1,0.4c-0.2,0.1-0.3-0.1-0.5-0.5c-1.1-1.8-3.1-4.4-4.3-5.6c-1.3-0.8-5.7-1-6.9-1h-1.7V243
		c0,0.7,0,14.8,0.1,15.6c0.1,1.3,0.5,2,1.7,2h2.3c0.5,0,0.5,0.2,0.5,0.5v1.2c0,0.3-0.1,0.4-0.5,0.4c-0.5,0-2.1-0.2-7.7-0.2
		c-5.3,0-7.5,0.2-8.2,0.2c-0.4,0-0.5-0.2-0.5-0.6v-1c0-0.4,0.1-0.5,0.4-0.5h2.6c1,0,1.6-0.6,1.7-1.5c0.1-1.1,0.1-16.5,0.1-17.5
		V229.2z"/>
	<path class="st0" d="M279.2,243.3c2.3,0,4.5-0.2,5.1-0.3c0.9-0.2,1.6-0.7,2.3-1.6c0.6-0.8,1.2-2.2,1.2-3.1c0-0.4,0.2-0.5,0.4-0.5
		l1.4,0.2c0.3,0,0.5,0.1,0.4,0.4c-0.2,0.9-0.2,3.5-0.2,5.2c0,2.3,0.2,4.7,0.3,5.7c0,0.3-0.2,0.4-0.4,0.4l-1.2,0.3
		c-0.2,0.1-0.3-0.1-0.4-0.4c-0.2-0.8-0.7-2-1-2.6c-0.6-1-1.8-1.6-2.8-1.8c-1.4-0.2-2.9-0.3-5.1-0.3v3c0,2.7,0.3,7.6,0.3,8.5
		c0,2.6,0.6,3.5,1.2,3.8c0.8,0.3,1.7,0.5,4.2,0.5c0.9,0,3-0.1,4-0.2c1-0.1,2.5-0.6,3.8-1.7c1.3-1.1,4.1-4.2,5.1-5.4
		c0.2-0.2,0.4-0.3,0.5-0.2l0.9,0.5c0.2,0.1,0.3,0.3,0.2,0.4l-2.3,7.6c-0.2,0.5-0.5,0.8-1.1,0.8c-0.3,0-1.4,0-4.6-0.1
		c-3.3,0-8.6-0.1-17.3-0.1c-1.9,0-3.3,0.1-4.3,0.1c-1.1,0.1-1.7,0.1-2.2,0.1c-0.4,0-0.5-0.2-0.5-0.6v-1.1c0-0.3,0.2-0.5,0.5-0.5h1.5
		c2.3,0,2.5-0.4,2.5-2.1v-16.9c0-4.2-0.1-10.4-0.2-10.9c-0.2-1.6-0.7-2-2.1-2h-2c-0.2,0-0.3-0.2-0.3-0.5v-1.2c0-0.2,0.1-0.4,0.4-0.4
		c1.1,0,2.9,0.2,7.5,0.2h17.7c0.8,0,1.8-0.1,2-0.1c0.3,0,0.4,0.1,0.4,0.3c0.2,0.7,1.9,7.6,2.1,8.1c0.1,0.3,0.1,0.4-0.2,0.5l-0.8,0.4
		c-0.2,0.1-0.5,0.1-0.6-0.2c-0.3-0.4-4.8-4.9-5.9-5.6c-1.1-0.7-2.5-1.3-3.8-1.4l-6.7-0.2L279.2,243.3z"/>
	<path class="st0" d="M303.9,239.7c0-3.7,0-7,0-8.3c-0.1-1.7-0.7-2.5-1.4-2.5h-2c-0.3,0-0.3-0.2-0.3-0.4v-1.4c0-0.3,0-0.4,0.3-0.4
		c0.5,0,2,0.2,7.5,0.2c2.8,0,7.3-0.2,9.3-0.2c3.9,0,6.9,1.4,8.9,3.3c1.8,1.7,2.9,3.6,2.9,5.5c0,6.4-4.8,9.3-9.2,9.7v0.4
		c1.6,0.5,2.4,1.5,3.3,2.7c0.7,0.8,3.4,5.3,3.8,5.9c0.3,0.5,3,4.3,4,5.4c0.6,0.7,2.5,1.1,3.7,1.1c0.4,0,0.4,0.2,0.4,0.4v1.2
		c0,0.3-0.1,0.5-0.4,0.5c-0.4,0-1.7-0.2-5.6-0.2c-1.5,0-3.3,0.1-4.8,0.2c-1.5-1.2-4.6-7-5.5-8.7c-1.7-3.4-3.8-7.2-6.2-7.2h-1.7v2.6
		c0,3,0.2,8.6,0.3,9.3c0.1,1.1,0.5,2,1.3,2h2.1c0.4,0,0.4,0.2,0.4,0.4v1.2c0,0.4-0.1,0.5-0.8,0.5c-0.1,0-1.3-0.2-6.6-0.2
		c-5.3,0-6.5,0.2-7.1,0.2c-0.4,0-0.4-0.2-0.4-0.5v-1.2c0-0.3,0-0.4,0.3-0.4h1.5c1.1,0,2-0.4,2-1.6c0.1-5,0.1-9.7,0.1-14.5
		L303.9,239.7L303.9,239.7z M310.9,245.1c1,0,1.6,0,2,0c6.7,0,8.2-6.3,8.2-8.7c0-2.3-0.8-4.5-1.9-5.6c-1.8-1.6-4.1-2.2-5.6-2.2
		c-0.9,0-1.5,0.1-1.9,0.5c-0.3,0.2-0.5,0.8-0.6,1.4L310.9,245.1z"/>
	<path class="st0" d="M343.1,248.8c-0.4,1.1-2.9,8-2.9,9.6c0,1.1,0.5,2.3,2,2.3h1.8c0.5,0,0.6,0.2,0.6,0.4v1.1c0,0.4,0,0.6-0.5,0.6
		c-0.7,0-2.7-0.2-6.9-0.2c-3.7,0-4.8,0.2-5.5,0.2c-0.3,0-0.4-0.3-0.4-0.7v-1c0-0.3,0.1-0.5,0.4-0.5h1.3c1.2,0,2.4-0.7,3.4-2.2
		c0.7-1.1,4.3-9.8,5.9-14.3c0.4-1,4.5-11.8,4.9-13.2c0.2-0.5,0.4-1.2,0.1-1.7c-0.2-0.2-0.4-0.5-0.4-0.7s0.1-0.4,0.5-0.5
		c1.6-0.4,4.9-1.7,5.6-2.5c0.3-0.3,0.4-0.5,0.7-0.5c0.3,0,0.4,0.3,0.6,0.9c1,3.2,4.9,14.5,5.8,17.7c1.2,3.9,4.4,13.3,5.1,14.7
		c0.9,1.7,2.2,2.3,2.9,2.3h1.7c0.3,0,0.4,0.2,0.4,0.5v1c0,0.3-0.1,0.7-0.5,0.7c-1,0-2-0.2-8.5-0.2c-4.2,0-5.9,0.2-7,0.2
		c-0.5,0-0.6-0.3-0.6-0.7v-1c0-0.3,0.1-0.5,0.3-0.5h1.4c1.4,0,1.8-0.5,1.5-1.8c-0.5-1.8-2.4-8.3-3-10.1L343.1,248.8L343.1,248.8z
		 M353.7,246.8l-3.8-13.3c-0.2-0.8-0.3-1.1-0.6-1.1c-0.3,0-0.5,0.2-0.6,0.7c-0.3,0.7-4.6,12.5-5,13.8L353.7,246.8L353.7,246.8z"/>
	<path class="st0" d="M378,229.2h-1.8c-1.6,0-4.6,0.1-6.8,0.8c-1.1,0.8-3.3,3.9-4.6,5.7c-0.2,0.3-0.3,0.4-0.5,0.4l-1.1-0.4
		c-0.2-0.1-0.3-0.3-0.2-0.5c0.6-2.1,2.2-8.8,2.4-9.8c0.2-0.7,0.4-0.9,0.8-0.9s0.5,0.2,1,0.8c0.6,0.7,1.5,1.2,3.3,1.3
		c2.7,0.2,4.8,0.3,10,0.3h2.9c5.5,0,7.7-0.2,9.8-0.3c1.1,0,3.1-0.7,3.7-1.3c0.5-0.5,0.8-0.8,1.2-0.8s0.5,0.2,0.6,0.8l1.5,10
		c0.1,0.2,0,0.4-0.2,0.5l-1.1,0.4c-0.2,0.1-0.3-0.1-0.5-0.5c-1.1-1.8-3.1-4.4-4.3-5.6c-1.3-0.8-5.7-1-6.9-1h-1.7V243
		c0,0.7,0,14.8,0.1,15.6c0.1,1.3,0.5,2,1.7,2h2.3c0.5,0,0.5,0.2,0.5,0.5v1.2c0,0.3-0.1,0.4-0.5,0.4c-0.5,0-2.1-0.2-7.7-0.2
		c-5.3,0-7.5,0.2-8.2,0.2c-0.4,0-0.5-0.2-0.5-0.6v-1c0-0.4,0.1-0.5,0.4-0.5h2.6c1,0,1.6-0.6,1.7-1.5c0.1-1.1,0.1-16.5,0.1-17.5
		L378,229.2L378,229.2z"/>
	<path class="st0" d="M404.8,231.4c0-1.8-0.4-2.6-1.4-2.6H401c-0.3,0-0.4-0.1-0.4-0.5v-1.2c0-0.3,0.1-0.4,0.5-0.4
		c0.5,0,3,0.2,8.3,0.2c4.4,0,6.9-0.2,7.4-0.2c0.4,0,0.5,0.1,0.5,0.4v1.3c0,0.3,0,0.4-0.4,0.4h-1.7c-1.7,0-2.6,1-2.7,2
		c-0.1,0.6-0.1,4-0.1,6.5v3.3c0,2.7,0.2,9.1,0.3,10.7c0.1,2.3,0.5,4.6,1.6,6c1.7,2,4,2.8,6.3,2.8c1.9,0,4.6-1,5.9-2.2
		c2-1.8,3.2-4.6,3.2-8.2V242c0-4.2-0.5-9.8-0.7-10.9c-0.2-1.3-1-2.2-1.9-2.2h-1.6c-0.3,0-0.4-0.2-0.4-0.4v-1.3c0-0.3,0-0.4,0.4-0.4
		c0.5,0,2.8,0.2,6.2,0.2c2.7,0,4.3-0.2,4.8-0.2s0.5,0.2,0.5,0.5v1.1c0,0.3-0.1,0.5-0.3,0.5h-1.6c-1.9,0-2.1,1.4-2.2,1.9
		c-0.1,0.7-0.1,7.7-0.1,8.4s-0.1,9.5-0.3,11.5c-0.3,4.1-1.7,7.3-4.3,9.6c-2.2,2-5.6,3.1-8.9,3.1c-2.4,0-5.6-0.4-7.7-1.3
		c-2.4-1.1-4.6-3.4-5.8-6.6c-0.9-2.2-1.1-5.5-1.1-12.1v-12H404.8z"/>
	<path class="st0" d="M443,231.4c0-1.8-0.4-2.6-1.4-2.6h-2.4c-0.3,0-0.4-0.1-0.4-0.5v-1.2c0-0.3,0.1-0.4,0.5-0.4
		c0.5,0,3,0.2,8.3,0.2c4.4,0,6.9-0.2,7.4-0.2c0.4,0,0.5,0.1,0.5,0.4v1.3c0,0.3,0,0.4-0.4,0.4h-1.7c-1.7,0-2.6,1-2.7,2
		c-0.1,0.6-0.1,4-0.1,6.5v3.3c0,2.7,0.2,9.1,0.3,10.7c0.1,2.3,0.5,4.6,1.6,6c1.7,2,4,2.8,6.3,2.8c1.9,0,4.6-1,5.9-2.2
		c2-1.8,3.2-4.6,3.2-8.2V242c0-4.2-0.5-9.8-0.7-10.9c-0.2-1.3-1-2.2-1.9-2.2h-1.6c-0.3,0-0.4-0.2-0.4-0.4v-1.3c0-0.3,0-0.4,0.4-0.4
		c0.5,0,2.8,0.2,6.2,0.2c2.7,0,4.3-0.2,4.8-0.2s0.5,0.2,0.5,0.5v1.1c0,0.3-0.1,0.5-0.3,0.5h-1.6c-1.9,0-2.1,1.4-2.2,1.9
		c-0.1,0.7-0.1,7.7-0.1,8.4s-0.1,9.5-0.3,11.5c-0.3,4.1-1.7,7.3-4.3,9.6c-2.2,2-5.6,3.1-8.9,3.1c-2.4,0-5.6-0.4-7.7-1.3
		c-2.4-1.1-4.6-3.4-5.8-6.6c-0.9-2.2-1.1-5.5-1.1-12.1v-12H443z"/>
	<path class="st0" d="M480.7,239.7c0-3.7,0-7,0-8.3c-0.1-1.7-0.7-2.5-1.4-2.5h-2c-0.3,0-0.3-0.2-0.3-0.4v-1.4c0-0.3,0-0.4,0.3-0.4
		c0.5,0,2,0.2,7.5,0.2c2.8,0,7.3-0.2,9.3-0.2c3.9,0,6.9,1.4,8.9,3.3c1.8,1.7,2.9,3.6,2.9,5.5c0,6.4-4.8,9.3-9.2,9.7v0.4
		c1.6,0.5,2.4,1.5,3.3,2.7c0.7,0.8,3.4,5.3,3.8,5.9c0.3,0.5,3,4.3,4,5.4c0.6,0.7,2.5,1.1,3.7,1.1c0.4,0,0.4,0.2,0.4,0.4v1.2
		c0,0.3-0.1,0.5-0.4,0.5c-0.4,0-1.7-0.2-5.6-0.2c-1.5,0-3.3,0.1-4.8,0.2c-1.5-1.2-4.6-7-5.5-8.7c-1.7-3.4-3.8-7.2-6.2-7.2h-1.7v2.6
		c0,3,0.2,8.6,0.3,9.3c0.1,1.1,0.5,2,1.3,2h2.1c0.4,0,0.4,0.2,0.4,0.4v1.2c0,0.4-0.1,0.5-0.8,0.5c-0.1,0-1.3-0.2-6.6-0.2
		c-5.3,0-6.5,0.2-7.1,0.2c-0.4,0-0.4-0.2-0.4-0.5v-1.2c0-0.3,0-0.4,0.3-0.4h1.5c1.1,0,2-0.4,2-1.6c0.1-5,0.1-9.7,0.1-14.5
		L480.7,239.7L480.7,239.7z M487.7,245.1c1,0,1.6,0,2,0c6.7,0,8.2-6.3,8.2-8.7c0-2.3-0.8-4.5-1.9-5.6c-1.8-1.6-4.1-2.2-5.6-2.2
		c-0.9,0-1.5,0.1-1.9,0.5c-0.3,0.2-0.5,0.8-0.6,1.4L487.7,245.1z"/>
</g>
<g>
	<path class="st0" d="M144.6,298.6c-0.4,1.1-2.9,8-2.9,9.6c0,1.1,0.5,2.3,2,2.3h1.8c0.5,0,0.6,0.2,0.6,0.4v1.1
		c0,0.4-0.1,0.6-0.5,0.6c-0.7,0-2.7-0.2-6.9-0.2c-3.7,0-4.8,0.2-5.5,0.2c-0.3,0-0.4-0.3-0.4-0.7v-1c0-0.3,0.1-0.5,0.4-0.5h1.3
		c1.2,0,2.4-0.7,3.4-2.2c0.7-1.1,4.3-9.8,5.9-14.3c0.4-1,4.5-11.8,4.9-13.2c0.2-0.5,0.4-1.2,0.1-1.7c-0.2-0.2-0.4-0.5-0.4-0.7
		c0-0.2,0.1-0.4,0.5-0.5c1.6-0.4,4.9-1.7,5.6-2.5c0.3-0.3,0.4-0.5,0.7-0.5s0.4,0.3,0.6,0.9c1,3.2,4.9,14.5,5.8,17.7
		c1.2,3.9,4.4,13.3,5.1,14.7c0.9,1.7,2.2,2.3,2.9,2.3h1.7c0.3,0,0.4,0.2,0.4,0.5v1c0,0.3-0.1,0.7-0.5,0.7c-1,0-2-0.2-8.5-0.2
		c-4.2,0-5.9,0.2-7,0.2c-0.5,0-0.6-0.3-0.6-0.7v-1c0-0.3,0.1-0.5,0.3-0.5h1.4c1.4,0,1.8-0.5,1.5-1.8c-0.5-1.8-2.4-8.3-3-10.1h-10.7
		V298.6z M155.2,296.6l-3.8-13.3c-0.2-0.8-0.3-1.1-0.6-1.1s-0.5,0.2-0.6,0.7c-0.3,0.7-4.6,12.5-5,13.8h10V296.6z"/>
	<path class="st0" d="M185.2,296.6c0,0.9,0,11.7,0.2,13.8h2.9c2.4,0,4.6,0,7.4-0.3c2.7-0.3,6.1-6.3,6.9-8.2c0.2-0.3,0.3-0.5,0.6-0.3
		l1,0.4c0.2,0.1,0.2,0.2,0.1,0.5c-0.2,0.4-2.2,8.7-2.5,10c-1.3-0.1-15.8-0.2-20.5-0.2c-5,0-6.8,0.2-7.5,0.2c-0.4,0-0.4-0.1-0.4-0.5
		v-1.3c0-0.3,0.1-0.4,0.4-0.4h1.6c1.9,0,2.2-0.7,2.2-1.3c0-1,0.2-13.5,0.2-16.6v-2.8c0-3.2-0.1-8.6-0.2-9.4
		c-0.1-1.3-0.4-1.8-1.5-1.8h-1.9c-0.3,0-0.4-0.3-0.4-0.5v-1.2c0-0.3,0.1-0.4,0.4-0.4c0.6,0,2.4,0.2,7,0.2c5.9,0,8-0.2,8.5-0.2
		c0.4,0,0.5,0.2,0.5,0.5v1.2c0,0.3-0.1,0.4-0.5,0.4h-2.4c-1.6,0-1.8,0.5-1.8,1.9c0,0.7-0.2,8.3-0.2,11.8v4.5H185.2z"/>
	<path class="st0" d="M208.3,301.3c0.2,0,0.4,0.1,0.4,0.4c0.1,1.6,0.8,3.7,2,5.7c1.5,2.3,3.9,3.4,6.3,3.4c2.4,0,6.3-1.6,6.3-5.6
		c0-4.2-0.8-5.4-7.4-7.9c-1.5-0.6-4.7-2.2-7.3-4.4c-1.8-1.6-2.5-4.2-2.5-7.2c0-3.1,0.8-5.1,3.8-7.4c2.3-1.7,4.2-2.4,7.3-2.4
		c3.7,0,5.6,0.6,6.7,1c0.5,0.2,0.9,0.1,1.2-0.3l0.7-0.7c0.2-0.2,0.5-0.3,0.8-0.3c0.4,0,0.5,0.6,0.5,0.9l0.8,8.6
		c0,0.2-0.1,0.3-0.3,0.3l-1.1,0.4c-0.3,0.1-0.5,0-0.7-0.4c-0.6-1.5-1.4-3.4-3.1-5.2c-1.3-1.4-2.8-2.1-5-2.1c-3.8,0-5.3,3.3-5.3,4.6
		c0,1.9,0.1,3.4,1.3,4.6c1.3,1.4,4.2,2.6,6.7,3.3c2.4,0.7,4.4,2,6.4,3.8s2.8,4,2.8,7.5c0,6.1-4.4,11.1-11,11.1c-4.5,0-6.9-0.8-9-2.2
		c-0.6-0.4-0.9-0.6-1.2-0.6s-0.5,0.4-0.8,0.9c-0.3,0.6-0.6,0.6-0.9,0.6c-0.6,0-0.8-0.3-0.7-0.8l0.8-9.6c0.1-0.4,0.2-0.4,0.4-0.4
		L208.3,301.3z"/>
	<path class="st0" d="M259.7,296.6c0,0.9,0,11.7,0.2,13.8h2.9c2.4,0,4.6,0,7.4-0.3c2.7-0.3,6.1-6.3,6.9-8.2c0.2-0.3,0.3-0.5,0.6-0.3
		l1,0.4c0.2,0.1,0.2,0.2,0.1,0.5c-0.2,0.4-2.2,8.7-2.5,10c-1.3-0.1-15.8-0.2-20.5-0.2c-5,0-6.8,0.2-7.5,0.2c-0.4,0-0.4-0.1-0.4-0.5
		v-1.3c0-0.3,0.1-0.4,0.4-0.4h1.6c1.9,0,2.2-0.7,2.2-1.3c0-1,0.2-13.5,0.2-16.6v-2.8c0-3.2-0.1-8.6-0.2-9.4
		c-0.1-1.3-0.4-1.8-1.5-1.8h-1.9c-0.3,0-0.4-0.3-0.4-0.5v-1.2c0-0.3,0.1-0.4,0.4-0.4c0.6,0,2.4,0.2,7,0.2c5.9,0,8-0.2,8.5-0.2
		c0.4,0,0.5,0.2,0.5,0.5v1.2c0,0.3-0.1,0.4-0.5,0.4h-2.4c-1.6,0-1.8,0.5-1.8,1.9c0,0.7-0.2,8.3-0.2,11.8v4.5H259.7z"/>
	<path class="st0" d="M286.8,309.9c-3.6-2.2-7.4-7.6-7.4-15c0-3.1,0.8-7.9,4.7-12.5c4.4-5.4,10.1-6.4,14.7-6.4c4.2,0,8.1,0.7,12.3,4
		c3.8,3,6.9,8.1,6.9,15.1c0,3.7-1.2,7.5-3.8,11c-3.3,4.1-7.6,7.1-15.5,7.1C295.1,313.1,290.7,312.3,286.8,309.9z M310,295.4
		c0-11-7.3-17.1-11.5-17.1c-1,0-3.5-0.3-6.6,2.7c-3,2.8-4.5,8.1-4.5,12.2c0,12.9,7.4,17.5,11.6,17.5
		C308.3,310.8,310,299.5,310,295.4z"/>
	<path class="st0" d="M323.7,301.3c0.2,0,0.4,0.1,0.4,0.4c0.1,1.6,0.8,3.7,2,5.7c1.5,2.3,3.9,3.4,6.3,3.4s6.3-1.6,6.3-5.6
		c0-4.2-0.8-5.4-7.4-7.9c-1.5-0.6-4.7-2.2-7.3-4.4c-1.8-1.6-2.5-4.2-2.5-7.2c0-3.1,0.8-5.1,3.8-7.4c2.3-1.7,4.2-2.4,7.3-2.4
		c3.7,0,5.6,0.6,6.7,1c0.5,0.2,0.9,0.1,1.2-0.3l0.7-0.7c0.2-0.2,0.5-0.3,0.8-0.3c0.4,0,0.5,0.6,0.5,0.9l0.8,8.6
		c0,0.2-0.1,0.3-0.3,0.3l-1.1,0.4c-0.3,0.1-0.5,0-0.7-0.4c-0.6-1.5-1.4-3.4-3.1-5.2c-1.3-1.4-2.8-2.1-5-2.1c-3.8,0-5.3,3.3-5.3,4.6
		c0,1.9,0,3.4,1.3,4.6c1.3,1.4,4.2,2.6,6.6,3.3c2.4,0.7,4.4,2,6.4,3.8s2.8,4,2.8,7.5c0,6.1-4.4,11.1-11,11.1c-4.5,0-6.9-0.8-9-2.2
		c-0.6-0.4-0.9-0.6-1.2-0.6c-0.3,0-0.5,0.4-0.8,0.9c-0.3,0.6-0.6,0.6-0.9,0.6c-0.6,0-0.8-0.3-0.7-0.8l0.8-9.6
		c0.1-0.4,0.2-0.4,0.4-0.4L323.7,301.3z"/>
	<path class="st0" d="M358.8,299c0,2.4,0.1,9.2,0.1,9.8c0.1,1.1,0.6,1.6,1.4,1.6h2.6c0.4,0,0.4,0.2,0.4,0.4v1.3c0,0.3,0,0.4-0.5,0.4
		c-0.7,0-2.3-0.2-8.2-0.2c-4.4,0-6.4,0.2-7,0.2c-0.4,0-0.4-0.2-0.4-0.4v-1.4c0-0.3,0.1-0.4,0.3-0.4h1.3c1.7,0,2.1-0.3,2.2-1.5
		c0-0.5,0.2-8.4,0.2-14.2V289c0-3.3-0.1-8.6-0.1-9.2c-0.1-1-0.6-1.1-1.6-1.1h-2.4c-0.3,0-0.3-0.1-0.3-0.4V277c0-0.3,0-0.4,0.3-0.4
		c0.6,0,2.4,0.2,7.7,0.2c0.9,0,3.9-0.2,5.5-0.2c6.2,0,9.2,0.5,12.1,2.8c2.1,1.6,3.6,4.5,3.6,7.8c0,6-4.8,10.2-13.3,10.2
		c-1.6,0-2.7-0.1-4.1-0.2v1.8H358.8z M358.8,295.2c1.1,0.3,2.3,0.3,3.1,0.3c1.6,0,4.1-1.6,5.2-3.4c1-1.6,1.2-3.5,1.2-5.3
		c0-7-5-8.4-7.1-8.4c-0.9,0-1.5,0.1-2.4,0.3L358.8,295.2L358.8,295.2z"/>
	<path class="st0" d="M382.3,289.5c0-3.7,0-7,0-8.3c-0.1-1.7-0.7-2.5-1.4-2.5h-2c-0.3,0-0.3-0.2-0.3-0.4v-1.4c0-0.3,0-0.4,0.3-0.4
		c0.5,0,2,0.2,7.5,0.2c2.8,0,7.3-0.2,9.3-0.2c3.9,0,6.9,1.4,8.9,3.3c1.8,1.7,2.9,3.6,2.9,5.5c0,6.4-4.8,9.3-9.2,9.7v0.4
		c1.6,0.5,2.4,1.5,3.3,2.7c0.7,0.8,3.4,5.3,3.8,5.9c0.3,0.5,3,4.3,4,5.4c0.6,0.7,2.5,1.1,3.7,1.1c0.4,0,0.4,0.2,0.4,0.4v1.2
		c0,0.3-0.1,0.5-0.4,0.5c-0.4,0-1.7-0.2-5.6-0.2c-1.5,0-3.3,0.1-4.8,0.2c-1.5-1.2-4.6-7-5.5-8.7c-1.7-3.4-3.8-7.2-6.2-7.2h-1.7v2.6
		c0,3,0.2,8.6,0.3,9.3c0.1,1.1,0.5,2,1.3,2h2.1c0.4,0,0.4,0.2,0.4,0.4v1.2c0,0.4-0.1,0.5-0.8,0.5c-0.1,0-1.3-0.2-6.6-0.2
		c-5.3,0-6.5,0.2-7.1,0.2c-0.4,0-0.4-0.2-0.4-0.5V311c0-0.3,0-0.4,0.3-0.4h1.5c1.1,0,2-0.4,2-1.6c0.1-5,0.1-9.7,0.1-14.5
		L382.3,289.5L382.3,289.5z M389.4,294.9c1,0,1.6,0,2,0c6.7,0,8.2-6.3,8.2-8.7c0-2.3-0.8-4.5-1.9-5.6c-1.8-1.6-4.1-2.2-5.6-2.2
		c-0.9,0-1.5,0.1-1.9,0.5c-0.3,0.2-0.5,0.8-0.6,1.4L389.4,294.9z"/>
	<path class="st0" d="M417.3,291.3c0-1.2-0.2-10.3-0.2-10.9c-0.1-1.2-0.6-1.7-1.7-1.7H413c-0.3,0-0.4-0.1-0.4-0.3v-1.5
		c0-0.2,0.2-0.3,0.4-0.3c0.6,0,3.2,0.2,8.1,0.2c5.1,0,6.8-0.2,7.5-0.2c0.3,0,0.4,0.2,0.4,0.5v1.3c0,0.3-0.2,0.4-0.4,0.4H427
		c-1.3,0-2,0.4-2,1.3c0,0.5-0.2,11.6-0.2,12.2v3.9c0,0.5,0.2,12.1,0.2,12.6c0,1.6,0.8,1.8,1.7,1.8h2.1c0.3,0,0.4,0.1,0.4,0.4v1.4
		c0,0.2-0.2,0.3-0.5,0.3c-0.6,0-2.6-0.2-7.4-0.2c-5.3,0-7.5,0.2-8,0.2c-0.3,0-0.4-0.1-0.4-0.4v-1.4c0-0.2,0.2-0.3,0.4-0.3h1.5
		c1,0,2.1-0.2,2.3-1.4c0.1-0.8,0.3-11.6,0.3-14.3v-3.6H417.3z"/>
	<path class="st0" d="M434.9,292.1c0-0.8,0-9.7-0.2-11.8c-0.3-1.1-0.5-1.7-2.2-1.7h-1.7c-0.2,0-0.4-0.1-0.4-0.3v-1.5
		c0-0.3,0.1-0.4,0.4-0.4c0.6,0,2.4,0.2,8,0.2c4.9,0,6.7-0.2,7.5-0.2c0.3,0,0.4,0.1,0.4,0.4v1.3c0,0.3-0.1,0.4-0.4,0.4h-1.8
		c-1.4,0-1.8,0.4-1.9,1.4c-0.1,0.8-0.2,7.3-0.2,13.3v2.3c0,6.4-0.2,11.3-0.2,12.5c0,2.7-0.4,4.8-2,7.7c-2.3,3.8-6.4,7.6-12.3,7.6
		c-1.4,0-3.8-0.9-3.8-3.6c0-1.7,1.3-3.2,3-3.2c2.5,0,3.6,2.1,4.5,4.1c1.1,0,2.2-1.2,2.7-3c1.1-3.7,0.5-18.3,0.5-22v-3.5H434.9z"/>
	<path class="st0" d="M450.8,301.3c0.2,0,0.4,0.1,0.4,0.4c0.1,1.6,0.8,3.7,2,5.7c1.5,2.3,3.9,3.4,6.3,3.4s6.3-1.6,6.3-5.6
		c0-4.2-0.8-5.4-7.4-7.9c-1.5-0.6-4.7-2.2-7.3-4.4c-1.8-1.6-2.5-4.2-2.5-7.2c0-3.1,0.8-5.1,3.8-7.4c2.3-1.7,4.2-2.4,7.3-2.4
		c3.7,0,5.6,0.6,6.7,1c0.5,0.2,0.9,0.1,1.2-0.3l0.7-0.7c0.2-0.2,0.5-0.3,0.8-0.3c0.4,0,0.5,0.6,0.5,0.9l0.8,8.6
		c0,0.2-0.1,0.3-0.3,0.3l-1.1,0.4c-0.3,0.1-0.5,0-0.7-0.4c-0.6-1.5-1.4-3.4-3.1-5.2c-1.3-1.4-2.8-2.1-5-2.1c-3.8,0-5.3,3.3-5.3,4.6
		c0,1.9,0,3.4,1.3,4.6c1.3,1.4,4.2,2.6,6.6,3.3c2.4,0.7,4.4,2,6.4,3.8s2.8,4,2.8,7.5c0,6.1-4.4,11.1-11,11.1c-4.5,0-6.9-0.8-9-2.2
		c-0.6-0.4-0.9-0.6-1.2-0.6c-0.3,0-0.5,0.4-0.8,0.9c-0.3,0.6-0.6,0.6-0.9,0.6c-0.6,0-0.8-0.3-0.7-0.8l0.8-9.6
		c0.1-0.4,0.2-0.4,0.4-0.4L450.8,301.3z"/>
</g>
</svg>
