<?xml version="1.0" encoding="utf-8"?>
<!-- Generator: Adobe Illustrator 19.1.0, SVG Export Plug-In . SVG Version: 6.00 Build 0)  -->
<svg version="1.1" id="Layer_1" xmlns="http://www.w3.org/2000/svg" xmlns:xlink="http://www.w3.org/1999/xlink" x="0px" y="0px"
	 width="565px" height="571px" viewBox="0 0 565 571" enable-background="new 0 0 565 571" xml:space="preserve">
<path fill="#929293" d="M400.6,123c0.3,3.5,1.4,4.7,1.4,4.7c3.1,2.1,3.4,4.4,3.4,4.4l1.2-4c0.9-1.7,0.2-7.8,0.9-13.1
	c1.1-8.1,2.3-11.7,3.7-14.3c1-1.8,1.8-3.5,2.5-5.2c-2.7,3.3-6.7,6.9-12.7,10.3l-1.7,1.8c1.4,2,1.1,5.5,1.1,5.5
	C399.5,117.1,400.6,123,400.6,123"/>
<g>
	<path fill="#929293" d="M326,95.4c0,0-7.6-4.7,0.2-21.1C326.2,74.2,312.1,89.2,326,95.4z"/>
	<path fill="#929293" d="M254.5,19v238.6h233.4V19H254.5z M422.6,194.1l-15.7,7.5c-9.9,4.5-20.3,8.9-30.9,13
		c-23.9,9.1-47.4,16.1-69.5,21c0,0,0,0,0-0.1c1.6-3.4,6.1-13.3,7.1-20.1c0,0,3.3-14.7,18.9-23.8c2.2-1.3,25.5-5.8,26.1-11.3
		c0,0,1.9-3.7-2.6-6.4c0,0-2-1.1-5.1-3.4c-0.5-0.3-0.9-0.7-1.4-1c0,0,0,0-0.1-0.1c-1-0.7-8.6-6.5-11.5-21.5l-1.7-4.1
		c0,0-0.4-0.4-1.1-1c-1.9-2-5.5-6.5-4.9-10.6c0,0,0.5-3.8-1.9-8.8c-0.3-0.7-0.7-1.5-1.2-2.2c0,0-2.8-2.3-1.4-5.5
		c-2.5-2.5-4.2-4.7-4.2-8.5c0-2,1.3-4,1.1-5.8c-0.5-5.2-5.9-9.5-6.9-14.6c0,0-0.2-0.8-0.2-2.1c-0.1-2.6,1.2-7.6,6.2-13.5
		c1.2-1.4,5.3-3.1,7-4.6c2.1-1.9,2.4-5,5.3-6.9l1.5-2.9c0,0,4.9-5.6,5.3-5.9c2.4-1.8,17.6-7.9,29.8-8c6.3-0.1,9.6,3.5,14.4,5.6
		c4.8,2.2,7.9,1.7,13.5,4.7c0,0,5,2.2,7.3,4c6.1,4.7,16.4,15.6,11.1,33c-3.7,5.8-8.6,8.7-13.3,10c-0.4-0.8-1.1-1.8-2.1-3
		c0,0-2.8-5-11.1-7.9c0,0-6.3-2.7-8.3-1.8c0,0-6.5-0.9-8.2-1.8c0,0-17.1-7.1-22.2-1.3c0,0-8.3,5.8-3.5,14.3c0,0,3.4,10.2-0.6,12.2
		c0,0-4.6,2.6,2.8,3.2c0,0,6.3-2.3,12.5,1.8c0,0,4-3.8,10.3-3.2c0,0,7.1,0,16.2,4.2c0,0,6.8,4.4,0.5,6.4l-2.8-0.3c0,0-4-0.3-5.2,2.9
		c0,0-6,4.3-10.3,0.2l-2.3-3.2c0,0-6.2-7-7.1,1.4l-1.2,11.9c0,0-1.5,8.2,5.4,8.2c0,0,10-3.2,2.6,2.3c0,0-2.3,1.4-2.9,4.7
		c0,0-1.1,1.7-2,0.6c0,0-4.8,2-1.1,2.6c0,0,5.1-0.3,6.3,0c0,0,2.7,0.4,5-0.5c0,0,3.7-1.9,3.4,0.7c0,0,0.2,2-4.6,1.7
		c0,0-11.4-0.3-4.9,3.5c0,0,6.6-1.4,1.4,1.5l-6.3,4c0,0-9.1,6.4,4.8,6.7c0,0,6.3,1.8,22-7.5c0,0-0.4,13.7,5.9,19.5
		c0,0,21.4-11.5,13.8-17.7c0,0,10,3.6,12.2,5c0,0,1.2,0.9,2.8,1c1,0,2.1-0.3,3.2-1.2c0,0,18.4,1.8,26.7,7.3
		C444.1,184.6,434.4,189.3,422.6,194.1z"/>
</g>
<g>
	<path fill="#929293" d="M92.6,95.4c0,0-7.6-4.7,0.2-21.1C92.9,74.2,78.7,89.2,92.6,95.4z"/>
	<path fill="#929293" d="M17.2,19v238.6h233.3V19H17.2z M185.3,194.1l-15.7,7.5c-9.9,4.5-20.3,8.9-30.9,13
		c-23.9,9.1-47.4,16.1-69.5,21c0,0,0,0,0-0.1c1.6-3.4,6.1-13.3,7.1-20.1c0,0,3.3-14.7,18.9-23.8c2.2-1.3,25.5-5.8,26.1-11.3
		c0,0,1.9-3.7-2.6-6.4c0,0-2-1.1-5.1-3.4c-0.5-0.3-0.9-0.7-1.4-1c0,0,0,0-0.1-0.1c-1-0.7-8.6-6.5-11.5-21.5l-1.7-4.1
		c0,0-0.4-0.4-1-1c-1.9-2-5.5-6.5-4.9-10.6c0,0,0.5-3.8-1.9-8.8c-0.3-0.7-0.7-1.5-1.2-2.2c0,0-2.8-2.3-1.4-5.5
		c-2.5-2.5-4.2-4.7-4.2-8.5c0-2,1.3-4,1.1-5.8c-0.5-5.2-5.9-9.5-6.9-14.6c0,0-0.2-0.8-0.2-2.1C78,82,79.3,76.9,84.4,71
		c1.2-1.4,5.3-3.1,6.9-4.6c2.1-1.9,2.4-5,5.3-6.9l1.5-2.9c0,0,4.9-5.6,5.3-5.9c2.4-1.8,17.6-7.9,29.8-8c6.3-0.1,9.6,3.5,14.4,5.6
		c4.8,2.2,7.9,1.7,13.5,4.7c0,0,5,2.2,7.3,4c6.1,4.7,16.4,15.6,11.1,33c-3.7,5.8-8.6,8.7-13.3,10c-0.4-0.8-1.1-1.8-2.1-3
		c0,0-2.8-5-11.1-7.9c0,0-6.3-2.7-8.3-1.8c0,0-6.5-0.9-8.2-1.8c0,0-17.1-7.1-22.2-1.3c0,0-8.3,5.8-3.5,14.3c0,0,3.4,10.2-0.6,12.2
		c0,0-4.6,2.6,2.8,3.2c0,0,6.3-2.3,12.5,1.8c0,0,4-3.8,10.3-3.2c0,0,7.1,0,16.2,4.2c0,0,6.8,4.4,0.5,6.4l-2.8-0.3c0,0-4-0.3-5.2,2.9
		c0,0-6,4.3-10.3,0.2l-2.3-3.2c0,0-6.2-7-7.1,1.4l-1.2,11.9c0,0-1.5,8.2,5.4,8.2c0,0,10-3.2,2.6,2.3c0,0-2.3,1.4-2.9,4.7
		c0,0-1.2,1.7-2,0.6c0,0-4.9,2-1.1,2.6c0,0,5.1-0.3,6.3,0c0,0,2.7,0.4,5-0.5c0,0,3.7-1.9,3.4,0.7c0,0,0.2,2-4.6,1.7
		c0,0-11.4-0.3-4.9,3.5c0,0,6.6-1.4,1.4,1.5l-6.3,4c0,0-9.1,6.4,4.8,6.7c0,0,6.3,1.8,22-7.5c0,0-0.4,13.7,5.9,19.5
		c0,0,21.4-11.5,13.8-17.7c0,0,10,3.6,12.2,5c0,0,1.2,0.9,2.8,1c1,0,2.1-0.3,3.1-1.2c0,0,18.4,1.8,26.7,7.3
		C206.8,184.6,197.1,189.3,185.3,194.1z M163.9,105.5l1.7-1.8c6-3.4,10-6.9,12.7-10.3c-0.7,1.7-1.5,3.4-2.5,5.2
		c-1.4,2.6-2.6,6.2-3.7,14.3c-0.7,5.3,0,11.4-0.9,13.1l-1.2,4c0,0-0.3-2.3-3.4-4.4c0,0-1.1-1.2-1.4-4.7c0,0-1.1-5.8-0.2-9.9
		C165,111.1,165.3,107.6,163.9,105.5z"/>
</g>
<path fill="#929293" d="M400.6,361.5c0.3,3.5,1.4,4.7,1.4,4.7c3.1,2.1,3.4,4.4,3.4,4.4l1.2-4c0.9-1.7,0.2-7.8,0.9-13.1
	c1.1-8.1,2.3-11.7,3.7-14.3c1-1.8,1.8-3.5,2.5-5.2c-2.7,3.3-6.7,6.9-12.7,10.3l-1.7,1.8c1.4,2,1.1,5.5,1.1,5.5
	C399.5,355.7,400.6,361.5,400.6,361.5"/>
<g>
	<path fill="#929293" d="M326,333.9c0,0-7.6-4.7,0.2-21.1C326.2,312.8,312.1,327.8,326,333.9z"/>
	<path fill="#929293" d="M254.5,261.6v238.6h233.4V261.6H254.5z M422.6,436.6l-15.7,7.5c-9.9,4.5-20.3,8.9-30.9,13
		c-23.9,9.1-47.4,16.1-69.5,21c0,0,0,0,0-0.1c1.6-3.4,6.1-13.3,7.1-20.1c0,0,3.3-14.7,18.9-23.8c2.2-1.3,25.5-5.8,26.1-11.3
		c0,0,1.9-3.7-2.6-6.4c0,0-2-1.1-5.1-3.4c-0.5-0.3-0.9-0.7-1.4-1c0,0,0,0-0.1-0.1c-1-0.7-8.6-6.5-11.5-21.5l-1.7-4.1
		c0,0-0.4-0.4-1.1-1.1c-1.9-2-5.5-6.5-4.9-10.6c0,0,0.5-3.8-1.9-8.8c-0.3-0.7-0.7-1.5-1.2-2.2c0,0-2.8-2.3-1.4-5.5
		c-2.5-2.5-4.2-4.7-4.2-8.5c0-2,1.3-4,1.1-5.8c-0.5-5.2-5.9-9.5-6.9-14.7c0,0-0.2-0.8-0.2-2.1c-0.1-2.6,1.2-7.6,6.2-13.5
		c1.2-1.4,5.3-3.1,7-4.6c2.1-1.9,2.4-5,5.3-6.9l1.5-2.9c0,0,4.9-5.6,5.3-5.9c2.4-1.8,17.6-7.9,29.8-8c6.3-0.1,9.6,3.5,14.4,5.6
		c4.8,2.2,7.9,1.7,13.5,4.7c0,0,5,2.2,7.3,4c6.1,4.7,16.4,15.6,11.1,33c-3.7,5.8-8.6,8.7-13.3,10c-0.4-0.8-1.1-1.8-2.1-3
		c0,0-2.8-5-11.1-7.9c0,0-6.3-2.6-8.3-1.8c0,0-6.5-0.9-8.2-1.8c0,0-17.1-7.1-22.2-1.3c0,0-8.3,5.8-3.5,14.3c0,0,3.4,10.2-0.6,12.2
		c0,0-4.6,2.6,2.8,3.2c0,0,6.3-2.3,12.5,1.8c0,0,4-3.8,10.3-3.1c0,0,7.1,0,16.2,4.2c0,0,6.8,4.4,0.5,6.4l-2.8-0.3c0,0-4-0.3-5.2,2.9
		c0,0-6,4.3-10.3,0.2l-2.3-3.2c0,0-6.2-7-7.1,1.4l-1.2,11.9c0,0-1.5,8.2,5.4,8.2c0,0,10-3.2,2.6,2.3c0,0-2.3,1.4-2.9,4.7
		c0,0-1.1,1.7-2,0.6c0,0-4.8,2-1.1,2.6c0,0,5.1-0.3,6.3,0c0,0,2.7,0.4,5-0.5c0,0,3.7-1.9,3.4,0.7c0,0,0.2,2-4.6,1.7
		c0,0-11.4-0.3-4.9,3.5c0,0,6.6-1.4,1.4,1.5l-6.3,4c0,0-9.1,6.4,4.8,6.7c0,0,6.3,1.8,22-7.5c0,0-0.4,13.7,5.9,19.5
		c0,0,21.4-11.5,13.8-17.7c0,0,10,3.5,12.2,5c0,0,1.2,0.9,2.8,1c1,0,2.1-0.3,3.2-1.2c0,0,18.4,1.8,26.7,7.3
		C444.1,427.2,434.4,431.8,422.6,436.6z"/>
</g>
<g>
	<path fill="#929293" d="M92.6,333.9c0,0-7.6-4.7,0.2-21.1C92.9,312.8,78.7,327.8,92.6,333.9z"/>
	<path fill="#929293" d="M17.2,261.6v238.6h233.3V261.6H17.2z M185.3,436.6l-15.7,7.5c-9.9,4.5-20.3,8.9-30.9,13
		c-23.9,9.1-47.4,16.1-69.5,21c0,0,0,0,0-0.1c1.6-3.4,6.1-13.3,7.1-20.1c0,0,3.3-14.7,18.9-23.8c2.2-1.3,25.5-5.8,26.1-11.3
		c0,0,1.9-3.7-2.6-6.4c0,0-2-1.1-5.1-3.4c-0.5-0.3-0.9-0.7-1.4-1c0,0,0,0-0.1-0.1c-1-0.7-8.6-6.5-11.5-21.5l-1.7-4.1
		c0,0-0.4-0.4-1-1.1c-1.9-2-5.5-6.5-4.9-10.6c0,0,0.5-3.8-1.9-8.8c-0.3-0.7-0.7-1.5-1.2-2.2c0,0-2.8-2.3-1.4-5.5
		c-2.5-2.5-4.2-4.7-4.2-8.5c0-2,1.3-4,1.1-5.8c-0.5-5.2-5.9-9.5-6.9-14.7c0,0-0.2-0.8-0.2-2.1c-0.1-2.6,1.2-7.6,6.2-13.5
		c1.2-1.4,5.3-3.1,6.9-4.6c2.1-1.9,2.4-5,5.3-6.9l1.5-2.9c0,0,4.9-5.6,5.3-5.9c2.4-1.8,17.6-7.9,29.8-8c6.3-0.1,9.6,3.5,14.4,5.6
		c4.8,2.2,7.9,1.7,13.5,4.7c0,0,5,2.2,7.3,4c6.1,4.7,16.4,15.6,11.1,33c-3.7,5.8-8.6,8.7-13.3,10c-0.4-0.8-1.1-1.8-2.1-3
		c0,0-2.8-5-11.1-7.9c0,0-6.3-2.6-8.3-1.8c0,0-6.5-0.9-8.2-1.8c0,0-17.1-7.1-22.2-1.3c0,0-8.3,5.8-3.5,14.3c0,0,3.4,10.2-0.6,12.2
		c0,0-4.6,2.6,2.8,3.2c0,0,6.3-2.3,12.5,1.8c0,0,4-3.8,10.3-3.1c0,0,7.1,0,16.2,4.2c0,0,6.8,4.4,0.5,6.4l-2.8-0.3c0,0-4-0.3-5.2,2.9
		c0,0-6,4.3-10.3,0.2l-2.3-3.2c0,0-6.2-7-7.1,1.4l-1.2,11.9c0,0-1.5,8.2,5.4,8.2c0,0,10-3.2,2.6,2.3c0,0-2.3,1.4-2.9,4.7
		c0,0-1.2,1.7-2,0.6c0,0-4.9,2-1.1,2.6c0,0,5.1-0.3,6.3,0c0,0,2.7,0.4,5-0.5c0,0,3.7-1.9,3.4,0.7c0,0,0.2,2-4.6,1.7
		c0,0-11.4-0.3-4.9,3.5c0,0,6.6-1.4,1.4,1.5l-6.3,4c0,0-9.1,6.4,4.8,6.7c0,0,6.3,1.8,22-7.5c0,0-0.4,13.7,5.9,19.5
		c0,0,21.4-11.5,13.8-17.7c0,0,10,3.5,12.2,5c0,0,1.2,0.9,2.8,1c1,0,2.1-0.3,3.1-1.2c0,0,18.4,1.8,26.7,7.3
		C206.8,427.2,197.1,431.8,185.3,436.6z M163.9,348.1l1.7-1.8c6-3.4,10-6.9,12.7-10.3c-0.7,1.7-1.5,3.4-2.5,5.2
		c-1.4,2.6-2.6,6.2-3.7,14.3c-0.7,5.3,0,11.4-0.9,13.1l-1.2,4c0,0-0.3-2.3-3.4-4.4c0,0-1.1-1.2-1.4-4.7c0,0-1.1-5.8-0.2-9.9
		C165,353.6,165.3,350.1,163.9,348.1z"/>
</g>
<polygon fill="#929293" points="19.1,514.1 38,514.1 51.8,540.5 65.7,514.1 84.6,514.1 84.6,555.1 72.6,555.1 72.6,525.7 
	72.5,525.7 56.4,555.1 47.3,555.1 31.2,525.7 31,525.7 31,555.1 19.1,555.1 "/>
<path fill="#929293" d="M110.7,514.1h16l22,41H135l-3.8-7.2h-24.9l-3.6,7.2H89L110.7,514.1z M110.9,539h15.7l-8-15.4L110.9,539z"/>
<path fill="#929293" d="M153.1,514.1h37.1c9.5,0,12,4.8,12,12.2v2.6c0,5.5-1.2,8.7-6.9,10.1v0.1c3.7,0.7,6.7,2.3,6.7,9.1v7h-12.3
	v-4.9c0-4.3-1.2-5.7-5-5.7h-19.3v10.6h-12.3V514.1z M165.3,534.3h20.3c3.3,0,4.5-1.4,4.5-4.3v-1.4c0-3.6-1.8-4.3-5.6-4.3h-19.2
	V534.3z"/>
<rect x="211.1" y="514.1" fill="#929293" width="12.3" height="41"/>
<polygon fill="#929293" points="232.4,514.1 276.2,514.1 276.2,523.7 244.7,523.7 244.7,530.2 274.5,530.2 274.5,538.7 244.7,538.7 
	244.7,545.3 276.9,545.3 276.9,555.1 232.4,555.1 "/>
<path fill="#929293" d="M310.8,528.5c0-12,6.6-14.8,17.7-14.8h14.4c17.5,0,19.8,3.8,19.6,15.4h-12.3V528c0-2.9-2.1-3.8-5.8-3.8
	h-13.4c-6.5,0-7.7,3.1-7.7,8.2v4.4c0,5.9,1.2,8.2,7,8.2h13.1c5.5,0,7.2-0.6,7.2-5.7H363v3.8c0,6.9-2.4,12.3-14.8,12.3h-19.8
	c-11.1,0-17.7-2.8-17.7-14.8V528.5z"/>
<path fill="#929293" d="M370.4,514.1h12.3v23.6c0,5.2,1.8,7.2,6.9,7.2h12.2c5,0,6.9-2,6.9-7.2v-23.6h12.3v26.4
	c0,10.2-5.1,15-16.4,15h-17.6c-11.3,0-16.4-4.9-16.4-15V514.1z"/>
<path fill="#929293" d="M429.2,514.1h37.1c9.5,0,12,4.8,12,12.2v2.6c0,5.5-1.2,8.7-6.9,10.1v0.1c3.6,0.7,6.7,2.3,6.7,9.1v7h-12.3
	v-4.9c0-4.3-1.2-5.7-5-5.7h-19.3v10.6h-12.3V514.1z M441.5,534.3h20.3c3.3,0,4.5-1.4,4.5-4.3v-1.4c0-3.6-1.8-4.3-5.6-4.3h-19.2
	V534.3z"/>
<rect x="487.3" y="514.1" fill="#929293" width="12.3" height="41"/>
<polygon fill="#929293" points="508.5,514.1 552.3,514.1 552.3,523.7 520.8,523.7 520.8,530.2 550.7,530.2 550.7,538.7 520.8,538.7 
	520.8,545.3 553,545.3 553,555.1 508.5,555.1 "/>
<path fill="#929293" d="M501.8,474.1v-20.9l51.2-28.8v17.9l-9.1,5v32.5l9.1,4.7v17.9L501.8,474.1z M533,473.8v-20.5l-19.2,10.4
	L533,473.8z"/>
<path fill="#929293" d="M519.8,422.5c-15,0-18.5-8.6-18.5-23.1v-18.9c0-22.8,4.8-25.8,19.3-25.7v16h-1.4c-3.7,0-4.7,2.7-4.7,7.5V396
	c0,8.5,3.9,10,10.3,10h5.5c7.4,0,10.2-1.6,10.2-9.2v-17.1c0-7.2-0.7-9.4-7.1-9.4v-16.1h4.8c8.6,0,15.4,3.2,15.4,19.3v25.9
	c0,14.5-3.5,23.1-18.5,23.1H519.8z"/>
<polygon fill="#929293" points="501.8,348.4 501.8,287.2 514.6,287.2 514.6,309.8 553,309.8 553,325.8 514.6,325.8 514.6,348.4 "/>
<rect x="501.8" y="263.3" fill="#929293" width="51.2" height="16.1"/>
<polygon fill="#929293" points="501.8,165.8 501.8,140.9 539,110.8 539,110.6 501.8,110.6 501.8,94.6 553,94.6 553,119.5 
	515.8,149.6 515.8,149.8 553,149.8 553,165.8 "/>
<path fill="#929293" d="M536.3,87.4v-16c5.4-0.1,5.9-2.3,5.9-6.9V44.7c0-3.4-0.4-6.9-4.3-6.9c-4.5,0-4.7,1.9-4.7,22.6
	c0,24.1-2.8,26.9-15.4,26.9c-9.3,0-16.4-0.9-16.4-21.1V43.8c0-18.5,6.2-20.2,15.1-20.2h1.6v16c-3.8,0-5.3,0.4-5.3,7.8v17.8
	c0,3.6,1.2,6.1,4,6.1c4.5,0,4.6-2,4.5-19.2c-0.1-24.9,1.4-30.7,16.3-30.7c13.8,0,16,4.8,16,26.1v19.4c0,14.6-2.7,20.5-13.8,20.5
	H536.3z"/>
<path fill="#929293" d="M502.2,176v78.7h50.6V176H502.2z M542,204l1.2,1.7l2-0.7l-1.2,1.7l1.2,1.7l-2-0.7l-1.2,1.7l0-2.1l-2-0.6
	l2-0.6L542,204z M507.5,215.4l2-0.6l0-2.1l1.2,1.7l2-0.7l-1.2,1.7l1.2,1.7l-2-0.7l-1.2,1.7l0-2.1L507.5,215.4z M515.1,225.9l-2-0.7
	l-1.2,1.7l0-2.1l-2-0.6l2-0.7l0-2.1l1.2,1.7l2-0.7l-1.3,1.7L515.1,225.9z M515.1,208.4l-2-0.7l-1.2,1.7l0-2.1l-2-0.6l2-0.6l0-2.1
	l1.2,1.7l2-0.7l-1.3,1.7L515.1,208.4z M521.5,232.3l-2-0.7l-1.2,1.7l0-2.1l-2-0.6l2-0.6l0-2.1l1.2,1.7l2-0.7l-1.3,1.7L521.5,232.3z
	 M521.5,202l-2-0.7l-1.2,1.7l0-2.1l-2-0.6l2-0.6l0-2.1l1.2,1.7l2-0.7l-1.3,1.7L521.5,202z M530.2,234.6l-2-0.7l-1.2,1.7l0-2.1
	l-2-0.6l2-0.6l0-2.1l1.2,1.7l2-0.7l-1.2,1.7L530.2,234.6z M530.2,199.7l-2-0.7l-1.2,1.7l0-2.1l-2-0.6l2-0.6l0-2.1l1.2,1.7l2-0.7
	l-1.2,1.7L530.2,199.7z M538.9,232.3l-2-0.7l-1.2,1.7l0-2.1l-2-0.6l2-0.7l0-2.1l1.2,1.7l2-0.7l-1.3,1.7L538.9,232.3z M538.9,202
	l-2-0.7l-1.2,1.7l0-2.1l-2-0.6l2-0.6l0-2.1l1.2,1.7l2-0.7l-1.3,1.7L538.9,202z M545.3,225.9l-2-0.7l-1.2,1.7l0-2.1l-2-0.6l2-0.7
	l0-2.1l1.2,1.7l2-0.7l-1.2,1.7L545.3,225.9z M547.6,217.2l-2-0.7l-1.2,1.7l0-2.1l-2-0.6l2-0.6l0-2.1l1.2,1.7l2-0.7l-1.3,1.7
	L547.6,217.2z"/>
</svg>
