<?xml version="1.0" encoding="UTF-8"?><!DOCTYPE svg PUBLIC "-//W3C//DTD SVG 1.1//EN" "http://www.w3.org/Graphics/SVG/1.1/DTD/svg11.dtd"><svg xmlns="http://www.w3.org/2000/svg"><symbol id="arrow--left" viewBox="0 0 512 512"><path d="M153 269.1l174.7 209.5c7.2 8.7 20.2 9.9 28.8 2.6 8.7-7.3 9.9-20.1 2.6-28.8L195.3 256 359.1 59.6c7.2-8.7 6.1-21.6-2.6-28.8-8.7-7.3-21.6-6.1-28.8 2.6L153 242.9c-3.2 3.8-4.8 8.5-4.8 13.1 0 4.7 1.6 9.3 4.8 13.1z"/></symbol><symbol id="arrow--right" viewBox="0 0 512 512"><path d="M359 242.9L184.4 33.4c-7.2-8.7-20.2-9.9-28.8-2.6-8.7 7.3-9.9 20.1-2.6 28.8L316.7 256 152.9 452.4c-7.2 8.7-6.1 21.6 2.6 28.8 8.7 7.3 21.6 6.1 28.8-2.6L359 269.1c3.2-3.8 4.8-8.5 4.8-13.1 0-4.7-1.6-9.3-4.8-13.1z"/></symbol><symbol id="expand" viewBox="0 0 512 512"><path d="M291.7 103.9c-64.2 0-116.4 52.2-116.4 116.4 0 25.4 8.2 48.9 22 68l-71 71c-7.3 7.3-7.3 19.1 0 26.4 3.6 3.6 8.4 5.5 13.2 5.5 4.8 0 9.5-1.8 13.2-5.5l71-71c19.1 13.8 42.6 22 68 22 64.2 0 116.4-52.2 116.4-116.4s-52.2-116.4-116.4-116.4zm0 198.9c-45.5 0-82.5-37-82.5-82.5s37-82.5 82.5-82.5 82.5 37 82.5 82.5-37 82.5-82.5 82.5zM26 129.6V26h103.6zM382.4 26H486v103.6zM486 382.4V486H382.4zM129.6 486H26V382.4z"/></symbol><symbol id="home" viewBox="0 0 512 512"><path d="M57.1 184.6v300.7h167.5V349h66v137h164.3V184.6L256.3 26 57.1 184.6zm361.6 264H328V312.2H188.4v137H93.9V202.4L256.3 73l162.4 129.4v246.2z"/></symbol><symbol id="magnify" viewBox="0 0 512 512"><path d="M314.7 26c-94.5 0-171.3 76.9-171.3 171.3 0 40 13.8 76.8 36.8 106L31.9 451.6c-7.9 7.9-7.9 20.6 0 28.5 3.9 3.9 9.1 5.9 14.3 5.9 5.2 0 10.3-2 14.3-5.9l148.3-148.3c29.2 23 66 36.8 106 36.8 94.5 0 171.3-76.9 171.3-171.3S409.1 26 314.7 26zm-.7 302c-72.2 0-131-58.8-131-131S241.8 66 314 66s131 58.8 131 131-58.8 131-131 131z"/></symbol><symbol id="music" viewBox="0 0 512 512"><path d="M195.5 76.9v272.4c-13.9-13.5-33.3-21.8-54.4-21.8-43.7 0-79.1 35.5-79.1 79.2 0 43.8 35.5 79.3 79.3 79.3s79.3-35.4 79.3-79.1l-.3.1-.1-8.3v-220l205.1-45.4v160.5c-13.9-13.5-33.2-21.8-54.4-21.8-43.8 0-79.2 35.5-79.2 79.2s35.5 79.2 79.3 79.2c43.7 0 78.9-35.4 79-79.1V26L195.5 76.9zm0 0"/></symbol><symbol id="mute" viewBox="0 0 512 512"><path d="M371 256c0-45.1-26.1-84.1-63.9-102.9v56.5l62.7 62.7c.8-5.3 1.2-10.8 1.2-16.3zm63.9 0c0 24-5.2 46.6-13.8 67.5l38.7 38.7C476.4 330.4 486 294.3 486 256c0-109.4-76.5-200.9-178.9-224.1v52.8C381 106.6 434.9 175 434.9 256zM58.6 26L26 58.6l120.8 120.7H26v153.3h102.2L256 460.4V288.6l108.7 108.7c-17.1 13.2-36.4 23.8-57.6 30.2v52.8c35.1-8.1 67.2-24.1 94.2-46.3l52.1 52 32.6-32.6-230-230L58.6 26zM256 51.6L202.6 105l53.4 53.4V51.6z"/></symbol><symbol id="sound" viewBox="0 0 512 512"><path d="M26 179.3v153.3h102.2L256 460.4V51.6L128.2 179.3H26zM371 256c0-45.1-26.1-84.1-63.9-102.9V359c37.8-18.9 63.9-57.9 63.9-103zM307.1 31.9v52.8C381 106.6 434.9 175 434.9 256S381 405.4 307.1 427.4v52.8C409.5 456.9 486 365.5 486 256S409.5 55.1 307.1 31.9z"/></symbol></svg>