<?xml version="1.0" encoding="utf-8"?>
<!-- Generator: Adobe Illustrator 19.1.0, SVG Export Plug-In . SVG Version: 6.00 Build 0)  -->
<svg version="1.1" id="Layer_1" xmlns="http://www.w3.org/2000/svg" xmlns:xlink="http://www.w3.org/1999/xlink" x="0px" y="0px"
	 width="131.6px" height="106.2px" viewBox="0 0 131.6 106.2" enable-background="new 0 0 131.6 106.2" xml:space="preserve">
<path fill="#939393" d="M131.1,37c-3.8,6.8-11.3,9.2-32.6,2.3V0H86.4v34.8c-2.1-0.8-4.3-1.7-6.7-2.7C46.2,18.1,30.6,48,30.6,48
	s11.9-8.7,44.4,6.8c4,1.9,7.8,3.4,11.4,4.6c-0.2,20-13,32.7-30.8,32.7c-18.1,0-31.2-12.9-31.2-33.2V0H9.5v0H0v60.1
	c0,22.3,13.8,38.7,32.8,43.9c0.3,0.1,0.7,0.2,1.1,0.3c0.4,0.1,0.8,0.2,1.2,0.2c0.8,0.2,1.6,0.4,2.5,0.5c7.2,1.3,15.1,1.4,22.1,0.5
	c1.2-0.1,2.4-0.3,3.5-0.4c1.1-0.2,2.1-0.5,3.1-0.8c0,0,0,0,0,0c0,0,0,0,0,0c0.2-0.1,0.5-0.1,0.7-0.2c0.1,0,0.1,0,0.2-0.1
	c17.6-5.5,30.4-21,31.1-41.8C123.2,65.5,134.3,49.4,131.1,37z"/>
</svg>
