<?xml version="1.0" encoding="utf-8"?>
<!-- Generator: Adobe Illustrator 21.0.0, SVG Export Plug-In . SVG Version: 6.00 Build 0)  -->
<svg version="1.1" id="Laag_1" xmlns="http://www.w3.org/2000/svg" xmlns:xlink="http://www.w3.org/1999/xlink" x="0px" y="0px"
	 viewBox="0 0 605.3 280.6" style="enable-background:new 0 0 605.3 280.6;" xml:space="preserve">
<style type="text/css">
	.st0{fill:#434343;}
	.st1{enable-background:new    ;}
	.st2{fill:none;stroke:#434343;stroke-miterlimit:10;}
</style>
<title>sheherazade_copy</title>
<g id="Layer_1">
	<path class="st0" d="M43.9,56.4c0.4,0,0.7,0.1,0.7,0.8c0.4,3.8,1.7,7.5,3.8,10.7c2.6,4,7.1,6.4,11.9,6.4c4.5,0,11.8-3,11.8-10.5
		c0-7.8-1.5-10.1-13.8-14.7c-5-2-9.6-4.8-13.7-8.2c-3.3-2.9-4.7-7.9-4.7-13.4c0-5.8,1.4-9.6,7.1-13.9c4.2-3.2,7.8-4.5,13.6-4.5
		c6.9,0,10.6,1.1,12.5,1.9c0.8,0.4,1.7,0.2,2.2-0.5l1.1-1.3c0.4-0.4,0.9-0.6,1.4-0.6c0.7,0,0.8,1,0.9,1.6l1.5,16.1
		c0,0.4-0.2,0.5-0.5,0.6l-2,0.7c-0.5,0.2-0.9,0-1.2-0.7c-1.2-3.6-3.2-7-5.8-9.8c-2.4-2.7-5.8-4.2-9.4-4c-7.1,0-10,6.1-10,8.6
		c0,3.5,0.1,6.3,2.5,8.7s7.8,4.8,12.4,6.1s8.2,3.7,12.1,7.2c3.7,3.3,5.2,7.4,5.2,14c-0.1,11.6-8.3,20.9-20.8,20.9
		c-8.5,0-12.9-1.4-16.9-4.1c-0.6-0.6-1.4-0.9-2.2-1c-0.6,0-0.9,0.7-1.5,1.6s-1,1.1-1.7,1.1c-1,0-1.4-0.5-1.3-1.5l1.5-17.9
		c0.1-0.7,0.4-0.7,0.8-0.7L43.9,56.4z"/>
	<path class="st0" d="M155.5,51.9c2.2,0,4.5-0.1,6.7-0.4c1.2-0.3,2.2-1,3-2c0.8-1.2,1.4-2.6,1.5-4.1c0-0.5,0.2-0.6,0.5-0.6L169,45
		c0.3,0.1,0.6,0.1,0.5,0.5c-0.2,2.3-0.3,4.6-0.2,6.9c0,3,0.3,6.1,0.4,7.5c0.1,0.4-0.2,0.5-0.5,0.5l-1.6,0.3
		c-0.3,0.1-0.4-0.1-0.5-0.5c-0.3-1.2-0.8-2.3-1.3-3.4c-0.8-1.3-2.1-2.1-3.6-2.3c-2.2-0.3-4.5-0.5-6.7-0.4v4c0,3.6,0.3,10,0.3,11.2
		c0,3.4,0.7,4.6,1.6,5s2.2,0.6,5.5,0.6c1.1,0,3.9-0.1,5.3-0.2c1.8-0.2,3.6-1,5-2.2c2.4-2.2,4.6-4.6,6.7-7.1c0.3-0.3,0.5-0.3,0.7-0.2
		l1.1,0.7c0.3,0.1,0.3,0.3,0.3,0.5l-3,10c-0.2,0.6-0.8,1.1-1.5,1c-0.3,0-1.8-0.1-6-0.1s-11.3-0.1-22.7-0.1c-2.4,0-4.3,0.1-5.6,0.1
		s-2.2,0.1-2.8,0.1s-0.6-0.2-0.6-0.7v-1.4c0-0.4,0.2-0.6,0.7-0.6h2c3,0,3.3-0.5,3.3-2.8V49.8c0-5.5-0.1-13.6-0.2-14.3
		c-0.3-2.1-0.9-2.6-2.7-2.6h-2.6c-0.3,0-0.3-0.2-0.3-0.7v-1.6c0-0.3,0.2-0.5,0.4-0.5c0,0,0,0,0.1,0c1.5,0,3.8,0.2,9.8,0.2l23.2-0.1
		c1.1,0,2.3-0.1,2.6-0.1s0.5,0.1,0.5,0.3c0.3,0.9,2.4,10,2.7,10.6c0.1,0.3,0.1,0.5-0.2,0.7l-1.1,0.5c-0.3,0.1-0.6,0-0.8-0.3
		c0,0,0,0,0,0c-0.3-0.5-6.3-6.5-7.8-7.4c-1.5-1-3.2-1.6-5-1.8l-8.7-0.3L155.5,51.9z"/>
	<path class="st0" d="M187.5,51.2c0-4.1-0.1-13-0.1-13.9c0-3.4-0.5-4.3-2.2-4.3h-2.8c-0.7,0-0.8-0.3-0.8-0.7V31
		c0-0.4,0.1-0.8,0.7-0.8c1.1,0,3.2,0.2,9.8,0.2s8.8-0.2,10-0.2c0.7,0,0.8,0.2,0.8,0.7v1.4c0,0.4-0.1,0.6-0.8,0.6h-1.6
		c-2.4,0-2.7,1.1-2.9,3.6c-0.1,0.9-0.4,9.6-0.4,13.3v1c0,0.3,0.2,0.5,1.1,0.5H218c1,0,1.3-0.1,1.3-0.9v-0.7c0-3.8-0.5-12.9-0.5-13.6
		c-0.1-2.1-0.3-3.4-1.5-3.4h-2.7c-0.6,0-0.7-0.2-0.7-0.7v-1.5c0-0.4,0.1-0.6,0.6-0.6c1.2,0,4,0.2,9.6,0.2s8.2-0.2,9.1-0.2
		s0.9,0.2,0.9,0.7v1.3c0,0.5-0.1,0.7-0.9,0.7h-2c-1.9,0-2.1,1.1-2.1,3.4c0,0.9-0.1,12.1-0.1,14.5v2.2c0,2.1,0.1,14.7,0.2,18.3
		c0,2.4,0.7,3.3,2.6,3.3h2.2c0.5,0,0.6,0.2,0.6,0.6v1.5c0,0.3-0.2,0.7-0.5,0.7c-0.1,0-0.1,0-0.2,0c-1.1,0-3.3-0.2-9.2-0.2
		c-6.7,0-8.8,0.2-10.4,0.2c-0.7,0-0.9-0.3-0.9-0.7v-1.5c0-0.4,0.1-0.6,0.7-0.6h2.9c1.6,0,1.8-1.3,1.8-2.9c0.1-3.1,0.3-13.7,0.3-15.8
		v-0.8c0-0.7-0.7-0.8-1.5-0.8h-19.7c-0.7,0-0.9,0.2-0.9,0.8v1c0,1.7,0.3,11.8,0.5,16.3c0.1,1.6,0.7,2.2,2.2,2.2h1.8
		c0.5,0,0.6,0.1,0.6,0.5v1.6c0,0.4-0.1,0.6-0.6,0.6c-1.2,0-3.5-0.2-9-0.2c-7,0-9,0.2-10.3,0.2c-0.6,0-0.7-0.2-0.7-0.7v-1.4
		c0-0.5,0.1-0.6,0.7-0.6h3c1.6,0,1.8-1.6,1.8-3c0.1-3.1,0.2-15.9,0.2-17.6v-2.5L187.5,51.2z"/>
	<path class="st0" d="M253.1,51.9c2.2,0,4.5-0.1,6.7-0.4c1.2-0.3,2.2-1,3-2c0.8-1.2,1.4-2.6,1.5-4.1c0-0.5,0.2-0.6,0.5-0.6l1.8,0.2
		c0.3,0.1,0.6,0.1,0.5,0.5c-0.2,2.3-0.3,4.6-0.2,6.9c0,3,0.3,6.1,0.4,7.5c0.1,0.4-0.2,0.5-0.5,0.5l-1.6,0.3
		c-0.3,0.1-0.4-0.1-0.5-0.5c-0.3-1.2-0.8-2.3-1.3-3.4c-0.8-1.3-2.1-2.1-3.6-2.3c-2.2-0.3-4.5-0.5-6.7-0.4v4c0,3.6,0.3,10,0.3,11.2
		c0,3.4,0.7,4.6,1.6,5s2.2,0.6,5.5,0.6c1.1,0,3.9-0.1,5.3-0.2c1.8-0.2,3.6-1,5-2.2c2.4-2.2,4.6-4.6,6.7-7.1c0.3-0.3,0.5-0.3,0.7-0.2
		l1.1,0.7c0.3,0.1,0.3,0.3,0.3,0.5l-3,10c-0.2,0.6-0.8,1.1-1.5,1c-0.3,0-1.8-0.1-6-0.1s-11.3-0.1-22.7-0.1c-2.4,0-4.3,0.1-5.6,0.1
		s-2.2,0.1-2.8,0.1s-0.6-0.2-0.6-0.7v-1.4c0-0.4,0.2-0.6,0.7-0.6h2c3,0,3.3-0.5,3.3-2.8V49.8c0-5.5-0.1-13.6-0.2-14.3
		c-0.3-2.1-0.9-2.6-2.7-2.6h-2.6c-0.3,0-0.3-0.2-0.3-0.7v-1.6c0-0.3,0.2-0.5,0.4-0.5c0,0,0,0,0.1,0c1.5,0,3.8,0.2,9.8,0.2l23.2-0.1
		c1.1,0,2.3-0.1,2.6-0.1s0.5,0.1,0.5,0.3c0.3,0.9,2.4,10,2.7,10.6c0.1,0.3,0.1,0.5-0.2,0.7l-1.1,0.5c-0.3,0.1-0.6,0-0.8-0.3
		c0,0,0,0,0,0c-0.3-0.5-6.3-6.5-7.8-7.4c-1.5-1-3.2-1.6-5-1.8l-8.7-0.3L253.1,51.9z"/>
	<path class="st0" d="M285.4,47.2c0-4.9,0-9.1-0.1-10.9c-0.1-2.2-0.9-3.3-1.8-3.3h-2.6c-0.3,0-0.4-0.2-0.4-0.5v-1.8
		c0-0.3,0.1-0.5,0.4-0.5c0.6,0,2.6,0.2,9.8,0.2c3.7,0,9.5-0.2,12.2-0.2c4.3-0.1,8.5,1.4,11.7,4.4c2.4,2.2,3.8,4.8,3.8,7.2
		c0,8.4-6.3,12.1-12.1,12.7V55c1.8,0.7,3.3,1.9,4.4,3.5c0.9,1.1,4.5,6.9,5,7.7c0.4,0.6,4,5.6,5.3,7.1c0.8,0.9,3.3,1.4,4.8,1.4
		c0.5,0,0.5,0.3,0.5,0.5v1.6c0,0.4-0.1,0.6-0.5,0.6s-2.2-0.2-7.3-0.2c-1.9,0-4.4,0.1-6.3,0.2c-2-1.5-6.1-9.2-7.2-11.4
		c-2.2-4.5-5-9.4-8.1-9.4h-2.2V60c0,3.9,0.2,11.3,0.3,12.1c0.1,1.4,0.7,2.6,1.6,2.6h2.7c0.5,0,0.5,0.2,0.5,0.5v1.6
		c0,0.5-0.1,0.6-1.1,0.6c-0.1,0-1.7-0.2-8.6-0.2s-8.5,0.2-9.2,0.2c-0.5,0-0.5-0.2-0.5-0.7v-1.5c0-0.3,0-0.5,0.3-0.5h2
		c1.5,0,2.6-0.5,2.6-2.1c0.1-6.5,0.1-12.7,0.1-19L285.4,47.2L285.4,47.2z M294.6,54.3c1.3,0.1,2,0.1,2.6,0.1
		c8.7,0,10.8-8.3,10.8-11.4c0.1-2.7-0.8-5.3-2.5-7.4c-2-1.8-4.6-2.8-7.3-2.9c-0.9-0.1-1.8,0.1-2.5,0.6c-0.4,0.5-0.7,1.1-0.7,1.8
		L294.6,54.3z"/>
	<path class="st0" d="M343.4,59.1c-0.5,1.4-3.8,10.4-3.8,12.5c0,1.5,0.6,3,2.6,3h2.3c0.7,0,0.7,0.3,0.7,0.5v1.5
		c0,0.5-0.1,0.7-0.6,0.7c-0.9,0-3.6-0.2-9-0.2c-4.8,0-6.3,0.2-7.2,0.2c-0.4,0-0.5-0.4-0.5-0.9v-1.3c0-0.4,0.1-0.6,0.5-0.6h1.7
		c1.6,0,3.2-0.9,4.5-2.9c0.9-1.4,5.6-12.9,7.8-18.7c0.5-1.3,5.9-15.5,6.5-17.3c0.3-0.7,0.4-1.5,0.1-2.2c-0.2-0.3-0.5-0.6-0.5-0.9
		s0.1-0.5,0.7-0.6c2.1-0.5,6.4-2.2,7.4-3.3c0.3-0.3,0.5-0.6,0.9-0.6s0.5,0.4,0.7,1.1c1.3,4.2,6.4,18.9,7.7,23.2
		c1.5,5.1,5.8,17.4,6.7,19.2c1.1,2.2,2.8,3,3.8,3h2.2c0.4,0,0.5,0.3,0.5,0.6v1.5c0,0.4-0.1,0.9-0.6,0.9c-1.3,0-2.6-0.2-11.1-0.2
		c-5.5,0-7.8,0.2-9.1,0.2c-0.7,0-0.7-0.4-0.7-0.9v-1.3c0-0.3,0.1-0.6,0.4-0.6h1.8c1.8,0,2.4-0.7,2-2.4c-0.6-2.4-3.2-10.8-4-13.2
		L343.4,59.1z M357.2,56.5L352.3,39c-0.3-1-0.4-1.5-0.7-1.5s-0.6,0.3-0.8,0.9c-0.3,0.9-6,16.4-6.5,18.1L357.2,56.5z"/>
	<path class="st0" d="M397.6,32.9c-1.3,0-2.7,0.5-3.7,1.3c-1.4,0.9-7.1,7.3-8.4,9.1c-0.1,0.3-0.5,0.5-0.8,0.4l-1.1-0.6
		c-0.2-0.1-0.3-0.4-0.2-0.6l4.2-11.7c0.1-0.4,0.5-0.7,0.9-0.7c0.5,0,1,0.1,1.5,0.1c3.1,0.4,12.4,0.4,17.9,0.4c4,0,7.5-0.1,10-0.2
		c2.2-0.1,4.4-0.2,4.8-0.2c1.1,0,1.5,0.9,0.9,1.6c-0.6,0.7-29.4,41.1-30.8,42.9h15.9c1.7,0.1,3.3-0.1,4.9-0.7
		c1.9-0.9,8.4-7.7,9.3-8.8c0.2-0.3,0.6-0.3,0.9-0.2l1.1,0.6c0.2,0.1,0.3,0.3,0.1,0.6c-0.9,1.5-4.1,9.6-5,11.4
		c-0.1,0.4-0.5,0.7-0.9,0.7c-0.3,0-0.8-0.1-1.6-0.2c-3.6-0.5-14.1-0.7-20.1-0.7H382c-0.5,0-1.3,0-1.3-0.5c0-0.5,0.1-0.9,0.3-1.3
		c2.7-4.2,29.8-41.7,30.3-42.5h-13.7L397.6,32.9z"/>
	<path class="st0" d="M481.6,46.9c0-1.7-0.2-11.1-0.3-12.1c-0.2-1.6-1.1-1.8-2.2-1.8h-3.3c-0.3,0-0.5-0.1-0.5-0.5v-1.9
		c0-0.3,0.2-0.3,0.5-0.3c0.9,0,3.8,0.2,10.4,0.2c1.7,0,8.3-0.2,9.8-0.2c9,0,16.1,0.8,22.4,6c4.4,3.6,7.4,9.1,7.4,16.8
		s-2.2,12.6-6.5,17.4c-6.4,6.9-17.7,7-21.8,7c-1.1,0-8.8-0.2-12.5-0.2c-5.7,0-8.4,0.2-9.3,0.2c-0.3,0-0.5-0.1-0.5-0.6v-1.7
		c0-0.3,0.2-0.4,0.5-0.4h3.4c1.3,0,2-0.5,2.1-1.6c0.2-1.4,0.5-16.2,0.5-21.3v-5L481.6,46.9z M491.5,53.3c0,0.9,0.1,12.1,0.1,16.2
		c0,1.3,0.4,2.5,1.1,3.6c0.8,1.2,3,1.6,5.3,1.6c4.9-0.2,9.4-2.6,12.3-6.5c3.1-4.4,4.7-9.6,4.7-15c0-5.3-1.9-10.4-5.3-14.4
		c-3.4-3.6-8.1-5.8-13.1-6c-1.3-0.1-2.5,0.1-3.7,0.5c-1,0.5-1.3,1.5-1.3,2.8c-0.1,2.8-0.1,11.4-0.1,12.5L491.5,53.3z"/>
	<path class="st0" d="M539.8,51.9c2.2,0,4.5-0.1,6.7-0.4c1.2-0.3,2.2-1,3-2c0.8-1.2,1.4-2.6,1.5-4.1c0-0.5,0.2-0.6,0.5-0.6l1.8,0.2
		c0.3,0.1,0.6,0.1,0.5,0.5c-0.2,2.3-0.3,4.6-0.2,6.9c0,3,0.3,6.1,0.4,7.5c0.1,0.4-0.2,0.5-0.5,0.5l-1.6,0.3
		c-0.3,0.1-0.4-0.1-0.5-0.5c-0.3-1.2-0.8-2.3-1.3-3.4c-0.8-1.3-2.1-2.1-3.6-2.3c-2.2-0.3-4.5-0.5-6.7-0.4v4c0,3.6,0.3,10,0.3,11.2
		c0,3.4,0.7,4.6,1.6,5s2.2,0.6,5.5,0.6c1.1,0,3.9-0.1,5.3-0.2c1.8-0.2,3.6-1,5-2.2c2.4-2.2,4.6-4.6,6.7-7.1c0.3-0.3,0.5-0.3,0.7-0.2
		l1.1,0.7c0.3,0.1,0.3,0.3,0.3,0.5l-3,10c-0.2,0.6-0.8,1.1-1.5,1c-0.3,0-1.8-0.1-6-0.1s-11.3-0.1-22.7-0.1c-2.4,0-4.3,0.1-5.6,0.1
		s-2.2,0.1-2.8,0.1s-0.6-0.2-0.6-0.7v-1.4c0-0.4,0.2-0.6,0.7-0.6h2c3,0,3.3-0.5,3.3-2.8V49.8c0-5.5-0.1-13.6-0.2-14.3
		c-0.3-2.1-0.9-2.6-2.7-2.6h-2.6c-0.3,0-0.3-0.2-0.3-0.7v-1.6c0-0.3,0.2-0.5,0.4-0.5c0,0,0,0,0.1,0c1.5,0,3.8,0.2,9.8,0.2l23.2-0.1
		c1.1,0,2.3-0.1,2.6-0.1s0.5,0.1,0.5,0.3c0.3,0.9,2.4,10,2.7,10.6c0.1,0.3,0.1,0.5-0.2,0.7l-1.1,0.5c-0.3,0.1-0.6,0-0.8-0.3
		c0,0,0,0,0,0c-0.3-0.5-6.3-6.5-7.8-7.4c-1.5-1-3.2-1.6-5-1.8l-8.7-0.3L539.8,51.9z"/>
	<path class="st0" d="M439,59.1c-0.5,1.4-3.8,10.4-3.8,12.5c0,1.5,0.6,3,2.6,3h2.3c0.7,0,0.7,0.3,0.7,0.5v1.5c0,0.5-0.1,0.7-0.6,0.7
		c-0.9,0-3.6-0.2-9-0.2c-4.8,0-6.3,0.2-7.2,0.2c-0.4,0-0.5-0.4-0.5-0.9v-1.3c0-0.4,0.1-0.6,0.5-0.6h1.7c1.6,0,3.2-0.9,4.5-2.9
		c0.9-1.4,5.6-12.9,7.8-18.7c0.5-1.3,5.9-15.5,6.5-17.3c0.3-0.7,0.4-1.5,0.1-2.2c-0.2-0.3-0.5-0.6-0.5-0.9s0.1-0.5,0.7-0.6
		c2.1-0.5,6.4-2.2,7.4-3.3c0.3-0.3,0.5-0.6,0.9-0.6s0.5,0.4,0.7,1.1c1.3,4.2,6.4,18.9,7.7,23.2c1.5,5.1,7.2,21.2,8.1,23
		c1.1,2.1,3.2,3.5,6.4,4.4c-21.2-4.1-37,33.9-71.2,14.6c20.9,9,35.1-11.6,52-16c2.6-0.7,1.8-2.8,1.4-4.5c-0.6-2.4-4-12.5-4.7-14.9
		H439V59.1z M452.8,56.5L447.9,39c-0.3-1-0.4-1.5-0.7-1.5s-0.6,0.3-0.8,0.9c-0.3,0.9-6,16.4-6.5,18.1L452.8,56.5z"/>
	<path class="st0" d="M89.9,51.2c0-4.1-0.1-13-0.1-13.9c0-3.4-0.5-4.3-2.2-4.3h-2.7c-0.7,0-0.8-0.3-0.8-0.7V31
		c0-0.4,0.1-0.8,0.7-0.8c1.1,0,3.2,0.2,9.8,0.2s8.8-0.2,10-0.2c0.7,0,0.8,0.2,0.8,0.7v1.4c0,0.4-0.1,0.6-0.8,0.6H103
		c-2.4,0-2.7,1.1-2.9,3.6c-0.1,0.9-0.4,9.6-0.4,13.3v1c0,0.3,0.2,0.5,1.1,0.5h19.6c1,0,1.3-0.1,1.3-0.9v-0.7
		c0-3.8-0.5-12.9-0.5-13.6c-0.1-2.1-0.3-3.4-1.5-3.4H117c-0.6,0-0.7-0.2-0.7-0.7v-1.5c0-0.4,0.1-0.6,0.6-0.6c1.2,0,4,0.2,9.6,0.2
		c5.6,0,8.2-0.2,9.1-0.2s0.9,0.2,0.9,0.7v1.3c0,0.5-0.1,0.7-0.9,0.7h-2c-1.9,0-2.1,1.1-2.1,3.4c0,0.9-0.1,12.1-0.1,14.5v2.2
		c0,0.9,0.1,12.9-0.3,19.3c-0.6,11.1-14.5,15.8-28.4,17.7c47.5-1,77.7,29,123.2,18.1c-64.6,19.8-96.1-19.3-140.6-16.4
		C114,88.5,121,79.6,121.5,70c0.2-3.1,0.3-11.9,0.3-14v-0.8c0-0.7-0.7-0.8-1.5-0.8h-19.8c-0.7,0-0.9,0.2-0.9,0.8v1
		c0,1.7,0.3,11.8,0.5,16.3c0.1,1.6,0.7,2.2,2.2,2.2h1.8c0.5,0,0.6,0.1,0.6,0.5v1.6c0,0.4-0.1,0.6-0.6,0.6c-1.2,0-3.5-0.2-9-0.2
		c-7,0-9,0.2-10.3,0.2c-0.6,0-0.7-0.2-0.7-0.7v-1.4c0-0.5,0.1-0.6,0.7-0.6h3c1.6,0,1.8-1.6,1.8-3c0.1-3.1,0.2-15.9,0.2-17.6
		L89.9,51.2L89.9,51.2z"/>
	<polygon class="st0" points="298.5,247.8 292,238.2 285.4,247.5 292.1,257.1 	"/>
	<polygon class="st0" points="299.7,249 293.1,258.4 299.8,268 306.2,258.7 	"/>
	<polygon class="st0" points="284.3,248.7 277.7,258 284.4,267.6 290.8,258.3 	"/>
	<polygon class="st0" points="285.4,268.9 292.1,278.5 298.5,269.2 292,259.6 	"/>
</g>
<g class="st1">
	<path class="st0" d="M135.3,134.6H135l-9.5,25.2c-0.2,0.5-0.5,1.2-1.2,1.2c-0.6,0-0.9-0.4-1.1-1l-11.3-31.7
		c-0.5-1.4-1.4-1.8-2.1-1.8h-1.2c-0.2,0-0.3-0.2-0.3-0.4v-1.3c0-0.2,0.1-0.3,0.4-0.3c0.4,0,1.9,0.1,7.1,0.1c3.6,0,5.7-0.1,6.2-0.1
		c0.4,0,0.4,0.1,0.4,0.4v1.2c0,0.2,0,0.4-0.4,0.4h-1.1c-0.8,0-1.3,0.7-1,1.7l6.9,21.8h0.3c0.6-1.7,6.6-17.6,6.6-19.4
		c0-1.3-0.5-2.6-1-3.2c-0.4-0.6-1.1-1-1.5-1h-1c-0.2,0-0.3-0.1-0.3-0.4v-1.3c0-0.2,0.1-0.3,0.4-0.3c0.5,0,2.2,0.1,6.6,0.1
		c4.2,0,6.1-0.1,6.6-0.1c0.3,0,0.3,0.1,0.3,0.4v1.2c0,0.2,0,0.4-0.3,0.4h-1.5c-0.8,0-1.2,1.1-1,2l6.9,21.6h0.3
		c2.5-6.8,6.8-19.5,6.8-22.2c0-0.5-0.6-1.3-1.6-1.3h-1.5c-0.3,0-0.4-0.2-0.4-0.5v-1.2c0-0.2,0.1-0.3,0.4-0.3c0.5,0,2.2,0.1,5.4,0.1
		c2.8,0,4.3-0.1,4.7-0.1c0.3,0,0.4,0.1,0.4,0.4v1.2c0,0.2,0,0.4-0.4,0.4h-1c-0.9,0-1.9,0.5-2.4,1.8C158,130,148,157.1,147,159.5
		c-0.2,0.6-0.6,1.5-1.5,1.5c-0.7,0-1-0.7-1.2-1.3L135.3,134.6z"/>
</g>
<g class="st1">
	<path class="st2" d="M135.3,134.6H135l-9.5,25.2c-0.2,0.5-0.5,1.2-1.2,1.2c-0.6,0-0.9-0.4-1.1-1l-11.3-31.7
		c-0.5-1.4-1.4-1.8-2.1-1.8h-1.2c-0.2,0-0.3-0.2-0.3-0.4v-1.3c0-0.2,0.1-0.3,0.4-0.3c0.4,0,1.9,0.1,7.1,0.1c3.6,0,5.7-0.1,6.2-0.1
		c0.4,0,0.4,0.1,0.4,0.4v1.2c0,0.2,0,0.4-0.4,0.4h-1.1c-0.8,0-1.3,0.7-1,1.7l6.9,21.8h0.3c0.6-1.7,6.6-17.6,6.6-19.4
		c0-1.3-0.5-2.6-1-3.2c-0.4-0.6-1.1-1-1.5-1h-1c-0.2,0-0.3-0.1-0.3-0.4v-1.3c0-0.2,0.1-0.3,0.4-0.3c0.5,0,2.2,0.1,6.6,0.1
		c4.2,0,6.1-0.1,6.6-0.1c0.3,0,0.3,0.1,0.3,0.4v1.2c0,0.2,0,0.4-0.3,0.4h-1.5c-0.8,0-1.2,1.1-1,2l6.9,21.6h0.3
		c2.5-6.8,6.8-19.5,6.8-22.2c0-0.5-0.6-1.3-1.6-1.3h-1.5c-0.3,0-0.4-0.2-0.4-0.5v-1.2c0-0.2,0.1-0.3,0.4-0.3c0.5,0,2.2,0.1,5.4,0.1
		c2.8,0,4.3-0.1,4.7-0.1c0.3,0,0.4,0.1,0.4,0.4v1.2c0,0.2,0,0.4-0.4,0.4h-1c-0.9,0-1.9,0.5-2.4,1.8C158,130,148,157.1,147,159.5
		c-0.2,0.6-0.6,1.5-1.5,1.5c-0.7,0-1-0.7-1.2-1.3L135.3,134.6z"/>
</g>
<g class="st1">
	<path class="st0" d="M165.4,146.4c-0.4,1.1-2.9,7.9-2.9,9.5c0,1.1,0.5,2.3,2,2.3h1.8c0.5,0,0.6,0.2,0.6,0.4v1.1
		c0,0.4-0.1,0.6-0.5,0.6c-0.6,0-2.7-0.2-6.8-0.2c-3.7,0-4.8,0.2-5.5,0.2c-0.3,0-0.3-0.3-0.3-0.7v-1c0-0.3,0-0.5,0.3-0.5h1.3
		c1.2,0,2.4-0.7,3.4-2.2c0.7-1,4.2-9.8,5.9-14.2c0.4-1,4.5-11.8,4.9-13.1c0.2-0.5,0.4-1.2,0.1-1.7c-0.1-0.2-0.4-0.5-0.4-0.7
		c0-0.2,0.1-0.3,0.5-0.5c1.6-0.3,4.9-1.6,5.6-2.5c0.2-0.2,0.4-0.5,0.7-0.5c0.3,0,0.4,0.3,0.5,0.9c1,3.2,4.9,14.4,5.8,17.6
		c1.2,3.9,4.4,13.2,5.1,14.6c0.9,1.7,2.1,2.2,2.9,2.2h1.7c0.3,0,0.4,0.2,0.4,0.5v1c0,0.3,0,0.7-0.5,0.7c-0.9,0-2-0.2-8.4-0.2
		c-4.2,0-5.9,0.2-6.9,0.2c-0.5,0-0.5-0.3-0.5-0.7v-1c0-0.2,0-0.5,0.3-0.5h1.4c1.4,0,1.8-0.5,1.5-1.8c-0.5-1.8-2.4-8.2-3-10H165.4z
		 M175.9,144.4l-3.8-13.3c-0.2-0.8-0.3-1.1-0.5-1.1c-0.3,0-0.5,0.2-0.6,0.7c-0.2,0.6-4.6,12.5-5,13.7H175.9z"/>
</g>
<g class="st1">
	<path class="st2" d="M165.4,146.4c-0.4,1.1-2.9,7.9-2.9,9.5c0,1.1,0.5,2.3,2,2.3h1.8c0.5,0,0.6,0.2,0.6,0.4v1.1
		c0,0.4-0.1,0.6-0.5,0.6c-0.6,0-2.7-0.2-6.8-0.2c-3.7,0-4.8,0.2-5.5,0.2c-0.3,0-0.3-0.3-0.3-0.7v-1c0-0.3,0-0.5,0.3-0.5h1.3
		c1.2,0,2.4-0.7,3.4-2.2c0.7-1,4.2-9.8,5.9-14.2c0.4-1,4.5-11.8,4.9-13.1c0.2-0.5,0.4-1.2,0.1-1.7c-0.1-0.2-0.4-0.5-0.4-0.7
		c0-0.2,0.1-0.3,0.5-0.5c1.6-0.3,4.9-1.6,5.6-2.5c0.2-0.2,0.4-0.5,0.7-0.5c0.3,0,0.4,0.3,0.5,0.9c1,3.2,4.9,14.4,5.8,17.6
		c1.2,3.9,4.4,13.2,5.1,14.6c0.9,1.7,2.1,2.2,2.9,2.2h1.7c0.3,0,0.4,0.2,0.4,0.5v1c0,0.3,0,0.7-0.5,0.7c-0.9,0-2-0.2-8.4-0.2
		c-4.2,0-5.9,0.2-6.9,0.2c-0.5,0-0.5-0.3-0.5-0.7v-1c0-0.2,0-0.5,0.3-0.5h1.4c1.4,0,1.8-0.5,1.5-1.8c-0.5-1.8-2.4-8.2-3-10H165.4z
		 M175.9,144.4l-3.8-13.3c-0.2-0.8-0.3-1.1-0.5-1.1c-0.3,0-0.5,0.2-0.6,0.7c-0.2,0.6-4.6,12.5-5,13.7H175.9z"/>
</g>
<g class="st1">
	<path class="st0" d="M203,127h-1.8c-1.6,0-4.6,0-6.7,0.8c-1.1,0.8-3.3,3.8-4.6,5.7c-0.1,0.2-0.3,0.4-0.5,0.3l-1.1-0.4
		c-0.2-0.1-0.2-0.3-0.2-0.5c0.5-2.1,2.2-8.7,2.4-9.7c0.1-0.6,0.4-0.8,0.8-0.8c0.4,0,0.5,0.2,1,0.8c0.6,0.7,1.5,1.2,3.3,1.2
		c2.6,0.2,4.8,0.3,10,0.3h2.9c5.5,0,7.6-0.2,9.7-0.3c1.1,0,3.1-0.7,3.7-1.2c0.5-0.5,0.8-0.8,1.1-0.8s0.5,0.2,0.6,0.8l1.5,10
		c0.1,0.2,0,0.4-0.2,0.4l-1.1,0.4c-0.2,0-0.3-0.1-0.5-0.5c-1.1-1.8-3.1-4.4-4.3-5.6c-1.2-0.8-5.7-0.9-6.9-0.9h-1.6v13.8
		c0,0.7,0,14.7,0,15.5c0.1,1.2,0.5,2,1.7,2h2.2c0.5,0,0.5,0.2,0.5,0.5v1.2c0,0.2,0,0.4-0.5,0.4c-0.5,0-2.1-0.2-7.7-0.2
		c-5.3,0-7.4,0.2-8.1,0.2c-0.4,0-0.4-0.2-0.4-0.6v-1c0-0.3,0-0.5,0.4-0.5h2.5c1,0,1.6-0.6,1.7-1.5c0.1-1,0.1-16.4,0.1-17.4V127z"/>
	<path class="st0" d="M242.2,139.1c0-1.2-0.1-10.2-0.2-10.9c-0.1-1.2-0.6-1.7-1.6-1.7h-2.4c-0.3,0-0.4-0.1-0.4-0.3v-1.5
		c0-0.2,0.1-0.3,0.4-0.3c0.6,0,3.2,0.1,8.1,0.1c5.1,0,6.7-0.1,7.4-0.1c0.2,0,0.3,0.1,0.3,0.4v1.2c0,0.3-0.1,0.4-0.4,0.4h-1.5
		c-1.2,0-2,0.4-2,1.3c0,0.5-0.1,11.6-0.1,12.2v3.8c0,0.5,0.1,12.1,0.1,12.5c0,1.5,0.8,1.8,1.7,1.8h2.1c0.2,0,0.4,0.1,0.4,0.4v1.4
		c0,0.2-0.1,0.3-0.5,0.3c-0.6,0-2.6-0.2-7.4-0.2c-5.3,0-7.4,0.2-8,0.2c-0.2,0-0.4-0.1-0.4-0.4v-1.3c0-0.2,0.1-0.3,0.4-0.3h1.5
		c1,0,2-0.1,2.2-1.3c0.1-0.8,0.2-11.6,0.2-14.2V139.1z"/>
	<path class="st0" d="M261.5,149c0.2,0,0.3,0,0.3,0.4c0.1,1.5,0.8,3.7,2,5.7c1.5,2.3,3.9,3.4,6.3,3.4c2.4,0,6.3-1.6,6.3-5.6
		c0-4.2-0.8-5.4-7.3-7.8c-1.5-0.5-4.7-2.1-7.3-4.3c-1.8-1.6-2.5-4.2-2.5-7.1c0-3.1,0.8-5.1,3.8-7.4c2.2-1.7,4.1-2.4,7.2-2.4
		c3.7,0,5.6,0.6,6.7,1c0.5,0.2,0.9,0.1,1.2-0.2l0.6-0.6c0.2-0.2,0.4-0.3,0.8-0.3c0.4,0,0.5,0.6,0.5,0.9l0.8,8.6
		c0,0.2-0.1,0.2-0.2,0.3l-1.1,0.3c-0.3,0.1-0.5,0-0.7-0.3c-0.5-1.5-1.4-3.4-3.1-5.2c-1.2-1.4-2.8-2.1-5-2.1c-3.8,0-5.3,3.2-5.3,4.6
		c0,1.8,0.1,3.3,1.3,4.6c1.3,1.4,4.2,2.6,6.6,3.2c2.4,0.7,4.4,2,6.4,3.8c1.9,1.8,2.8,4,2.8,7.5c0,6.1-4.4,11.1-11,11.1
		c-4.5,0-6.9-0.8-9-2.2c-0.6-0.4-0.9-0.5-1.1-0.5c-0.3,0-0.5,0.4-0.8,0.9c-0.3,0.5-0.5,0.6-0.9,0.6c-0.5,0-0.8-0.2-0.7-0.8l0.8-9.5
		c0-0.3,0.2-0.3,0.4-0.3L261.5,149z"/>
</g>
<g class="st1">
	<path class="st2" d="M203,127h-1.8c-1.6,0-4.6,0-6.7,0.8c-1.1,0.8-3.3,3.8-4.6,5.7c-0.1,0.2-0.3,0.4-0.5,0.3l-1.1-0.4
		c-0.2-0.1-0.2-0.3-0.2-0.5c0.5-2.1,2.2-8.7,2.4-9.7c0.1-0.6,0.4-0.8,0.8-0.8c0.4,0,0.5,0.2,1,0.8c0.6,0.7,1.5,1.2,3.3,1.2
		c2.6,0.2,4.8,0.3,10,0.3h2.9c5.5,0,7.6-0.2,9.7-0.3c1.1,0,3.1-0.7,3.7-1.2c0.5-0.5,0.8-0.8,1.1-0.8s0.5,0.2,0.6,0.8l1.5,10
		c0.1,0.2,0,0.4-0.2,0.4l-1.1,0.4c-0.2,0-0.3-0.1-0.5-0.5c-1.1-1.8-3.1-4.4-4.3-5.6c-1.2-0.8-5.7-0.9-6.9-0.9h-1.6v13.8
		c0,0.7,0,14.7,0,15.5c0.1,1.2,0.5,2,1.7,2h2.2c0.5,0,0.5,0.2,0.5,0.5v1.2c0,0.2,0,0.4-0.5,0.4c-0.5,0-2.1-0.2-7.7-0.2
		c-5.3,0-7.4,0.2-8.1,0.2c-0.4,0-0.4-0.2-0.4-0.6v-1c0-0.3,0-0.5,0.4-0.5h2.5c1,0,1.6-0.6,1.7-1.5c0.1-1,0.1-16.4,0.1-17.4V127z"/>
	<path class="st2" d="M242.2,139.1c0-1.2-0.1-10.2-0.2-10.9c-0.1-1.2-0.6-1.7-1.6-1.7h-2.4c-0.3,0-0.4-0.1-0.4-0.3v-1.5
		c0-0.2,0.1-0.3,0.4-0.3c0.6,0,3.2,0.1,8.1,0.1c5.1,0,6.7-0.1,7.4-0.1c0.2,0,0.3,0.1,0.3,0.4v1.2c0,0.3-0.1,0.4-0.4,0.4h-1.5
		c-1.2,0-2,0.4-2,1.3c0,0.5-0.1,11.6-0.1,12.2v3.8c0,0.5,0.1,12.1,0.1,12.5c0,1.5,0.8,1.8,1.7,1.8h2.1c0.2,0,0.4,0.1,0.4,0.4v1.4
		c0,0.2-0.1,0.3-0.5,0.3c-0.6,0-2.6-0.2-7.4-0.2c-5.3,0-7.4,0.2-8,0.2c-0.2,0-0.4-0.1-0.4-0.4v-1.3c0-0.2,0.1-0.3,0.4-0.3h1.5
		c1,0,2-0.1,2.2-1.3c0.1-0.8,0.2-11.6,0.2-14.2V139.1z"/>
	<path class="st2" d="M261.5,149c0.2,0,0.3,0,0.3,0.4c0.1,1.5,0.8,3.7,2,5.7c1.5,2.3,3.9,3.4,6.3,3.4c2.4,0,6.3-1.6,6.3-5.6
		c0-4.2-0.8-5.4-7.3-7.8c-1.5-0.5-4.7-2.1-7.3-4.3c-1.8-1.6-2.5-4.2-2.5-7.1c0-3.1,0.8-5.1,3.8-7.4c2.2-1.7,4.1-2.4,7.2-2.4
		c3.7,0,5.6,0.6,6.7,1c0.5,0.2,0.9,0.1,1.2-0.2l0.6-0.6c0.2-0.2,0.4-0.3,0.8-0.3c0.4,0,0.5,0.6,0.5,0.9l0.8,8.6
		c0,0.2-0.1,0.2-0.2,0.3l-1.1,0.3c-0.3,0.1-0.5,0-0.7-0.3c-0.5-1.5-1.4-3.4-3.1-5.2c-1.2-1.4-2.8-2.1-5-2.1c-3.8,0-5.3,3.2-5.3,4.6
		c0,1.8,0.1,3.3,1.3,4.6c1.3,1.4,4.2,2.6,6.6,3.2c2.4,0.7,4.4,2,6.4,3.8c1.9,1.8,2.8,4,2.8,7.5c0,6.1-4.4,11.1-11,11.1
		c-4.5,0-6.9-0.8-9-2.2c-0.6-0.4-0.9-0.5-1.1-0.5c-0.3,0-0.5,0.4-0.8,0.9c-0.3,0.5-0.5,0.6-0.9,0.6c-0.5,0-0.8-0.2-0.7-0.8l0.8-9.5
		c0-0.3,0.2-0.3,0.4-0.3L261.5,149z"/>
</g>
<g class="st1">
	<path class="st0" d="M306.5,144.4c0,0.9,0,11.7,0.1,13.7h2.9c2.4,0,4.6,0,7.3-0.2s6.1-6.3,6.8-8.1c0.2-0.3,0.3-0.5,0.6-0.3l1,0.4
		c0.2,0.1,0.2,0.2,0.1,0.5c-0.1,0.4-2.1,8.6-2.5,10c-1.3-0.1-15.7-0.2-20.3-0.2c-5,0-6.8,0.2-7.4,0.2c-0.4,0-0.4-0.1-0.4-0.5v-1.2
		c0-0.2,0-0.4,0.4-0.4h1.5c1.9,0,2.2-0.7,2.2-1.2c0-1,0.1-13.4,0.1-16.5v-2.8c0-3.2-0.1-8.5-0.1-9.3c-0.1-1.3-0.4-1.8-1.5-1.8h-1.9
		c-0.3,0-0.3-0.2-0.3-0.5v-1.2c0-0.2,0-0.3,0.3-0.3c0.5,0,2.4,0.1,6.9,0.1c5.9,0,8-0.1,8.4-0.1c0.4,0,0.5,0.1,0.5,0.5v1.1
		c0,0.2-0.1,0.4-0.5,0.4h-2.3c-1.6,0-1.8,0.5-1.8,1.8c0,0.7-0.1,8.2-0.1,11.7V144.4z"/>
</g>
<g class="st1">
	<path class="st2" d="M306.5,144.4c0,0.9,0,11.7,0.1,13.7h2.9c2.4,0,4.6,0,7.3-0.2s6.1-6.3,6.8-8.1c0.2-0.3,0.3-0.5,0.6-0.3l1,0.4
		c0.2,0.1,0.2,0.2,0.1,0.5c-0.1,0.4-2.1,8.6-2.5,10c-1.3-0.1-15.7-0.2-20.3-0.2c-5,0-6.8,0.2-7.4,0.2c-0.4,0-0.4-0.1-0.4-0.5v-1.2
		c0-0.2,0-0.4,0.4-0.4h1.5c1.9,0,2.2-0.7,2.2-1.2c0-1,0.1-13.4,0.1-16.5v-2.8c0-3.2-0.1-8.5-0.1-9.3c-0.1-1.3-0.4-1.8-1.5-1.8h-1.9
		c-0.3,0-0.3-0.2-0.3-0.5v-1.2c0-0.2,0-0.3,0.3-0.3c0.5,0,2.4,0.1,6.9,0.1c5.9,0,8-0.1,8.4-0.1c0.4,0,0.5,0.1,0.5,0.5v1.1
		c0,0.2-0.1,0.4-0.5,0.4h-2.3c-1.6,0-1.8,0.5-1.8,1.8c0,0.7-0.1,8.2-0.1,11.7V144.4z"/>
</g>
<g class="st1">
	<path class="st0" d="M331.7,139.1c0-1.2-0.2-10.2-0.2-10.9c-0.1-1.2-0.6-1.7-1.7-1.7h-2.4c-0.3,0-0.4-0.1-0.4-0.3v-1.5
		c0-0.2,0.1-0.3,0.3-0.3c0.6,0,3.2,0.1,8.1,0.1c5.1,0,6.7-0.1,7.4-0.1c0.2,0,0.3,0.1,0.3,0.4v1.2c0,0.3-0.1,0.4-0.4,0.4h-1.5
		c-1.2,0-2,0.4-2,1.3c0,0.5-0.2,11.6-0.2,12.2v3.8c0,0.5,0.2,12.1,0.2,12.5c0,1.5,0.8,1.8,1.7,1.8h2c0.2,0,0.4,0.1,0.4,0.4v1.4
		c0,0.2-0.2,0.3-0.5,0.3c-0.6,0-2.6-0.2-7.4-0.2c-5.2,0-7.4,0.2-8,0.2c-0.2,0-0.4-0.1-0.4-0.4v-1.3c0-0.2,0.2-0.3,0.4-0.3h1.5
		c1,0,2-0.1,2.2-1.3c0.1-0.8,0.2-11.6,0.2-14.2V139.1z"/>
</g>
<g class="st1">
	<path class="st2" d="M331.7,139.1c0-1.2-0.2-10.2-0.2-10.9c-0.1-1.2-0.6-1.7-1.7-1.7h-2.4c-0.3,0-0.4-0.1-0.4-0.3v-1.5
		c0-0.2,0.1-0.3,0.3-0.3c0.6,0,3.2,0.1,8.1,0.1c5.1,0,6.7-0.1,7.4-0.1c0.2,0,0.3,0.1,0.3,0.4v1.2c0,0.3-0.1,0.4-0.4,0.4h-1.5
		c-1.2,0-2,0.4-2,1.3c0,0.5-0.2,11.6-0.2,12.2v3.8c0,0.5,0.2,12.1,0.2,12.5c0,1.5,0.8,1.8,1.7,1.8h2c0.2,0,0.4,0.1,0.4,0.4v1.4
		c0,0.2-0.2,0.3-0.5,0.3c-0.6,0-2.6-0.2-7.4-0.2c-5.2,0-7.4,0.2-8,0.2c-0.2,0-0.4-0.1-0.4-0.4v-1.3c0-0.2,0.2-0.3,0.4-0.3h1.5
		c1,0,2-0.1,2.2-1.3c0.1-0.8,0.2-11.6,0.2-14.2V139.1z"/>
</g>
<g class="st1">
	<path class="st0" d="M359.4,140.9c2.3,0,4.5-0.1,5.1-0.3c0.9-0.2,1.5-0.7,2.3-1.5c0.6-0.8,1.2-2.2,1.2-3.1c0-0.3,0.2-0.5,0.4-0.5
		l1.3,0.2c0.2,0,0.5,0.1,0.4,0.4c-0.2,0.9-0.2,3.5-0.2,5.2c0,2.2,0.2,4.7,0.3,5.7c0.1,0.3-0.1,0.3-0.4,0.4l-1.2,0.2
		c-0.2,0.1-0.3,0-0.4-0.4c-0.2-0.8-0.7-2-1-2.6c-0.5-0.9-1.8-1.6-2.8-1.8c-1.3-0.2-2.9-0.3-5.1-0.3v3c0,2.7,0.2,7.6,0.2,8.5
		c0,2.6,0.6,3.5,1.2,3.8c0.8,0.3,1.7,0.5,4.2,0.5c0.9,0,3,0,4-0.2c1-0.1,2.5-0.6,3.8-1.6c1.3-1.1,4.1-4.2,5.1-5.4
		c0.2-0.2,0.3-0.2,0.5-0.2l0.8,0.5c0.2,0.1,0.2,0.2,0.2,0.4l-2.2,7.6c-0.2,0.4-0.5,0.8-1.1,0.8c-0.2,0-1.3-0.1-4.5-0.1
		c-3.2,0-8.6,0-17.2,0c-1.8,0-3.2,0-4.2,0c-1,0-1.7,0.1-2.2,0.1c-0.3,0-0.5-0.2-0.5-0.6v-1c0-0.3,0.2-0.5,0.5-0.5h1.5
		c2.3,0,2.5-0.3,2.5-2.1v-16.8c0-4.2-0.1-10.3-0.2-10.8c-0.2-1.6-0.7-2-2-2h-2c-0.2,0-0.2-0.2-0.2-0.5v-1.2c0-0.2,0-0.3,0.3-0.3
		c1.1,0,2.9,0.1,7.4,0.1l17.6,0c0.8,0,1.8-0.1,2-0.1s0.3,0.1,0.4,0.2c0.2,0.7,1.9,7.5,2.1,8c0.1,0.2,0.1,0.4-0.2,0.5l-0.8,0.4
		c-0.2,0.1-0.5,0-0.6-0.2c-0.2-0.4-4.8-4.9-5.9-5.6c-1-0.6-2.5-1.3-3.8-1.3l-6.6-0.2L359.4,140.9z"/>
</g>
<g class="st1">
	<path class="st2" d="M359.4,140.9c2.3,0,4.5-0.1,5.1-0.3c0.9-0.2,1.5-0.7,2.3-1.5c0.6-0.8,1.2-2.2,1.2-3.1c0-0.3,0.2-0.5,0.4-0.5
		l1.3,0.2c0.2,0,0.5,0.1,0.4,0.4c-0.2,0.9-0.2,3.5-0.2,5.2c0,2.2,0.2,4.7,0.3,5.7c0.1,0.3-0.1,0.3-0.4,0.4l-1.2,0.2
		c-0.2,0.1-0.3,0-0.4-0.4c-0.2-0.8-0.7-2-1-2.6c-0.5-0.9-1.8-1.6-2.8-1.8c-1.3-0.2-2.9-0.3-5.1-0.3v3c0,2.7,0.2,7.6,0.2,8.5
		c0,2.6,0.6,3.5,1.2,3.8c0.8,0.3,1.7,0.5,4.2,0.5c0.9,0,3,0,4-0.2c1-0.1,2.5-0.6,3.8-1.6c1.3-1.1,4.1-4.2,5.1-5.4
		c0.2-0.2,0.3-0.2,0.5-0.2l0.8,0.5c0.2,0.1,0.2,0.2,0.2,0.4l-2.2,7.6c-0.2,0.4-0.5,0.8-1.1,0.8c-0.2,0-1.3-0.1-4.5-0.1
		c-3.2,0-8.6,0-17.2,0c-1.8,0-3.2,0-4.2,0c-1,0-1.7,0.1-2.2,0.1c-0.3,0-0.5-0.2-0.5-0.6v-1c0-0.3,0.2-0.5,0.5-0.5h1.5
		c2.3,0,2.5-0.3,2.5-2.1v-16.8c0-4.2-0.1-10.3-0.2-10.8c-0.2-1.6-0.7-2-2-2h-2c-0.2,0-0.2-0.2-0.2-0.5v-1.2c0-0.2,0-0.3,0.3-0.3
		c1.1,0,2.9,0.1,7.4,0.1l17.6,0c0.8,0,1.8-0.1,2-0.1s0.3,0.1,0.4,0.2c0.2,0.7,1.9,7.5,2.1,8c0.1,0.2,0.1,0.4-0.2,0.5l-0.8,0.4
		c-0.2,0.1-0.5,0-0.6-0.2c-0.2-0.4-4.8-4.9-5.9-5.6c-1-0.6-2.5-1.3-3.8-1.3l-6.6-0.2L359.4,140.9z"/>
</g>
<g class="st1">
	<path class="st0" d="M393,142.4c2,0,4-0.1,5-0.3c0.9-0.1,1.8-0.8,2.6-1.8c0.5-0.7,0.9-1.8,1.1-2.7c0.1-0.2,0.2-0.4,0.4-0.4l1.2,0.1
		c0.2,0,0.3,0.1,0.3,0.3c-0.1,0.9-0.1,5-0.1,5.7c0,1.8,0.2,4.2,0.2,5.2c0,0.2-0.1,0.4-0.3,0.4l-1.1,0.2c-0.2,0-0.4-0.1-0.4-0.4
		c-0.1-0.4-0.7-1.9-1-2.4c-0.6-0.9-1.5-1.8-2.5-2c-1.6-0.3-3.3-0.4-5.4-0.4v1.9c0,1.5,0,9.9,0,10.6c0,1.3,0.5,1.6,1.2,1.6h3
		c0.3,0,0.5,0.1,0.5,0.3v1.3c0,0.3-0.1,0.4-0.4,0.4c-0.5,0-2.5-0.2-7.7-0.2c-4.9,0-6.8,0.2-7.5,0.2c-0.2,0-0.3-0.1-0.3-0.5v-1.4
		c0-0.2,0.2-0.2,0.4-0.2h1.8c1,0,1.5-0.2,1.5-1c0-1,0.2-7.3,0.2-15.9v-3.5c0-2.2-0.1-9.2-0.1-9.8c0-1-0.7-1.5-2-1.5h-2
		c-0.3,0-0.5-0.1-0.5-0.3v-1.5c0-0.2,0.1-0.3,0.3-0.3c0.6,0,2.5,0.1,8.6,0.1c0.7,0,13.9-0.1,16.3-0.1c1.1,0,2.2-0.2,2.6-0.2
		c0.2,0,0.4,0.3,0.5,0.8l2,8.2c0,0.2,0,0.4-0.2,0.4l-1,0.5c-0.2,0.1-0.4,0-0.7-0.5c-0.7-0.8-1.8-2.5-3.9-4.6c-0.9-1-2.2-1.9-3.5-2.2
		c-1.2-0.3-6.5-0.5-8.8-0.5c0,0.7,0,10.6,0,13.7V142.4z"/>
	<path class="st0" d="M416.9,137.1c0-1.3-0.2-8.4-0.2-9.2c-0.2-1.2-0.8-1.4-1.7-1.4h-2.5c-0.2,0-0.4,0-0.4-0.4v-1.4
		c0-0.2,0.1-0.2,0.3-0.2c0.7,0,2.9,0.1,7.9,0.1c1.3,0,6.3-0.1,7.5-0.1c6.8,0,12.2,0.6,17,4.5c3.3,2.8,5.6,6.9,5.6,12.7
		c0,5.8-1.7,9.5-5,13.2c-4.9,5.2-13.4,5.3-16.6,5.3c-0.8,0-6.7-0.2-9.5-0.2c-4.4,0-6.4,0.2-7.1,0.2c-0.2,0-0.3-0.1-0.3-0.5v-1.3
		c0-0.2,0.2-0.3,0.4-0.3h2.6c1,0,1.5-0.4,1.6-1.2c0.1-1,0.3-12.3,0.3-16.1V137.1z M424.4,142c0,0.7,0,9.2,0.1,12.3
		c0,1,0.2,1.8,0.8,2.8c0.6,0.9,2.3,1.2,4,1.2c2.9,0,6.8-1.5,9.4-4.9c2-2.6,3.5-6.8,3.5-11.4c0-4.1-1.7-8.3-4-10.9
		c-2.7-3-7.1-4.6-10-4.6c-1.4,0-2.2,0.1-2.8,0.4c-0.8,0.3-1,1.2-1,2.2c0,2.1,0,8.7,0,9.5V142z"/>
	<path class="st0" d="M466.5,140.9c2.3,0,4.5-0.1,5.1-0.3c0.8-0.2,1.5-0.7,2.3-1.5c0.5-0.8,1.2-2.2,1.2-3.1c0-0.3,0.1-0.5,0.4-0.5
		l1.4,0.2c0.2,0,0.5,0.1,0.4,0.4c-0.1,0.9-0.1,3.5-0.1,5.2c0,2.2,0.2,4.7,0.3,5.7c0,0.3-0.2,0.3-0.4,0.4l-1.2,0.2
		c-0.2,0.1-0.3,0-0.4-0.4c-0.2-0.8-0.7-2-1-2.6c-0.5-0.9-1.8-1.6-2.8-1.8c-1.4-0.2-2.9-0.3-5.1-0.3v3c0,2.7,0.2,7.6,0.2,8.5
		c0,2.6,0.5,3.5,1.2,3.8c0.8,0.3,1.7,0.5,4.2,0.5c0.8,0,3,0,4-0.2c1-0.1,2.5-0.6,3.8-1.6c1.3-1.1,4.1-4.2,5.1-5.4
		c0.2-0.2,0.4-0.2,0.5-0.2l0.9,0.5c0.2,0.1,0.2,0.2,0.2,0.4l-2.3,7.6c-0.1,0.4-0.5,0.8-1.1,0.8c-0.2,0-1.4-0.1-4.6-0.1
		c-3.2,0-8.5,0-17.2,0c-1.9,0-3.3,0-4.3,0c-1,0-1.7,0.1-2.1,0.1c-0.4,0-0.5-0.2-0.5-0.6v-1c0-0.3,0.1-0.5,0.5-0.5h1.5
		c2.3,0,2.5-0.3,2.5-2.1v-16.8c0-4.2-0.1-10.3-0.2-10.8c-0.2-1.6-0.7-2-2-2h-2c-0.2,0-0.2-0.2-0.2-0.5v-1.2c0-0.2,0-0.3,0.4-0.3
		c1.1,0,2.8,0.1,7.4,0.1l17.6,0c0.8,0,1.8-0.1,2-0.1s0.4,0.1,0.4,0.2c0.2,0.7,1.8,7.5,2,8c0.1,0.2,0.1,0.4-0.2,0.5l-0.8,0.4
		c-0.2,0.1-0.5,0-0.6-0.2c-0.2-0.4-4.8-4.9-5.9-5.6c-1-0.6-2.5-1.3-3.8-1.3l-6.6-0.2L466.5,140.9z"/>
</g>
<g class="st1">
	<path class="st2" d="M393,142.4c2,0,4-0.1,5-0.3c0.9-0.1,1.8-0.8,2.6-1.8c0.5-0.7,0.9-1.8,1.1-2.7c0.1-0.2,0.2-0.4,0.4-0.4l1.2,0.1
		c0.2,0,0.3,0.1,0.3,0.3c-0.1,0.9-0.1,5-0.1,5.7c0,1.8,0.2,4.2,0.2,5.2c0,0.2-0.1,0.4-0.3,0.4l-1.1,0.2c-0.2,0-0.4-0.1-0.4-0.4
		c-0.1-0.4-0.7-1.9-1-2.4c-0.6-0.9-1.5-1.8-2.5-2c-1.6-0.3-3.3-0.4-5.4-0.4v1.9c0,1.5,0,9.9,0,10.6c0,1.3,0.5,1.6,1.2,1.6h3
		c0.3,0,0.5,0.1,0.5,0.3v1.3c0,0.3-0.1,0.4-0.4,0.4c-0.5,0-2.5-0.2-7.7-0.2c-4.9,0-6.8,0.2-7.5,0.2c-0.2,0-0.3-0.1-0.3-0.5v-1.4
		c0-0.2,0.2-0.2,0.4-0.2h1.8c1,0,1.5-0.2,1.5-1c0-1,0.2-7.3,0.2-15.9v-3.5c0-2.2-0.1-9.2-0.1-9.8c0-1-0.7-1.5-2-1.5h-2
		c-0.3,0-0.5-0.1-0.5-0.3v-1.5c0-0.2,0.1-0.3,0.3-0.3c0.6,0,2.5,0.1,8.6,0.1c0.7,0,13.9-0.1,16.3-0.1c1.1,0,2.2-0.2,2.6-0.2
		c0.2,0,0.4,0.3,0.5,0.8l2,8.2c0,0.2,0,0.4-0.2,0.4l-1,0.5c-0.2,0.1-0.4,0-0.7-0.5c-0.7-0.8-1.8-2.5-3.9-4.6c-0.9-1-2.2-1.9-3.5-2.2
		c-1.2-0.3-6.5-0.5-8.8-0.5c0,0.7,0,10.6,0,13.7V142.4z"/>
	<path class="st2" d="M416.9,137.1c0-1.3-0.2-8.4-0.2-9.2c-0.2-1.2-0.8-1.4-1.7-1.4h-2.5c-0.2,0-0.4,0-0.4-0.4v-1.4
		c0-0.2,0.1-0.2,0.3-0.2c0.7,0,2.9,0.1,7.9,0.1c1.3,0,6.3-0.1,7.5-0.1c6.8,0,12.2,0.6,17,4.5c3.3,2.8,5.6,6.9,5.6,12.7
		c0,5.8-1.7,9.5-5,13.2c-4.9,5.2-13.4,5.3-16.6,5.3c-0.8,0-6.7-0.2-9.5-0.2c-4.4,0-6.4,0.2-7.1,0.2c-0.2,0-0.3-0.1-0.3-0.5v-1.3
		c0-0.2,0.2-0.3,0.4-0.3h2.6c1,0,1.5-0.4,1.6-1.2c0.1-1,0.3-12.3,0.3-16.1V137.1z M424.4,142c0,0.7,0,9.2,0.1,12.3
		c0,1,0.2,1.8,0.8,2.8c0.6,0.9,2.3,1.2,4,1.2c2.9,0,6.8-1.5,9.4-4.9c2-2.6,3.5-6.8,3.5-11.4c0-4.1-1.7-8.3-4-10.9
		c-2.7-3-7.1-4.6-10-4.6c-1.4,0-2.2,0.1-2.8,0.4c-0.8,0.3-1,1.2-1,2.2c0,2.1,0,8.7,0,9.5V142z"/>
	<path class="st2" d="M466.5,140.9c2.3,0,4.5-0.1,5.1-0.3c0.8-0.2,1.5-0.7,2.3-1.5c0.5-0.8,1.2-2.2,1.2-3.1c0-0.3,0.1-0.5,0.4-0.5
		l1.4,0.2c0.2,0,0.5,0.1,0.4,0.4c-0.1,0.9-0.1,3.5-0.1,5.2c0,2.2,0.2,4.7,0.3,5.7c0,0.3-0.2,0.3-0.4,0.4l-1.2,0.2
		c-0.2,0.1-0.3,0-0.4-0.4c-0.2-0.8-0.7-2-1-2.6c-0.5-0.9-1.8-1.6-2.8-1.8c-1.4-0.2-2.9-0.3-5.1-0.3v3c0,2.7,0.2,7.6,0.2,8.5
		c0,2.6,0.5,3.5,1.2,3.8c0.8,0.3,1.7,0.5,4.2,0.5c0.8,0,3,0,4-0.2c1-0.1,2.5-0.6,3.8-1.6c1.3-1.1,4.1-4.2,5.1-5.4
		c0.2-0.2,0.4-0.2,0.5-0.2l0.9,0.5c0.2,0.1,0.2,0.2,0.2,0.4l-2.3,7.6c-0.1,0.4-0.5,0.8-1.1,0.8c-0.2,0-1.4-0.1-4.6-0.1
		c-3.2,0-8.5,0-17.2,0c-1.9,0-3.3,0-4.3,0c-1,0-1.7,0.1-2.1,0.1c-0.4,0-0.5-0.2-0.5-0.6v-1c0-0.3,0.1-0.5,0.5-0.5h1.5
		c2.3,0,2.5-0.3,2.5-2.1v-16.8c0-4.2-0.1-10.3-0.2-10.8c-0.2-1.6-0.7-2-2-2h-2c-0.2,0-0.2-0.2-0.2-0.5v-1.2c0-0.2,0-0.3,0.4-0.3
		c1.1,0,2.8,0.1,7.4,0.1l17.6,0c0.8,0,1.8-0.1,2-0.1s0.4,0.1,0.4,0.2c0.2,0.7,1.8,7.5,2,8c0.1,0.2,0.1,0.4-0.2,0.5l-0.8,0.4
		c-0.2,0.1-0.5,0-0.6-0.2c-0.2-0.4-4.8-4.9-5.9-5.6c-1-0.6-2.5-1.3-3.8-1.3l-6.6-0.2L466.5,140.9z"/>
</g>
<g class="st1">
	<path class="st0" d="M26.2,175.5c-0.7,0-1.5,0-2.8,0.9c-1.1,0.7-5.4,5.6-6.4,6.9c-0.2,0.2-0.4,0.4-0.6,0.3l-0.9-0.5
		c-0.1,0-0.2-0.2-0.1-0.5l3.1-8.9c0.1-0.5,0.5-0.5,0.7-0.5c0.4,0,0.8,0,1.1,0.1c2.4,0.3,9.4,0.3,13.6,0.3c3.1,0,5.7-0.1,7.6-0.1
		c1.7-0.1,3.3-0.2,3.6-0.2c0.8,0,1.2,0.7,0.7,1.2c-0.4,0.5-22.3,31.2-23.3,32.5h12.1c1.4,0,2.5,0,3.7-0.5c1.4-0.7,6.4-5.8,7.1-6.7
		c0.2-0.2,0.4-0.2,0.6-0.2l0.9,0.5c0.1,0.1,0.2,0.2,0.1,0.5c-0.7,1.1-3.1,7.3-3.8,8.7c-0.1,0.2-0.4,0.5-0.6,0.5
		c-0.2,0-0.6,0-1.2-0.2c-2.8-0.3-10.7-0.5-15.2-0.5H14.3c-0.4,0-1,0-1-0.4c0-0.3,0.1-0.7,0.2-1c2.1-3.1,22.6-31.6,23-32.2H26.2z"/>
</g>
<g class="st1">
	<path class="st2" d="M26.2,175.5c-0.7,0-1.5,0-2.8,0.9c-1.1,0.7-5.4,5.6-6.4,6.9c-0.2,0.2-0.4,0.4-0.6,0.3l-0.9-0.5
		c-0.1,0-0.2-0.2-0.1-0.5l3.1-8.9c0.1-0.5,0.5-0.5,0.7-0.5c0.4,0,0.8,0,1.1,0.1c2.4,0.3,9.4,0.3,13.6,0.3c3.1,0,5.7-0.1,7.6-0.1
		c1.7-0.1,3.3-0.2,3.6-0.2c0.8,0,1.2,0.7,0.7,1.2c-0.4,0.5-22.3,31.2-23.3,32.5h12.1c1.4,0,2.5,0,3.7-0.5c1.4-0.7,6.4-5.8,7.1-6.7
		c0.2-0.2,0.4-0.2,0.6-0.2l0.9,0.5c0.1,0.1,0.2,0.2,0.1,0.5c-0.7,1.1-3.1,7.3-3.8,8.7c-0.1,0.2-0.4,0.5-0.6,0.5
		c-0.2,0-0.6,0-1.2-0.2c-2.8-0.3-10.7-0.5-15.2-0.5H14.3c-0.4,0-1,0-1-0.4c0-0.3,0.1-0.7,0.2-1c2.1-3.1,22.6-31.6,23-32.2H26.2z"/>
</g>
<g class="st1">
	<path class="st0" d="M56.9,206.6c-3.5-2.2-7.4-7.6-7.4-14.9c0-3.1,0.8-7.8,4.6-12.5c4.4-5.4,10.1-6.4,14.6-6.4c4.1,0,8,0.7,12.2,4
		c3.8,3,6.9,8.1,6.9,15c0,3.7-1.2,7.5-3.8,11c-3.2,4.1-7.5,7.1-15.4,7.1C65.2,209.8,60.8,209,56.9,206.6z M79.9,192.2
		c0-11-7.2-17-11.4-17c-1,0-3.5-0.2-6.6,2.7c-3,2.8-4.5,8-4.5,12.2c0,12.8,7.4,17.4,11.5,17.4C78.3,207.5,79.9,196.3,79.9,192.2z"/>
	<path class="st0" d="M123.2,194.5c0-4.5,0-6.9-0.1-9.4c0-2-0.3-6.9-0.5-7.6c-0.3-1.2-1.5-2-2.6-2h-1.6c-0.2,0-0.3-0.2-0.3-0.5v-1.2
		c0-0.2,0.1-0.3,0.5-0.3c0.6,0,2.2,0.1,5.9,0.1c3,0,4.2-0.1,4.8-0.1c0.5,0,0.5,0.1,0.5,0.4v1.2c0,0.2,0,0.5-0.2,0.5H128
		c-0.9,0-1.4,0.8-1.5,2.7c-0.4,3.3-1.2,14.7-1.2,21.3v8.6c0,0.8,0,1.6-0.8,1.6c-0.8,0-1.4-0.2-2-0.8c-0.8-0.8-3.3-3.5-6.3-7
		l-8.6-10.2c-0.9-1-7.8-9.6-8.9-11.3h-0.4v10.1c0,4.2,0.5,10.3,0.5,12.2c0.1,2.9,1,4.4,3.1,4.4h1.3c0.3,0,0.4,0.2,0.4,0.5v1.2
		c0,0.3-0.1,0.4-0.4,0.4c-0.5,0-3.5-0.2-5.9-0.2c-1.5,0-5,0.2-5.5,0.2c-0.2,0-0.2-0.1-0.2-0.5v-1.3c0-0.2,0.1-0.3,0.3-0.3h1.8
		c1.1,0,1.9-1.6,2.2-5c0-1,0.4-9,0.4-16.4v-4.5c0-3-1.8-5.8-4.3-5.8l-1.2,0c-0.2,0-0.3-0.2-0.3-0.4v-1.3c0-0.2,0-0.3,0.3-0.3
		s0.6,0,1.6,0c1,0,2.6,0.1,5.2,0.1c1.7,0,3.2-0.1,3.8-0.1c0.6,0,1.1,0.2,1.5,0.6l11.6,14.2l8.6,10.7h0.2V194.5z"/>
	<path class="st0" d="M136.9,186.1c0-1.3-0.2-8.4-0.2-9.2c-0.2-1.2-0.8-1.4-1.7-1.4h-2.5c-0.2,0-0.4,0-0.4-0.4v-1.4
		c0-0.2,0.1-0.2,0.3-0.2c0.7,0,2.9,0.1,7.9,0.1c1.3,0,6.3-0.1,7.5-0.1c6.8,0,12.2,0.6,17,4.5c3.3,2.8,5.6,6.9,5.6,12.7
		c0,5.8-1.6,9.5-5,13.2c-4.9,5.2-13.4,5.3-16.6,5.3c-0.8,0-6.7-0.2-9.5-0.2c-4.4,0-6.4,0.2-7.1,0.2c-0.2,0-0.4-0.1-0.4-0.5v-1.3
		c0-0.2,0.2-0.3,0.4-0.3h2.6c0.9,0,1.5-0.4,1.6-1.2c0.1-1,0.4-12.3,0.4-16.1V186.1z M144.4,191c0,0.7,0,9.2,0.1,12.3
		c0,1,0.2,1.8,0.9,2.8c0.6,0.9,2.3,1.2,4,1.2c2.9,0,6.8-1.5,9.4-4.9c2-2.6,3.6-6.8,3.6-11.4c0-4.1-1.7-8.3-4.1-10.9
		c-2.7-3-7.1-4.6-10-4.6c-1.4,0-2.2,0.1-2.8,0.4c-0.8,0.3-1,1.2-1,2.2c0,2.1,0,8.7,0,9.5V191z"/>
</g>
<g class="st1">
	<path class="st2" d="M56.9,206.6c-3.5-2.2-7.4-7.6-7.4-14.9c0-3.1,0.8-7.8,4.6-12.5c4.4-5.4,10.1-6.4,14.6-6.4c4.1,0,8,0.7,12.2,4
		c3.8,3,6.9,8.1,6.9,15c0,3.7-1.2,7.5-3.8,11c-3.2,4.1-7.5,7.1-15.4,7.1C65.2,209.8,60.8,209,56.9,206.6z M79.9,192.2
		c0-11-7.2-17-11.4-17c-1,0-3.5-0.2-6.6,2.7c-3,2.8-4.5,8-4.5,12.2c0,12.8,7.4,17.4,11.5,17.4C78.3,207.5,79.9,196.3,79.9,192.2z"/>
	<path class="st2" d="M123.2,194.5c0-4.5,0-6.9-0.1-9.4c0-2-0.3-6.9-0.5-7.6c-0.3-1.2-1.5-2-2.6-2h-1.6c-0.2,0-0.3-0.2-0.3-0.5v-1.2
		c0-0.2,0.1-0.3,0.5-0.3c0.6,0,2.2,0.1,5.9,0.1c3,0,4.2-0.1,4.8-0.1c0.5,0,0.5,0.1,0.5,0.4v1.2c0,0.2,0,0.5-0.2,0.5H128
		c-0.9,0-1.4,0.8-1.5,2.7c-0.4,3.3-1.2,14.7-1.2,21.3v8.6c0,0.8,0,1.6-0.8,1.6c-0.8,0-1.4-0.2-2-0.8c-0.8-0.8-3.3-3.5-6.3-7
		l-8.6-10.2c-0.9-1-7.8-9.6-8.9-11.3h-0.4v10.1c0,4.2,0.5,10.3,0.5,12.2c0.1,2.9,1,4.4,3.1,4.4h1.3c0.3,0,0.4,0.2,0.4,0.5v1.2
		c0,0.3-0.1,0.4-0.4,0.4c-0.5,0-3.5-0.2-5.9-0.2c-1.5,0-5,0.2-5.5,0.2c-0.2,0-0.2-0.1-0.2-0.5v-1.3c0-0.2,0.1-0.3,0.3-0.3h1.8
		c1.1,0,1.9-1.6,2.2-5c0-1,0.4-9,0.4-16.4v-4.5c0-3-1.8-5.8-4.3-5.8l-1.2,0c-0.2,0-0.3-0.2-0.3-0.4v-1.3c0-0.2,0-0.3,0.3-0.3
		s0.6,0,1.6,0c1,0,2.6,0.1,5.2,0.1c1.7,0,3.2-0.1,3.8-0.1c0.6,0,1.1,0.2,1.5,0.6l11.6,14.2l8.6,10.7h0.2V194.5z"/>
	<path class="st2" d="M136.9,186.1c0-1.3-0.2-8.4-0.2-9.2c-0.2-1.2-0.8-1.4-1.7-1.4h-2.5c-0.2,0-0.4,0-0.4-0.4v-1.4
		c0-0.2,0.1-0.2,0.3-0.2c0.7,0,2.9,0.1,7.9,0.1c1.3,0,6.3-0.1,7.5-0.1c6.8,0,12.2,0.6,17,4.5c3.3,2.8,5.6,6.9,5.6,12.7
		c0,5.8-1.6,9.5-5,13.2c-4.9,5.2-13.4,5.3-16.6,5.3c-0.8,0-6.7-0.2-9.5-0.2c-4.4,0-6.4,0.2-7.1,0.2c-0.2,0-0.4-0.1-0.4-0.5v-1.3
		c0-0.2,0.2-0.3,0.4-0.3h2.6c0.9,0,1.5-0.4,1.6-1.2c0.1-1,0.4-12.3,0.4-16.1V186.1z M144.4,191c0,0.7,0,9.2,0.1,12.3
		c0,1,0.2,1.8,0.9,2.8c0.6,0.9,2.3,1.2,4,1.2c2.9,0,6.8-1.5,9.4-4.9c2-2.6,3.6-6.8,3.6-11.4c0-4.1-1.7-8.3-4.1-10.9
		c-2.7-3-7.1-4.6-10-4.6c-1.4,0-2.2,0.1-2.8,0.4c-0.8,0.3-1,1.2-1,2.2c0,2.1,0,8.7,0,9.5V191z"/>
</g>
<g class="st1">
	<path class="st0" d="M185.5,189.9c2.3,0,4.5-0.1,5.1-0.3c0.9-0.2,1.5-0.7,2.3-1.5c0.6-0.8,1.2-2.2,1.2-3.1c0-0.3,0.1-0.5,0.4-0.5
		l1.4,0.2c0.2,0,0.5,0.1,0.4,0.4c-0.1,0.9-0.1,3.5-0.1,5.2c0,2.2,0.2,4.7,0.3,5.7c0.1,0.3-0.1,0.3-0.4,0.4l-1.2,0.2
		c-0.2,0.1-0.3,0-0.4-0.4c-0.2-0.8-0.7-2-1-2.6c-0.5-0.9-1.8-1.6-2.8-1.8c-1.4-0.2-2.9-0.3-5.1-0.3v3c0,2.7,0.2,7.6,0.2,8.5
		c0,2.6,0.6,3.5,1.2,3.8c0.8,0.3,1.7,0.5,4.2,0.5c0.9,0,3,0,4-0.2c1-0.1,2.5-0.6,3.8-1.6c1.3-1.1,4.1-4.2,5.1-5.4
		c0.2-0.2,0.4-0.2,0.5-0.2l0.9,0.5c0.2,0.1,0.2,0.2,0.2,0.4l-2.3,7.6c-0.1,0.4-0.5,0.8-1.1,0.8c-0.2,0-1.4-0.1-4.6-0.1
		c-3.2,0-8.6,0-17.2,0c-1.9,0-3.3,0-4.3,0c-1,0-1.7,0.1-2.1,0.1c-0.4,0-0.5-0.2-0.5-0.6v-1c0-0.3,0.1-0.5,0.5-0.5h1.5
		c2.3,0,2.5-0.3,2.5-2.1v-16.8c0-4.2-0.1-10.3-0.2-10.8c-0.2-1.6-0.7-2-2-2h-2c-0.2,0-0.2-0.2-0.2-0.5v-1.2c0-0.2,0-0.3,0.4-0.3
		c1.1,0,2.9,0.1,7.4,0.1l17.6,0c0.8,0,1.8-0.1,2-0.1s0.3,0.1,0.4,0.2c0.2,0.7,1.9,7.5,2.1,8c0.1,0.2,0.1,0.4-0.2,0.5l-0.8,0.4
		c-0.2,0.1-0.5,0-0.6-0.2c-0.2-0.4-4.8-4.9-5.9-5.6c-1.1-0.6-2.5-1.3-3.8-1.3l-6.6-0.2L185.5,189.9z"/>
</g>
<g class="st1">
	<path class="st2" d="M185.5,189.9c2.3,0,4.5-0.1,5.1-0.3c0.9-0.2,1.5-0.7,2.3-1.5c0.6-0.8,1.2-2.2,1.2-3.1c0-0.3,0.1-0.5,0.4-0.5
		l1.4,0.2c0.2,0,0.5,0.1,0.4,0.4c-0.1,0.9-0.1,3.5-0.1,5.2c0,2.2,0.2,4.7,0.3,5.7c0.1,0.3-0.1,0.3-0.4,0.4l-1.2,0.2
		c-0.2,0.1-0.3,0-0.4-0.4c-0.2-0.8-0.7-2-1-2.6c-0.5-0.9-1.8-1.6-2.8-1.8c-1.4-0.2-2.9-0.3-5.1-0.3v3c0,2.7,0.2,7.6,0.2,8.5
		c0,2.6,0.6,3.5,1.2,3.8c0.8,0.3,1.7,0.5,4.2,0.5c0.9,0,3,0,4-0.2c1-0.1,2.5-0.6,3.8-1.6c1.3-1.1,4.1-4.2,5.1-5.4
		c0.2-0.2,0.4-0.2,0.5-0.2l0.9,0.5c0.2,0.1,0.2,0.2,0.2,0.4l-2.3,7.6c-0.1,0.4-0.5,0.8-1.1,0.8c-0.2,0-1.4-0.1-4.6-0.1
		c-3.2,0-8.6,0-17.2,0c-1.9,0-3.3,0-4.3,0c-1,0-1.7,0.1-2.1,0.1c-0.4,0-0.5-0.2-0.5-0.6v-1c0-0.3,0.1-0.5,0.5-0.5h1.5
		c2.3,0,2.5-0.3,2.5-2.1v-16.8c0-4.2-0.1-10.3-0.2-10.8c-0.2-1.6-0.7-2-2-2h-2c-0.2,0-0.2-0.2-0.2-0.5v-1.2c0-0.2,0-0.3,0.4-0.3
		c1.1,0,2.9,0.1,7.4,0.1l17.6,0c0.8,0,1.8-0.1,2-0.1s0.3,0.1,0.4,0.2c0.2,0.7,1.9,7.5,2.1,8c0.1,0.2,0.1,0.4-0.2,0.5l-0.8,0.4
		c-0.2,0.1-0.5,0-0.6-0.2c-0.2-0.4-4.8-4.9-5.9-5.6c-1.1-0.6-2.5-1.3-3.8-1.3l-6.6-0.2L185.5,189.9z"/>
</g>
<g class="st1">
	<path class="st0" d="M211.6,186.3c0-3.7,0-6.9,0-8.3c0-1.7-0.7-2.5-1.4-2.5h-2c-0.2,0-0.3-0.2-0.3-0.4v-1.3c0-0.2,0-0.3,0.3-0.3
		c0.5,0,2,0.1,7.5,0.1c2.8,0,7.2-0.1,9.3-0.1c3.9,0,6.8,1.4,8.9,3.3c1.8,1.7,2.9,3.6,2.9,5.5c0,6.4-4.8,9.2-9.2,9.6v0.4
		c1.5,0.5,2.4,1.4,3.3,2.6c0.6,0.8,3.4,5.3,3.8,5.9c0.3,0.5,3,4.2,4,5.4c0.6,0.7,2.5,1,3.7,1c0.3,0,0.4,0.2,0.4,0.4v1.2
		c0,0.3-0.1,0.5-0.4,0.5c-0.4,0-1.7-0.2-5.6-0.2c-1.5,0-3.3,0.1-4.8,0.2c-1.5-1.2-4.6-7-5.5-8.7c-1.7-3.4-3.8-7.1-6.2-7.1h-1.7v2.5
		c0,3,0.1,8.6,0.2,9.2c0.1,1.1,0.5,2,1.2,2h2.1c0.4,0,0.4,0.2,0.4,0.4v1.2c0,0.3,0,0.5-0.8,0.5c0,0-1.3-0.2-6.6-0.2
		c-5.3,0-6.5,0.2-7,0.2c-0.4,0-0.4-0.2-0.4-0.5v-1.2c0-0.2,0-0.4,0.2-0.4h1.5c1.1,0,2-0.3,2-1.6c0.1-5,0.1-9.7,0.1-14.4V186.3z
		 M218.6,191.7c1,0,1.6,0,2,0c6.6,0,8.2-6.3,8.2-8.7c0-2.3-0.8-4.5-1.9-5.6c-1.8-1.6-4.1-2.2-5.6-2.2c-0.9,0-1.5,0.1-1.9,0.5
		c-0.3,0.2-0.5,0.8-0.6,1.3L218.6,191.7z"/>
</g>
<g class="st1">
	<path class="st2" d="M211.6,186.3c0-3.7,0-6.9,0-8.3c0-1.7-0.7-2.5-1.4-2.5h-2c-0.2,0-0.3-0.2-0.3-0.4v-1.3c0-0.2,0-0.3,0.3-0.3
		c0.5,0,2,0.1,7.5,0.1c2.8,0,7.2-0.1,9.3-0.1c3.9,0,6.8,1.4,8.9,3.3c1.8,1.7,2.9,3.6,2.9,5.5c0,6.4-4.8,9.2-9.2,9.6v0.4
		c1.5,0.5,2.4,1.4,3.3,2.6c0.6,0.8,3.4,5.3,3.8,5.9c0.3,0.5,3,4.2,4,5.4c0.6,0.7,2.5,1,3.7,1c0.3,0,0.4,0.2,0.4,0.4v1.2
		c0,0.3-0.1,0.5-0.4,0.5c-0.4,0-1.7-0.2-5.6-0.2c-1.5,0-3.3,0.1-4.8,0.2c-1.5-1.2-4.6-7-5.5-8.7c-1.7-3.4-3.8-7.1-6.2-7.1h-1.7v2.5
		c0,3,0.1,8.6,0.2,9.2c0.1,1.1,0.5,2,1.2,2h2.1c0.4,0,0.4,0.2,0.4,0.4v1.2c0,0.3,0,0.5-0.8,0.5c0,0-1.3-0.2-6.6-0.2
		c-5.3,0-6.5,0.2-7,0.2c-0.4,0-0.4-0.2-0.4-0.5v-1.2c0-0.2,0-0.4,0.2-0.4h1.5c1.1,0,2-0.3,2-1.6c0.1-5,0.1-9.7,0.1-14.4V186.3z
		 M218.6,191.7c1,0,1.6,0,2,0c6.6,0,8.2-6.3,8.2-8.7c0-2.3-0.8-4.5-1.9-5.6c-1.8-1.6-4.1-2.2-5.6-2.2c-0.9,0-1.5,0.1-1.9,0.5
		c-0.3,0.2-0.5,0.8-0.6,1.3L218.6,191.7z"/>
</g>
<g class="st1">
	<path class="st0" d="M274.5,173.9c0-0.2,0-0.3,0.3-0.3c0.5,0,2.8,0.1,6.1,0.1c4.7,0,5.9-0.1,6.4-0.1c0.3,0,0.3,0.1,0.3,0.4v1.2
		c0,0.2,0,0.4-0.3,0.4h-1.2c-0.9,0-2.4,0.3-3.7,2.6c-2,3.4-4.2,9.3-6.1,13.5c-1.2,2.7-6.9,16.1-7.8,17.6c-0.4,0.6-0.6,0.8-1.2,0.8
		c-0.7,0-0.8-0.6-1.2-1.2c-1.8-4-6.4-16.1-7.8-19.5c-1.4-3.5-3.9-10.7-4.5-12.1c-0.5-1.2-1.1-1.7-2.1-1.7h-1.3
		c-0.2,0-0.2-0.2-0.2-0.5v-1.2c0-0.2,0.1-0.3,0.4-0.3c0.5,0,2.2,0.1,8.2,0.1c5.2,0,7.5-0.1,7.9-0.1s0.5,0.1,0.5,0.4v1.2
		c0,0.2,0,0.5-0.4,0.5h-2.1c-1.2,0-2.2,0.5-2.2,1.2c0,0.4,0,1,0.2,1.7c0.4,1.8,2.3,7.8,3.3,10.7l3.8,11.2h0.2
		c1.5-3.3,3.9-9.6,4.6-11.4c1-2.5,2.5-6.7,3.3-8.9c0.5-1.3,0.5-2.2,0.5-2.8c0-0.6-0.6-1.7-2-1.7h-1.5c-0.2,0-0.2-0.2-0.2-0.5V173.9z
		"/>
</g>
<g class="st1">
	<path class="st2" d="M274.5,173.9c0-0.2,0-0.3,0.3-0.3c0.5,0,2.8,0.1,6.1,0.1c4.7,0,5.9-0.1,6.4-0.1c0.3,0,0.3,0.1,0.3,0.4v1.2
		c0,0.2,0,0.4-0.3,0.4h-1.2c-0.9,0-2.4,0.3-3.7,2.6c-2,3.4-4.2,9.3-6.1,13.5c-1.2,2.7-6.9,16.1-7.8,17.6c-0.4,0.6-0.6,0.8-1.2,0.8
		c-0.7,0-0.8-0.6-1.2-1.2c-1.8-4-6.4-16.1-7.8-19.5c-1.4-3.5-3.9-10.7-4.5-12.1c-0.5-1.2-1.1-1.7-2.1-1.7h-1.3
		c-0.2,0-0.2-0.2-0.2-0.5v-1.2c0-0.2,0.1-0.3,0.4-0.3c0.5,0,2.2,0.1,8.2,0.1c5.2,0,7.5-0.1,7.9-0.1s0.5,0.1,0.5,0.4v1.2
		c0,0.2,0,0.5-0.4,0.5h-2.1c-1.2,0-2.2,0.5-2.2,1.2c0,0.4,0,1,0.2,1.7c0.4,1.8,2.3,7.8,3.3,10.7l3.8,11.2h0.2
		c1.5-3.3,3.9-9.6,4.6-11.4c1-2.5,2.5-6.7,3.3-8.9c0.5-1.3,0.5-2.2,0.5-2.8c0-0.6-0.6-1.7-2-1.7h-1.5c-0.2,0-0.2-0.2-0.2-0.5V173.9z
		"/>
</g>
<g class="st1">
	<path class="st0" d="M300.8,189.9c2.3,0,4.5-0.1,5.1-0.3c0.8-0.2,1.5-0.7,2.3-1.5c0.5-0.8,1.2-2.2,1.2-3.1c0-0.3,0.1-0.5,0.4-0.5
		l1.4,0.2c0.2,0,0.5,0.1,0.4,0.4c-0.1,0.9-0.1,3.5-0.1,5.2c0,2.2,0.2,4.7,0.3,5.7c0,0.3-0.2,0.3-0.4,0.4l-1.2,0.2
		c-0.2,0.1-0.3,0-0.4-0.4c-0.2-0.8-0.7-2-1-2.6c-0.5-0.9-1.8-1.6-2.8-1.8c-1.4-0.2-2.9-0.3-5.1-0.3v3c0,2.7,0.2,7.6,0.2,8.5
		c0,2.6,0.5,3.5,1.2,3.8c0.8,0.3,1.7,0.5,4.2,0.5c0.8,0,3,0,4-0.2c1-0.1,2.5-0.6,3.8-1.6c1.3-1.1,4.1-4.2,5.1-5.4
		c0.2-0.2,0.4-0.2,0.5-0.2l0.9,0.5c0.2,0.1,0.2,0.2,0.2,0.4l-2.3,7.6c-0.1,0.4-0.5,0.8-1.1,0.8c-0.2,0-1.4-0.1-4.6-0.1
		c-3.2,0-8.5,0-17.2,0c-1.9,0-3.3,0-4.3,0c-1,0-1.7,0.1-2.1,0.1c-0.4,0-0.5-0.2-0.5-0.6v-1c0-0.3,0.1-0.5,0.5-0.5h1.5
		c2.3,0,2.5-0.3,2.5-2.1v-16.8c0-4.2-0.1-10.3-0.2-10.8c-0.2-1.6-0.7-2-2-2h-2c-0.2,0-0.2-0.2-0.2-0.5v-1.2c0-0.2,0-0.3,0.4-0.3
		c1.1,0,2.9,0.1,7.4,0.1l17.6,0c0.8,0,1.8-0.1,2-0.1s0.3,0.1,0.4,0.2c0.2,0.7,1.8,7.5,2,8c0.1,0.2,0.1,0.4-0.2,0.5l-0.8,0.4
		c-0.2,0.1-0.5,0-0.6-0.2c-0.2-0.4-4.8-4.9-5.9-5.6c-1.1-0.6-2.5-1.3-3.8-1.3l-6.6-0.2L300.8,189.9z"/>
</g>
<g class="st1">
	<path class="st2" d="M300.8,189.9c2.3,0,4.5-0.1,5.1-0.3c0.8-0.2,1.5-0.7,2.3-1.5c0.5-0.8,1.2-2.2,1.2-3.1c0-0.3,0.1-0.5,0.4-0.5
		l1.4,0.2c0.2,0,0.5,0.1,0.4,0.4c-0.1,0.9-0.1,3.5-0.1,5.2c0,2.2,0.2,4.7,0.3,5.7c0,0.3-0.2,0.3-0.4,0.4l-1.2,0.2
		c-0.2,0.1-0.3,0-0.4-0.4c-0.2-0.8-0.7-2-1-2.6c-0.5-0.9-1.8-1.6-2.8-1.8c-1.4-0.2-2.9-0.3-5.1-0.3v3c0,2.7,0.2,7.6,0.2,8.5
		c0,2.6,0.5,3.5,1.2,3.8c0.8,0.3,1.7,0.5,4.2,0.5c0.8,0,3,0,4-0.2c1-0.1,2.5-0.6,3.8-1.6c1.3-1.1,4.1-4.2,5.1-5.4
		c0.2-0.2,0.4-0.2,0.5-0.2l0.9,0.5c0.2,0.1,0.2,0.2,0.2,0.4l-2.3,7.6c-0.1,0.4-0.5,0.8-1.1,0.8c-0.2,0-1.4-0.1-4.6-0.1
		c-3.2,0-8.5,0-17.2,0c-1.9,0-3.3,0-4.3,0c-1,0-1.7,0.1-2.1,0.1c-0.4,0-0.5-0.2-0.5-0.6v-1c0-0.3,0.1-0.5,0.5-0.5h1.5
		c2.3,0,2.5-0.3,2.5-2.1v-16.8c0-4.2-0.1-10.3-0.2-10.8c-0.2-1.6-0.7-2-2-2h-2c-0.2,0-0.2-0.2-0.2-0.5v-1.2c0-0.2,0-0.3,0.4-0.3
		c1.1,0,2.9,0.1,7.4,0.1l17.6,0c0.8,0,1.8-0.1,2-0.1s0.3,0.1,0.4,0.2c0.2,0.7,1.8,7.5,2,8c0.1,0.2,0.1,0.4-0.2,0.5l-0.8,0.4
		c-0.2,0.1-0.5,0-0.6-0.2c-0.2-0.4-4.8-4.9-5.9-5.6c-1.1-0.6-2.5-1.3-3.8-1.3l-6.6-0.2L300.8,189.9z"/>
</g>
<g class="st1">
	<path class="st0" d="M326.9,186.3c0-3.7,0-6.9,0-8.3c0-1.7-0.7-2.5-1.4-2.5h-2c-0.2,0-0.3-0.2-0.3-0.4v-1.3c0-0.2,0-0.3,0.3-0.3
		c0.5,0,2,0.1,7.5,0.1c2.8,0,7.2-0.1,9.3-0.1c3.9,0,6.8,1.4,8.9,3.3c1.8,1.7,2.8,3.6,2.8,5.5c0,6.4-4.8,9.2-9.2,9.6v0.4
		c1.5,0.5,2.4,1.4,3.3,2.6c0.6,0.8,3.4,5.3,3.8,5.9c0.3,0.5,3,4.2,4,5.4c0.6,0.7,2.5,1,3.7,1c0.3,0,0.4,0.2,0.4,0.4v1.2
		c0,0.3-0.1,0.5-0.4,0.5c-0.4,0-1.7-0.2-5.5-0.2c-1.5,0-3.3,0.1-4.8,0.2c-1.5-1.2-4.6-7-5.5-8.7c-1.7-3.4-3.8-7.1-6.2-7.1h-1.7v2.5
		c0,3,0.2,8.6,0.2,9.2c0.1,1.1,0.5,2,1.2,2h2.1c0.3,0,0.4,0.2,0.4,0.4v1.2c0,0.3,0,0.5-0.8,0.5c0,0-1.3-0.2-6.6-0.2
		c-5.3,0-6.5,0.2-7,0.2c-0.4,0-0.4-0.2-0.4-0.5v-1.2c0-0.2,0-0.4,0.2-0.4h1.5c1.1,0,2-0.3,2-1.6c0.1-5,0.1-9.7,0.1-14.4V186.3z
		 M333.9,191.7c1,0,1.6,0,2,0c6.6,0,8.2-6.3,8.2-8.7c0-2.3-0.8-4.5-1.9-5.6c-1.8-1.6-4.1-2.2-5.6-2.2c-0.8,0-1.5,0.1-1.9,0.5
		c-0.3,0.2-0.5,0.8-0.6,1.3L333.9,191.7z"/>
</g>
<g class="st1">
	<path class="st2" d="M326.9,186.3c0-3.7,0-6.9,0-8.3c0-1.7-0.7-2.5-1.4-2.5h-2c-0.2,0-0.3-0.2-0.3-0.4v-1.3c0-0.2,0-0.3,0.3-0.3
		c0.5,0,2,0.1,7.5,0.1c2.8,0,7.2-0.1,9.3-0.1c3.9,0,6.8,1.4,8.9,3.3c1.8,1.7,2.8,3.6,2.8,5.5c0,6.4-4.8,9.2-9.2,9.6v0.4
		c1.5,0.5,2.4,1.4,3.3,2.6c0.6,0.8,3.4,5.3,3.8,5.9c0.3,0.5,3,4.2,4,5.4c0.6,0.7,2.5,1,3.7,1c0.3,0,0.4,0.2,0.4,0.4v1.2
		c0,0.3-0.1,0.5-0.4,0.5c-0.4,0-1.7-0.2-5.5-0.2c-1.5,0-3.3,0.1-4.8,0.2c-1.5-1.2-4.6-7-5.5-8.7c-1.7-3.4-3.8-7.1-6.2-7.1h-1.7v2.5
		c0,3,0.2,8.6,0.2,9.2c0.1,1.1,0.5,2,1.2,2h2.1c0.3,0,0.4,0.2,0.4,0.4v1.2c0,0.3,0,0.5-0.8,0.5c0,0-1.3-0.2-6.6-0.2
		c-5.3,0-6.5,0.2-7,0.2c-0.4,0-0.4-0.2-0.4-0.5v-1.2c0-0.2,0-0.4,0.2-0.4h1.5c1.1,0,2-0.3,2-1.6c0.1-5,0.1-9.7,0.1-14.4V186.3z
		 M333.9,191.7c1,0,1.6,0,2,0c6.6,0,8.2-6.3,8.2-8.7c0-2.3-0.8-4.5-1.9-5.6c-1.8-1.6-4.1-2.2-5.6-2.2c-0.8,0-1.5,0.1-1.9,0.5
		c-0.3,0.2-0.5,0.8-0.6,1.3L333.9,191.7z"/>
</g>
<g class="st1">
	<path class="st0" d="M373.5,193.4c0,0.9,0,11.7,0.1,13.7h2.9c2.4,0,4.6,0,7.3-0.2s6.1-6.3,6.9-8.1c0.2-0.3,0.3-0.5,0.6-0.3l1,0.4
		c0.2,0.1,0.2,0.2,0.1,0.5c-0.1,0.4-2.1,8.6-2.4,10c-1.3-0.1-15.7-0.2-20.3-0.2c-5,0-6.8,0.2-7.4,0.2c-0.4,0-0.4-0.1-0.4-0.5v-1.2
		c0-0.2,0-0.4,0.3-0.4h1.5c1.9,0,2.2-0.7,2.2-1.2c0-1,0.1-13.4,0.1-16.5v-2.8c0-3.2-0.1-8.5-0.1-9.3c-0.1-1.3-0.4-1.8-1.5-1.8h-1.9
		c-0.3,0-0.3-0.2-0.3-0.5v-1.2c0-0.2,0-0.3,0.3-0.3c0.6,0,2.4,0.1,6.9,0.1c5.9,0,8-0.1,8.4-0.1c0.4,0,0.5,0.1,0.5,0.5v1.1
		c0,0.2-0.1,0.4-0.5,0.4h-2.4c-1.5,0-1.8,0.5-1.8,1.8c0,0.7-0.1,8.2-0.1,11.7V193.4z"/>
</g>
<g class="st1">
	<path class="st2" d="M373.5,193.4c0,0.9,0,11.7,0.1,13.7h2.9c2.4,0,4.6,0,7.3-0.2s6.1-6.3,6.9-8.1c0.2-0.3,0.3-0.5,0.6-0.3l1,0.4
		c0.2,0.1,0.2,0.2,0.1,0.5c-0.1,0.4-2.1,8.6-2.4,10c-1.3-0.1-15.7-0.2-20.3-0.2c-5,0-6.8,0.2-7.4,0.2c-0.4,0-0.4-0.1-0.4-0.5v-1.2
		c0-0.2,0-0.4,0.3-0.4h1.5c1.9,0,2.2-0.7,2.2-1.2c0-1,0.1-13.4,0.1-16.5v-2.8c0-3.2-0.1-8.5-0.1-9.3c-0.1-1.3-0.4-1.8-1.5-1.8h-1.9
		c-0.3,0-0.3-0.2-0.3-0.5v-1.2c0-0.2,0-0.3,0.3-0.3c0.6,0,2.4,0.1,6.9,0.1c5.9,0,8-0.1,8.4-0.1c0.4,0,0.5,0.1,0.5,0.5v1.1
		c0,0.2-0.1,0.4-0.5,0.4h-2.4c-1.5,0-1.8,0.5-1.8,1.8c0,0.7-0.1,8.2-0.1,11.7V193.4z"/>
</g>
<g class="st1">
	<path class="st0" d="M406.7,189.9c2.3,0,4.5-0.1,5.1-0.3c0.8-0.2,1.5-0.7,2.3-1.5c0.5-0.8,1.2-2.2,1.2-3.1c0-0.3,0.1-0.5,0.4-0.5
		l1.4,0.2c0.2,0,0.5,0.1,0.4,0.4c-0.1,0.9-0.1,3.5-0.1,5.2c0,2.2,0.2,4.7,0.3,5.7c0,0.3-0.2,0.3-0.4,0.4l-1.2,0.2
		c-0.2,0.1-0.3,0-0.4-0.4c-0.2-0.8-0.7-2-1-2.6c-0.5-0.9-1.8-1.6-2.8-1.8c-1.4-0.2-2.9-0.3-5.1-0.3v3c0,2.7,0.2,7.6,0.2,8.5
		c0,2.6,0.5,3.5,1.2,3.8c0.8,0.3,1.7,0.5,4.2,0.5c0.8,0,3,0,4-0.2c1-0.1,2.5-0.6,3.8-1.6c1.3-1.1,4.1-4.2,5.1-5.4
		c0.2-0.2,0.4-0.2,0.5-0.2l0.9,0.5c0.2,0.1,0.2,0.2,0.2,0.4l-2.3,7.6c-0.1,0.4-0.5,0.8-1.1,0.8c-0.2,0-1.4-0.1-4.6-0.1
		c-3.2,0-8.5,0-17.2,0c-1.9,0-3.3,0-4.3,0c-1,0-1.7,0.1-2.1,0.1c-0.4,0-0.5-0.2-0.5-0.6v-1c0-0.3,0.1-0.5,0.5-0.5h1.5
		c2.3,0,2.5-0.3,2.5-2.1v-16.8c0-4.2-0.1-10.3-0.2-10.8c-0.2-1.6-0.7-2-2-2h-2c-0.2,0-0.2-0.2-0.2-0.5v-1.2c0-0.2,0-0.3,0.4-0.3
		c1.1,0,2.8,0.1,7.4,0.1l17.6,0c0.8,0,1.8-0.1,2-0.1s0.3,0.1,0.4,0.2c0.2,0.7,1.8,7.5,2,8c0.1,0.2,0.1,0.4-0.2,0.5l-0.8,0.4
		c-0.2,0.1-0.5,0-0.6-0.2c-0.2-0.4-4.8-4.9-5.9-5.6c-1.1-0.6-2.5-1.3-3.8-1.3l-6.6-0.2L406.7,189.9z"/>
</g>
<g class="st1">
	<path class="st2" d="M406.7,189.9c2.3,0,4.5-0.1,5.1-0.3c0.8-0.2,1.5-0.7,2.3-1.5c0.5-0.8,1.2-2.2,1.2-3.1c0-0.3,0.1-0.5,0.4-0.5
		l1.4,0.2c0.2,0,0.5,0.1,0.4,0.4c-0.1,0.9-0.1,3.5-0.1,5.2c0,2.2,0.2,4.7,0.3,5.7c0,0.3-0.2,0.3-0.4,0.4l-1.2,0.2
		c-0.2,0.1-0.3,0-0.4-0.4c-0.2-0.8-0.7-2-1-2.6c-0.5-0.9-1.8-1.6-2.8-1.8c-1.4-0.2-2.9-0.3-5.1-0.3v3c0,2.7,0.2,7.6,0.2,8.5
		c0,2.6,0.5,3.5,1.2,3.8c0.8,0.3,1.7,0.5,4.2,0.5c0.8,0,3,0,4-0.2c1-0.1,2.5-0.6,3.8-1.6c1.3-1.1,4.1-4.2,5.1-5.4
		c0.2-0.2,0.4-0.2,0.5-0.2l0.9,0.5c0.2,0.1,0.2,0.2,0.2,0.4l-2.3,7.6c-0.1,0.4-0.5,0.8-1.1,0.8c-0.2,0-1.4-0.1-4.6-0.1
		c-3.2,0-8.5,0-17.2,0c-1.9,0-3.3,0-4.3,0c-1,0-1.7,0.1-2.1,0.1c-0.4,0-0.5-0.2-0.5-0.6v-1c0-0.3,0.1-0.5,0.5-0.5h1.5
		c2.3,0,2.5-0.3,2.5-2.1v-16.8c0-4.2-0.1-10.3-0.2-10.8c-0.2-1.6-0.7-2-2-2h-2c-0.2,0-0.2-0.2-0.2-0.5v-1.2c0-0.2,0-0.3,0.4-0.3
		c1.1,0,2.8,0.1,7.4,0.1l17.6,0c0.8,0,1.8-0.1,2-0.1s0.3,0.1,0.4,0.2c0.2,0.7,1.8,7.5,2,8c0.1,0.2,0.1,0.4-0.2,0.5l-0.8,0.4
		c-0.2,0.1-0.5,0-0.6-0.2c-0.2-0.4-4.8-4.9-5.9-5.6c-1.1-0.6-2.5-1.3-3.8-1.3l-6.6-0.2L406.7,189.9z"/>
</g>
<g class="st1">
	<path class="st0" d="M434.3,188.1c0-1.2-0.2-10.2-0.2-10.9c-0.1-1.2-0.6-1.7-1.7-1.7H430c-0.3,0-0.4-0.1-0.4-0.3v-1.5
		c0-0.2,0.1-0.3,0.3-0.3c0.6,0,3.2,0.1,8.1,0.1c5.1,0,6.7-0.1,7.4-0.1c0.2,0,0.3,0.1,0.3,0.4v1.2c0,0.3-0.1,0.4-0.4,0.4h-1.5
		c-1.2,0-2,0.4-2,1.3c0,0.5-0.2,11.6-0.2,12.2v3.8c0,0.5,0.2,12.1,0.2,12.5c0,1.5,0.8,1.8,1.7,1.8h2c0.2,0,0.4,0.1,0.4,0.4v1.4
		c0,0.2-0.2,0.3-0.5,0.3c-0.6,0-2.6-0.2-7.4-0.2c-5.2,0-7.4,0.2-8,0.2c-0.2,0-0.4-0.1-0.4-0.4v-1.3c0-0.2,0.2-0.3,0.4-0.3h1.5
		c1,0,2-0.1,2.2-1.3c0.1-0.8,0.2-11.6,0.2-14.2V188.1z"/>
</g>
<g class="st1">
	<path class="st2" d="M434.3,188.1c0-1.2-0.2-10.2-0.2-10.9c-0.1-1.2-0.6-1.7-1.7-1.7H430c-0.3,0-0.4-0.1-0.4-0.3v-1.5
		c0-0.2,0.1-0.3,0.3-0.3c0.6,0,3.2,0.1,8.1,0.1c5.1,0,6.7-0.1,7.4-0.1c0.2,0,0.3,0.1,0.3,0.4v1.2c0,0.3-0.1,0.4-0.4,0.4h-1.5
		c-1.2,0-2,0.4-2,1.3c0,0.5-0.2,11.6-0.2,12.2v3.8c0,0.5,0.2,12.1,0.2,12.5c0,1.5,0.8,1.8,1.7,1.8h2c0.2,0,0.4,0.1,0.4,0.4v1.4
		c0,0.2-0.2,0.3-0.5,0.3c-0.6,0-2.6-0.2-7.4-0.2c-5.2,0-7.4,0.2-8,0.2c-0.2,0-0.4-0.1-0.4-0.4v-1.3c0-0.2,0.2-0.3,0.4-0.3h1.5
		c1,0,2-0.1,2.2-1.3c0.1-0.8,0.2-11.6,0.2-14.2V188.1z"/>
</g>
<g class="st1">
	<path class="st0" d="M455.4,186.1c0-1.3-0.2-8.4-0.2-9.2c-0.2-1.2-0.8-1.4-1.7-1.4H451c-0.2,0-0.4,0-0.4-0.4v-1.4
		c0-0.2,0.1-0.2,0.3-0.2c0.7,0,2.9,0.1,7.9,0.1c1.3,0,6.3-0.1,7.5-0.1c6.8,0,12.2,0.6,17,4.5c3.3,2.8,5.6,6.9,5.6,12.7
		c0,5.8-1.7,9.5-5,13.2c-4.9,5.2-13.4,5.3-16.6,5.3c-0.8,0-6.7-0.2-9.5-0.2c-4.4,0-6.4,0.2-7.1,0.2c-0.2,0-0.3-0.1-0.3-0.5v-1.3
		c0-0.2,0.2-0.3,0.4-0.3h2.6c1,0,1.5-0.4,1.6-1.2c0.1-1,0.3-12.3,0.3-16.1V186.1z M462.9,191c0,0.7,0.1,9.2,0.1,12.3
		c0,1,0.2,1.8,0.8,2.8c0.6,0.9,2.3,1.2,4,1.2c2.9,0,6.8-1.5,9.4-4.9c2-2.6,3.5-6.8,3.5-11.4c0-4.1-1.7-8.3-4-10.9
		c-2.7-3-7.1-4.6-10-4.6c-1.4,0-2.2,0.1-2.8,0.4c-0.8,0.3-1,1.2-1,2.2c-0.1,2.1-0.1,8.7-0.1,9.5V191z"/>
</g>
<g class="st1">
	<path class="st2" d="M455.4,186.1c0-1.3-0.2-8.4-0.2-9.2c-0.2-1.2-0.8-1.4-1.7-1.4H451c-0.2,0-0.4,0-0.4-0.4v-1.4
		c0-0.2,0.1-0.2,0.3-0.2c0.7,0,2.9,0.1,7.9,0.1c1.3,0,6.3-0.1,7.5-0.1c6.8,0,12.2,0.6,17,4.5c3.3,2.8,5.6,6.9,5.6,12.7
		c0,5.8-1.7,9.5-5,13.2c-4.9,5.2-13.4,5.3-16.6,5.3c-0.8,0-6.7-0.2-9.5-0.2c-4.4,0-6.4,0.2-7.1,0.2c-0.2,0-0.3-0.1-0.3-0.5v-1.3
		c0-0.2,0.2-0.3,0.4-0.3h2.6c1,0,1.5-0.4,1.6-1.2c0.1-1,0.3-12.3,0.3-16.1V186.1z M462.9,191c0,0.7,0.1,9.2,0.1,12.3
		c0,1,0.2,1.8,0.8,2.8c0.6,0.9,2.3,1.2,4,1.2c2.9,0,6.8-1.5,9.4-4.9c2-2.6,3.5-6.8,3.5-11.4c0-4.1-1.7-8.3-4-10.9
		c-2.7-3-7.1-4.6-10-4.6c-1.4,0-2.2,0.1-2.8,0.4c-0.8,0.3-1,1.2-1,2.2c-0.1,2.1-0.1,8.7-0.1,9.5V191z"/>
</g>
<g>
	<g class="st1">
		<path class="st0" d="M496.8,188.1c0-1.2-0.2-10.2-0.2-10.9c-0.1-1.2-0.6-1.7-1.7-1.7h-2.4c-0.3,0-0.4-0.1-0.4-0.3v-1.5
			c0-0.2,0.1-0.3,0.3-0.3c0.6,0,3.2,0.1,8.1,0.1c5.1,0,6.7-0.1,7.4-0.1c0.2,0,0.3,0.1,0.3,0.4v1.2c0,0.3-0.1,0.4-0.4,0.4h-1.5
			c-1.2,0-2,0.4-2,1.3c0,0.5-0.2,11.6-0.2,12.2v3.8c0,0.5,0.2,12.1,0.2,12.5c0,1.5,0.8,1.8,1.7,1.8h2c0.2,0,0.4,0.1,0.4,0.4v1.4
			c0,0.2-0.2,0.3-0.5,0.3c-0.6,0-2.6-0.2-7.4-0.2c-5.2,0-7.4,0.2-8,0.2c-0.2,0-0.4-0.1-0.4-0.4v-1.3c0-0.2,0.2-0.3,0.4-0.3h1.5
			c1,0,2-0.1,2.2-1.3c0.1-0.8,0.2-11.6,0.2-14.2V188.1z"/>
	</g>
	<g class="st1">
		<path class="st2" d="M496.8,188.1c0-1.2-0.2-10.2-0.2-10.9c-0.1-1.2-0.6-1.7-1.7-1.7h-2.4c-0.3,0-0.4-0.1-0.4-0.3v-1.5
			c0-0.2,0.1-0.3,0.3-0.3c0.6,0,3.2,0.1,8.1,0.1c5.1,0,6.7-0.1,7.4-0.1c0.2,0,0.3,0.1,0.3,0.4v1.2c0,0.3-0.1,0.4-0.4,0.4h-1.5
			c-1.2,0-2,0.4-2,1.3c0,0.5-0.2,11.6-0.2,12.2v3.8c0,0.5,0.2,12.1,0.2,12.5c0,1.5,0.8,1.8,1.7,1.8h2c0.2,0,0.4,0.1,0.4,0.4v1.4
			c0,0.2-0.2,0.3-0.5,0.3c-0.6,0-2.6-0.2-7.4-0.2c-5.2,0-7.4,0.2-8,0.2c-0.2,0-0.4-0.1-0.4-0.4v-1.3c0-0.2,0.2-0.3,0.4-0.3h1.5
			c1,0,2-0.1,2.2-1.3c0.1-0.8,0.2-11.6,0.2-14.2V188.1z"/>
	</g>
</g>
<g class="st1">
	<path class="st0" d="M545.8,194.5c0-4.5,0-6.9-0.1-9.4c0-2-0.3-6.9-0.5-7.6c-0.3-1.2-1.5-2-2.7-2h-1.6c-0.2,0-0.3-0.2-0.3-0.5v-1.2
		c0-0.2,0.1-0.3,0.5-0.3c0.6,0,2.2,0.1,5.9,0.1c3,0,4.2-0.1,4.8-0.1c0.5,0,0.5,0.1,0.5,0.4v1.2c0,0.2,0,0.5-0.2,0.5h-1.4
		c-0.9,0-1.4,0.8-1.5,2.7c-0.4,3.3-1.2,14.7-1.2,21.3v8.6c0,0.8,0,1.6-0.8,1.6c-0.8,0-1.4-0.2-2-0.8c-0.8-0.8-3.3-3.5-6.3-7
		l-8.5-10.2c-0.9-1-7.8-9.6-8.9-11.3H521v10.1c0,4.2,0.5,10.3,0.5,12.2c0.1,2.9,1,4.4,3.1,4.4h1.3c0.3,0,0.4,0.2,0.4,0.5v1.2
		c0,0.3,0,0.4-0.4,0.4c-0.5,0-3.5-0.2-5.9-0.2c-1.5,0-5,0.2-5.5,0.2c-0.2,0-0.2-0.1-0.2-0.5v-1.3c0-0.2,0.1-0.3,0.3-0.3h1.8
		c1.1,0,1.9-1.6,2.2-5c0-1,0.4-9,0.4-16.4v-4.5c0-3-1.8-5.8-4.3-5.8l-1.2,0c-0.2,0-0.3-0.2-0.3-0.4v-1.3c0-0.2,0-0.3,0.3-0.3
		s0.6,0,1.6,0c1,0,2.6,0.1,5.2,0.1c1.7,0,3.2-0.1,3.8-0.1c0.6,0,1,0.2,1.5,0.6l11.6,14.2l8.6,10.7h0.2V194.5z"/>
	<path class="st0" d="M590.3,204.2c0,0.7,0.2,1.2,0.2,1.6c0,0.4-0.3,0.6-0.8,0.8c-4,2-8.3,3.2-14.7,3.2c-5.2,0-11.1-1.7-14.5-5.7
		c-3.1-3.5-4.6-7.7-4.6-13.8c0-4.5,2.2-9.4,5.8-12.6c3.7-3.2,8.2-4.9,14.2-4.9c5.1,0,8.8,1.4,10.5,2.5c0.6,0.4,0.9,0.2,1.2-0.2
		l0.5-0.8c0.2-0.3,0.3-0.5,0.6-0.5c0.6,0,0.7,0.4,0.7,0.9l0.8,10.3c0,0.6,0,0.8-0.2,0.9l-1.4,0.3c-0.3,0-0.5-0.1-0.6-0.5
		c-0.8-2.5-2.4-5.7-4.5-7.6c-2-1.9-4.5-3.1-7.9-3.1c-2.7,0-5.2,0.9-7.6,3.8c-2.3,2.8-4,6.9-4,11.4c0,5.9,1.7,11.1,4.3,13.8
		c2.4,2.4,4.3,3.4,7.7,3.4c2.6,0,4-0.2,5.7-1c1-0.5,1.1-2.1,1.1-4.7v-3.6c0-1.8-0.5-2.3-1.8-2.3h-2.1c-0.3,0-0.4-0.2-0.4-0.5v-1.2
		c0-0.2,0-0.3,0.4-0.3c0.4,0,2.9,0.1,7.4,0.1c4.6,0,6.5-0.1,6.8-0.1c0.4,0,0.5,0.1,0.5,0.4v1.3c0,0.3,0,0.4-0.3,0.4h-1.5
		c-0.9,0-1.5,0.4-1.5,1.8V204.2z"/>
</g>
<g class="st1">
	<path class="st2" d="M545.8,194.5c0-4.5,0-6.9-0.1-9.4c0-2-0.3-6.9-0.5-7.6c-0.3-1.2-1.5-2-2.7-2h-1.6c-0.2,0-0.3-0.2-0.3-0.5v-1.2
		c0-0.2,0.1-0.3,0.5-0.3c0.6,0,2.2,0.1,5.9,0.1c3,0,4.2-0.1,4.8-0.1c0.5,0,0.5,0.1,0.5,0.4v1.2c0,0.2,0,0.5-0.2,0.5h-1.4
		c-0.9,0-1.4,0.8-1.5,2.7c-0.4,3.3-1.2,14.7-1.2,21.3v8.6c0,0.8,0,1.6-0.8,1.6c-0.8,0-1.4-0.2-2-0.8c-0.8-0.8-3.3-3.5-6.3-7
		l-8.5-10.2c-0.9-1-7.8-9.6-8.9-11.3H521v10.1c0,4.2,0.5,10.3,0.5,12.2c0.1,2.9,1,4.4,3.1,4.4h1.3c0.3,0,0.4,0.2,0.4,0.5v1.2
		c0,0.3,0,0.4-0.4,0.4c-0.5,0-3.5-0.2-5.9-0.2c-1.5,0-5,0.2-5.5,0.2c-0.2,0-0.2-0.1-0.2-0.5v-1.3c0-0.2,0.1-0.3,0.3-0.3h1.8
		c1.1,0,1.9-1.6,2.2-5c0-1,0.4-9,0.4-16.4v-4.5c0-3-1.8-5.8-4.3-5.8l-1.2,0c-0.2,0-0.3-0.2-0.3-0.4v-1.3c0-0.2,0-0.3,0.3-0.3
		s0.6,0,1.6,0c1,0,2.6,0.1,5.2,0.1c1.7,0,3.2-0.1,3.8-0.1c0.6,0,1,0.2,1.5,0.6l11.6,14.2l8.6,10.7h0.2V194.5z"/>
	<path class="st2" d="M590.3,204.2c0,0.7,0.2,1.2,0.2,1.6c0,0.4-0.3,0.6-0.8,0.8c-4,2-8.3,3.2-14.7,3.2c-5.2,0-11.1-1.7-14.5-5.7
		c-3.1-3.5-4.6-7.7-4.6-13.8c0-4.5,2.2-9.4,5.8-12.6c3.7-3.2,8.2-4.9,14.2-4.9c5.1,0,8.8,1.4,10.5,2.5c0.6,0.4,0.9,0.2,1.2-0.2
		l0.5-0.8c0.2-0.3,0.3-0.5,0.6-0.5c0.6,0,0.7,0.4,0.7,0.9l0.8,10.3c0,0.6,0,0.8-0.2,0.9l-1.4,0.3c-0.3,0-0.5-0.1-0.6-0.5
		c-0.8-2.5-2.4-5.7-4.5-7.6c-2-1.9-4.5-3.1-7.9-3.1c-2.7,0-5.2,0.9-7.6,3.8c-2.3,2.8-4,6.9-4,11.4c0,5.9,1.7,11.1,4.3,13.8
		c2.4,2.4,4.3,3.4,7.7,3.4c2.6,0,4-0.2,5.7-1c1-0.5,1.1-2.1,1.1-4.7v-3.6c0-1.8-0.5-2.3-1.8-2.3h-2.1c-0.3,0-0.4-0.2-0.4-0.5v-1.2
		c0-0.2,0-0.3,0.4-0.3c0.4,0,2.9,0.1,7.4,0.1c4.6,0,6.5-0.1,6.8-0.1c0.4,0,0.5,0.1,0.5,0.4v1.3c0,0.3,0,0.4-0.3,0.4h-1.5
		c-0.9,0-1.5,0.4-1.5,1.8V204.2z"/>
</g>
</svg>
