<?xml version="1.0" standalone="no"?>
<!DOCTYPE svg PUBLIC "-//W3C//DTD SVG 20010904//EN"
 "http://www.w3.org/TR/2001/REC-SVG-20010904/DTD/svg10.dtd">
<svg version="1.0" xmlns="http://www.w3.org/2000/svg"
 width="70.000000pt" height="70.000000pt" viewBox="0 0 70.000000 70.000000"
 preserveAspectRatio="xMidYMid meet">
<metadata>
Created by potrace 1.11, written by Peter Selinger 2001-2013
</metadata>
<g transform="translate(0.000000,70.000000) scale(0.100000,-0.100000)"
fill="#000000" stroke="none">
<path d="M308 575 c-38 -21 -58 -64 -58 -123 0 -63 23 -93 100 -132 64 -32 88
-69 71 -111 -28 -74 -123 -73 -147 1 -19 57 -34 49 -34 -19 l0 -60 38 -10 c52
-15 78 -14 119 6 47 22 73 66 73 126 0 74 -18 98 -104 142 -57 30 -81 65 -69
101 22 66 104 70 132 6 22 -48 35 -39 28 19 -4 29 -9 54 -12 57 -13 14 -112
11 -137 -3z"/>
</g>
</svg>
