<?xml version="1.0" encoding="utf-8"?>
<!-- Generator: Adobe Illustrator 19.1.0, SVG Export Plug-In . SVG Version: 6.00 Build 0)  -->
<svg version="1.1" id="Layer_1" xmlns="http://www.w3.org/2000/svg" xmlns:xlink="http://www.w3.org/1999/xlink" x="0px" y="0px"
	 width="560px" height="275px" viewBox="0 0 560 275" enable-background="new 0 0 560 275" xml:space="preserve">
<g>
	<path fill="#434343" d="M19.5,50.8c0.4,0,0.7,0.1,0.7,0.8c0.2,2.9,1.5,7,3.8,10.7c2.7,4.3,7.4,6.4,11.9,6.4s11.8-3,11.8-10.5
		c0-7.8-1.5-10.1-13.8-14.7c-2.8-1-8.9-4.1-13.7-8.2c-3.3-2.9-4.7-7.9-4.7-13.4c0-5.8,1.4-9.6,7.1-13.9c4.2-3.2,7.8-4.5,13.6-4.5
		c6.9,0,10.6,1.1,12.5,1.9c0.9,0.4,1.6,0.2,2.2-0.5L52,3.6c0.4-0.4,0.8-0.6,1.4-0.6c0.7,0,0.8,1,0.9,1.6l1.5,16.1
		c0,0.4-0.2,0.5-0.5,0.6L53.3,22c-0.5,0.2-0.9,0-1.2-0.7c-1-2.7-2.6-6.4-5.8-9.8c-2.4-2.6-5.2-4-9.4-4c-7.1,0-10,6.1-10,8.6
		c0,3.5,0.1,6.3,2.5,8.7c2.5,2.5,7.8,4.8,12.4,6.1c4.5,1.3,8.2,3.7,12.1,7.2c3.7,3.3,5.2,7.4,5.2,14C59,63.7,50.8,73,38.3,73
		c-8.5,0-12.9-1.4-16.9-4.1c-1.1-0.8-1.7-1-2.2-1c-0.6,0-0.9,0.7-1.5,1.6c-0.6,1-1,1.1-1.7,1.1c-1,0-1.4-0.5-1.3-1.5l1.5-17.9
		c0.1-0.7,0.4-0.7,0.8-0.7L19.5,50.8z"/>
	<path fill="#434343" d="M131.1,46.3c3,0,5.9-0.2,6.7-0.4c1.1-0.3,2-0.9,3-2c0.7-1,1.5-2.8,1.5-4.1c0-0.5,0.2-0.6,0.5-0.6l1.8,0.2
		c0.3,0.1,0.6,0.1,0.5,0.5c-0.2,1.1-0.2,4.6-0.2,6.9c0,3,0.3,6.1,0.4,7.5c0.1,0.4-0.2,0.5-0.5,0.5l-1.6,0.3
		c-0.3,0.1-0.4-0.1-0.5-0.5c-0.3-1.1-0.9-2.6-1.3-3.4c-0.7-1.3-2.3-2.1-3.6-2.3c-1.8-0.3-3.8-0.4-6.7-0.4v4c0,3.6,0.3,10,0.3,11.2
		c0,3.4,0.7,4.6,1.6,5c1,0.4,2.2,0.6,5.5,0.6c1.1,0,3.9-0.1,5.3-0.2c1.3-0.1,3.3-0.8,5-2.2c1.7-1.4,5.4-5.5,6.7-7.1
		c0.3-0.3,0.5-0.3,0.7-0.2l1.1,0.7c0.3,0.1,0.3,0.3,0.3,0.5l-3,10c-0.2,0.6-0.7,1-1.5,1c-0.3,0-1.8-0.1-6-0.1
		c-4.3,0-11.3-0.1-22.7-0.1c-2.4,0-4.3,0.1-5.6,0.1c-1.4,0.1-2.2,0.1-2.8,0.1c-0.5,0-0.6-0.2-0.6-0.7v-1.4c0-0.4,0.2-0.6,0.7-0.6h2
		c3,0,3.3-0.5,3.3-2.8V44.2c0-5.5-0.1-13.6-0.2-14.3c-0.3-2.1-0.9-2.6-2.7-2.6h-2.6c-0.3,0-0.3-0.2-0.3-0.7v-1.6
		c0-0.2,0.1-0.5,0.5-0.5c1.5,0,3.8,0.2,9.8,0.2l23.2-0.1c1.1,0,2.3-0.1,2.6-0.1s0.5,0.1,0.5,0.3c0.3,0.9,2.4,10,2.7,10.6
		c0.1,0.3,0.1,0.5-0.2,0.7l-1.1,0.5c-0.3,0.1-0.6,0.1-0.8-0.3c-0.3-0.5-6.3-6.5-7.8-7.4c-1.4-0.9-3.2-1.7-5-1.8l-8.7-0.3L131.1,46.3
		z"/>
	<path fill="#434343" d="M163.1,45.6c0-4.1-0.1-13-0.1-13.9c0-3.4-0.5-4.3-2.2-4.3H158c-0.7,0-0.8-0.3-0.8-0.7v-1.3
		c0-0.4,0.1-0.8,0.7-0.8c1.1,0,3.2,0.2,9.8,0.2c6.5,0,8.8-0.2,10-0.2c0.7,0,0.8,0.2,0.8,0.7v1.4c0,0.4-0.1,0.6-0.8,0.6h-1.6
		c-2.4,0-2.7,1.1-2.9,3.6c-0.1,0.9-0.4,9.6-0.4,13.3v1c0,0.3,0.2,0.5,1.1,0.5h19.7c1,0,1.3-0.1,1.3-0.9v-0.7
		c0-3.8-0.5-12.9-0.5-13.6c-0.1-2.1-0.3-3.4-1.5-3.4h-2.7c-0.6,0-0.7-0.2-0.7-0.7v-1.5c0-0.4,0.1-0.6,0.6-0.6c1.2,0,4,0.2,9.6,0.2
		c5.5,0,8.2-0.2,9.1-0.2c0.8,0,0.9,0.2,0.9,0.7v1.3c0,0.5-0.1,0.7-0.9,0.7h-2c-1.9,0-2.1,1.1-2.1,3.4c0,0.9-0.1,12.1-0.1,14.5v2.2
		c0,2.1,0.1,14.7,0.2,18.3c0,2.4,0.7,3.3,2.6,3.3h2.2c0.5,0,0.6,0.2,0.6,0.6v1.5c0,0.3-0.1,0.7-0.7,0.7c-1.1,0-3.3-0.2-9.2-0.2
		c-6.7,0-8.8,0.2-10.4,0.2c-0.7,0-0.9-0.3-0.9-0.7v-1.5c0-0.4,0.1-0.6,0.7-0.6h2.9c1.6,0,1.8-1.3,1.8-2.9c0.1-3.1,0.3-13.7,0.3-15.8
		v-0.8c0-0.7-0.7-0.8-1.5-0.8h-19.7c-0.7,0-0.9,0.2-0.9,0.8v1c0,1.7,0.3,11.8,0.5,16.3c0.1,1.6,0.7,2.2,2.2,2.2h1.8
		c0.5,0,0.6,0.1,0.6,0.5v1.6c0,0.4-0.1,0.6-0.6,0.6c-1.2,0-3.5-0.2-9-0.2c-7,0-9,0.2-10.3,0.2c-0.6,0-0.7-0.2-0.7-0.7v-1.4
		c0-0.5,0.1-0.6,0.7-0.6h3c1.6,0,1.8-1.6,1.8-3c0.1-3.1,0.2-15.9,0.2-17.6V45.6z"/>
	<path fill="#434343" d="M228.7,46.3c3,0,5.9-0.2,6.7-0.4c1.1-0.3,2-0.9,3-2c0.7-1,1.5-2.8,1.5-4.1c0-0.5,0.2-0.6,0.5-0.6l1.8,0.2
		c0.3,0.1,0.6,0.1,0.5,0.5c-0.2,1.1-0.2,4.6-0.2,6.9c0,3,0.3,6.1,0.4,7.5c0.1,0.4-0.2,0.5-0.5,0.5l-1.6,0.3
		c-0.3,0.1-0.4-0.1-0.5-0.5c-0.3-1.1-0.9-2.6-1.3-3.4c-0.7-1.3-2.3-2.1-3.6-2.3c-1.8-0.3-3.8-0.4-6.7-0.4v4c0,3.6,0.3,10,0.3,11.2
		c0,3.4,0.7,4.6,1.6,5c1,0.4,2.2,0.6,5.5,0.6c1.1,0,3.9-0.1,5.3-0.2c1.3-0.1,3.3-0.8,5-2.2c1.7-1.4,5.4-5.5,6.7-7.1
		c0.3-0.3,0.5-0.3,0.7-0.2l1.1,0.7c0.3,0.1,0.3,0.3,0.3,0.5l-3,10c-0.2,0.6-0.7,1-1.5,1c-0.3,0-1.8-0.1-6-0.1
		c-4.3,0-11.3-0.1-22.7-0.1c-2.4,0-4.3,0.1-5.6,0.1c-1.4,0.1-2.2,0.1-2.8,0.1c-0.5,0-0.6-0.2-0.6-0.7v-1.4c0-0.4,0.2-0.6,0.7-0.6h2
		c3,0,3.3-0.5,3.3-2.8V44.2c0-5.5-0.1-13.6-0.2-14.3c-0.3-2.1-0.9-2.6-2.7-2.6h-2.6c-0.3,0-0.3-0.2-0.3-0.7v-1.6
		c0-0.2,0.1-0.5,0.5-0.5c1.5,0,3.8,0.2,9.8,0.2l23.2-0.1c1.1,0,2.3-0.1,2.6-0.1c0.3,0,0.5,0.1,0.5,0.3c0.3,0.9,2.4,10,2.7,10.6
		c0.1,0.3,0.1,0.5-0.2,0.7l-1.1,0.5c-0.3,0.1-0.6,0.1-0.8-0.3c-0.3-0.5-6.3-6.5-7.8-7.4c-1.4-0.9-3.2-1.7-5-1.8l-8.7-0.3L228.7,46.3
		z"/>
	<path fill="#434343" d="M261,41.6c0-4.9,0-9.1-0.1-10.9c-0.1-2.2-0.9-3.3-1.8-3.3h-2.6c-0.3,0-0.4-0.2-0.4-0.5v-1.8
		c0-0.3,0.1-0.5,0.4-0.5c0.6,0,2.6,0.2,9.8,0.2c3.7,0,9.5-0.2,12.2-0.2c5.1,0,9,1.8,11.7,4.4c2.4,2.2,3.8,4.8,3.8,7.2
		c0,8.4-6.3,12.1-12.1,12.7v0.5c2,0.7,3.1,1.9,4.4,3.5c0.9,1.1,4.5,6.9,5,7.7c0.4,0.6,4,5.6,5.3,7.1c0.8,0.9,3.3,1.4,4.8,1.4
		c0.5,0,0.5,0.3,0.5,0.5v1.6c0,0.4-0.1,0.6-0.5,0.6c-0.5,0-2.2-0.2-7.3-0.2c-1.9,0-4.4,0.1-6.3,0.2c-2-1.5-6.1-9.2-7.2-11.4
		c-2.2-4.5-5-9.4-8.1-9.4h-2.2v3.4c0,3.9,0.2,11.3,0.3,12.1c0.1,1.4,0.7,2.6,1.6,2.6h2.7c0.5,0,0.5,0.2,0.5,0.5v1.6
		c0,0.5-0.1,0.6-1.1,0.6c-0.1,0-1.7-0.2-8.6-0.2c-7,0-8.5,0.2-9.2,0.2c-0.5,0-0.5-0.2-0.5-0.7v-1.5c0-0.3,0-0.5,0.3-0.5h2
		c1.5,0,2.6-0.5,2.6-2.1c0.1-6.5,0.1-12.7,0.1-19V41.6z M270.2,48.7c1.3,0.1,2,0.1,2.6,0.1c8.7,0,10.8-8.3,10.8-11.4
		c0-3-1.1-5.9-2.5-7.4c-2.4-2.1-5.3-2.9-7.3-2.9c-1.1,0-2,0.1-2.5,0.6c-0.4,0.3-0.6,1-0.7,1.8L270.2,48.7z"/>
	<path fill="#434343" d="M319,53.5c-0.5,1.4-3.8,10.4-3.8,12.5c0,1.5,0.6,3,2.6,3h2.3c0.7,0,0.7,0.3,0.7,0.5v1.5
		c0,0.5-0.1,0.7-0.6,0.7c-0.9,0-3.6-0.2-9-0.2c-4.8,0-6.3,0.2-7.2,0.2c-0.4,0-0.5-0.4-0.5-0.9v-1.3c0-0.4,0.1-0.6,0.5-0.6h1.7
		c1.6,0,3.2-0.9,4.5-2.9c0.9-1.4,5.6-12.9,7.8-18.7c0.5-1.3,5.9-15.5,6.5-17.3c0.2-0.7,0.5-1.5,0.1-2.2c-0.2-0.3-0.5-0.6-0.5-0.9
		c0-0.2,0.1-0.5,0.7-0.6c2.1-0.5,6.4-2.2,7.4-3.3c0.3-0.3,0.5-0.6,0.9-0.6c0.4,0,0.5,0.4,0.7,1.1c1.3,4.2,6.4,18.9,7.7,23.2
		c1.5,5.1,5.8,17.4,6.7,19.2c1.1,2.2,2.8,3,3.8,3h2.2c0.4,0,0.5,0.3,0.5,0.6V71c0,0.4-0.1,0.9-0.6,0.9c-1.3,0-2.6-0.2-11.1-0.2
		c-5.5,0-7.8,0.2-9.1,0.2c-0.7,0-0.7-0.4-0.7-0.9v-1.3c0-0.3,0.1-0.6,0.4-0.6h1.8c1.8,0,2.4-0.7,2-2.4c-0.6-2.4-3.2-10.8-4-13.2H319
		z M332.8,50.9l-4.9-17.5c-0.3-1-0.4-1.5-0.7-1.5c-0.4,0-0.6,0.3-0.8,0.9c-0.3,0.9-6,16.4-6.5,18.1H332.8z"/>
	<path fill="#434343" d="M373.2,27.3c-0.9,0-2,0.1-3.7,1.3c-1.4,0.9-7.1,7.3-8.4,9.1c-0.2,0.3-0.5,0.5-0.8,0.4l-1.1-0.6
		c-0.2-0.1-0.3-0.3-0.2-0.6l4.2-11.7c0.2-0.6,0.6-0.7,0.9-0.7c0.5,0,1,0.1,1.5,0.1c3.1,0.4,12.4,0.4,17.9,0.4c4,0,7.5-0.1,10-0.2
		c2.2-0.1,4.4-0.2,4.8-0.2c1.1,0,1.5,0.9,0.9,1.6c-0.5,0.6-29.4,41.1-30.8,42.9h15.9c1.8,0,3.2,0,4.9-0.7c1.9-0.9,8.4-7.7,9.3-8.8
		c0.3-0.3,0.5-0.3,0.9-0.2l1.1,0.6c0.2,0.1,0.3,0.3,0.1,0.6c-0.9,1.5-4.1,9.6-5,11.4c-0.1,0.3-0.5,0.7-0.9,0.7
		c-0.3,0-0.8-0.1-1.6-0.2c-3.6-0.5-14.1-0.7-20.1-0.7h-15.4c-0.5,0-1.3,0-1.3-0.5c0-0.4,0.1-0.9,0.3-1.3
		c2.7-4.2,29.8-41.7,30.3-42.5H373.2z"/>
	<path fill="#434343" d="M457.2,41.3c0-1.7-0.2-11.1-0.3-12.1c-0.2-1.6-1.1-1.8-2.2-1.8h-3.3c-0.3,0-0.5-0.1-0.5-0.5V25
		c0-0.3,0.2-0.3,0.5-0.3c0.9,0,3.8,0.2,10.4,0.2c1.7,0,8.3-0.2,9.8-0.2c9,0,16.1,0.8,22.4,6c4.4,3.6,7.4,9.1,7.4,16.8
		c0,7.6-2.2,12.6-6.5,17.4c-6.4,6.9-17.7,7-21.8,7c-1.1,0-8.8-0.2-12.5-0.2c-5.7,0-8.4,0.2-9.3,0.2c-0.3,0-0.5-0.1-0.5-0.6v-1.7
		c0-0.3,0.2-0.4,0.5-0.4h3.4c1.3,0,2-0.5,2.1-1.6c0.2-1.4,0.5-16.2,0.5-21.3V41.3z M467.1,47.7c0,0.9,0.1,12.1,0.1,16.2
		c0,1.3,0.3,2.4,1.1,3.6c0.8,1.2,3,1.6,5.3,1.6c3.8,0,8.9-1.9,12.3-6.5c2.6-3.5,4.7-8.9,4.7-15c0-5.4-2.2-11-5.3-14.4
		c-3.5-3.9-9.3-6-13.1-6c-1.8,0-2.8,0.1-3.7,0.5c-1,0.5-1.3,1.5-1.3,2.8c-0.1,2.8-0.1,11.4-0.1,12.5V47.7z"/>
	<path fill="#434343" d="M515.4,46.3c3,0,5.9-0.2,6.7-0.4c1.1-0.3,2-0.9,3-2c0.7-1,1.5-2.8,1.5-4.1c0-0.5,0.2-0.6,0.5-0.6l1.8,0.2
		c0.3,0.1,0.6,0.1,0.5,0.5c-0.2,1.1-0.2,4.6-0.2,6.9c0,3,0.3,6.1,0.4,7.5c0.1,0.4-0.2,0.5-0.5,0.5l-1.6,0.3
		c-0.3,0.1-0.4-0.1-0.5-0.5c-0.3-1.1-0.9-2.6-1.3-3.4c-0.7-1.3-2.3-2.1-3.6-2.3c-1.8-0.3-3.8-0.4-6.7-0.4v4c0,3.6,0.3,10,0.3,11.2
		c0,3.4,0.7,4.6,1.6,5c1,0.4,2.2,0.6,5.5,0.6c1.1,0,3.9-0.1,5.3-0.2c1.3-0.1,3.3-0.8,5-2.2c1.7-1.4,5.4-5.5,6.7-7.1
		c0.3-0.3,0.5-0.3,0.7-0.2l1.1,0.7c0.3,0.1,0.3,0.3,0.3,0.5l-3,10c-0.2,0.6-0.7,1-1.5,1c-0.3,0-1.8-0.1-6-0.1
		c-4.3,0-11.3-0.1-22.7-0.1c-2.4,0-4.3,0.1-5.6,0.1c-1.4,0.1-2.2,0.1-2.8,0.1c-0.5,0-0.6-0.2-0.6-0.7v-1.4c0-0.4,0.2-0.6,0.7-0.6h2
		c3,0,3.3-0.5,3.3-2.8V44.2c0-5.5-0.1-13.6-0.2-14.3c-0.3-2.1-0.9-2.6-2.7-2.6h-2.6c-0.3,0-0.3-0.2-0.3-0.7v-1.6
		c0-0.2,0.1-0.5,0.5-0.5c1.5,0,3.8,0.2,9.8,0.2l23.2-0.1c1.1,0,2.3-0.1,2.6-0.1c0.3,0,0.5,0.1,0.5,0.3c0.3,0.9,2.4,10,2.7,10.6
		c0.1,0.3,0.1,0.5-0.2,0.7l-1.1,0.5c-0.3,0.1-0.6,0.1-0.8-0.3c-0.3-0.5-6.3-6.5-7.8-7.4c-1.4-0.9-3.2-1.7-5-1.8l-8.7-0.3L515.4,46.3
		z"/>
	<path fill="#434343" d="M414.6,53.5c-0.5,1.4-3.8,10.4-3.8,12.5c0,1.5,0.6,3,2.6,3h2.3c0.7,0,0.7,0.3,0.7,0.5v1.5
		c0,0.5-0.1,0.7-0.6,0.7c-0.9,0-3.6-0.2-9-0.2c-4.8,0-6.3,0.2-7.2,0.2c-0.4,0-0.5-0.4-0.5-0.9v-1.3c0-0.4,0.1-0.6,0.5-0.6h1.7
		c1.6,0,3.2-0.9,4.5-2.9c0.9-1.4,5.6-12.9,7.8-18.7c0.5-1.3,5.9-15.5,6.5-17.3c0.2-0.7,0.5-1.5,0.1-2.2c-0.2-0.3-0.5-0.6-0.5-0.9
		c0-0.2,0.1-0.5,0.7-0.6c2.1-0.5,6.4-2.2,7.4-3.3c0.3-0.3,0.5-0.6,0.9-0.6c0.4,0,0.5,0.4,0.7,1.1c1.3,4.2,6.4,18.9,7.7,23.2
		c1.5,5.1,7.2,21.2,8.1,23c1.1,2.1,3.2,3.5,6.4,4.4c-21.2-4.1-37,33.9-71.2,14.6c20.9,9,35.1-11.6,52-16c2.6-0.7,1.8-2.8,1.4-4.5
		c-0.6-2.4-4-12.5-4.7-14.9H414.6z M428.4,50.9l-4.9-17.5c-0.3-1-0.4-1.5-0.7-1.5c-0.4,0-0.6,0.3-0.8,0.9c-0.3,0.9-6,16.4-6.5,18.1
		H428.4z"/>
	<path fill="#434343" d="M65.5,45.6c0-4.1-0.1-13-0.1-13.9c0-3.4-0.5-4.3-2.2-4.3h-2.7c-0.7,0-0.8-0.3-0.8-0.7v-1.3
		c0-0.4,0.1-0.8,0.7-0.8c1.1,0,3.2,0.2,9.8,0.2c6.5,0,8.8-0.2,10-0.2c0.7,0,0.8,0.2,0.8,0.7v1.4c0,0.4-0.1,0.6-0.8,0.6h-1.6
		c-2.4,0-2.7,1.1-2.9,3.6c-0.1,0.9-0.4,9.6-0.4,13.3v1c0,0.3,0.2,0.5,1.1,0.5H96c1,0,1.3-0.1,1.3-0.9v-0.7c0-3.8-0.5-12.9-0.5-13.6
		c-0.1-2.1-0.3-3.4-1.5-3.4h-2.7c-0.6,0-0.7-0.2-0.7-0.7v-1.5c0-0.4,0.1-0.6,0.6-0.6c1.2,0,4,0.2,9.6,0.2c5.5,0,8.2-0.2,9.1-0.2
		c0.8,0,0.9,0.2,0.9,0.7v1.3c0,0.5-0.1,0.7-0.9,0.7h-2c-1.9,0-2.1,1.1-2.1,3.4c0,0.9-0.1,12.1-0.1,14.5v2.2c0,0.9,0.1,12.9-0.3,19.3
		c-0.6,11.1-14.5,15.8-28.4,17.7c47.5-1,77.7,29,123.2,18.1C136.9,122,105.4,82.9,60.9,85.8C89.6,82.9,96.6,74,97.1,64.4
		c0.2-3.1,0.3-11.9,0.3-14v-0.8c0-0.7-0.7-0.8-1.5-0.8H76.1c-0.7,0-0.9,0.2-0.9,0.8v1c0,1.7,0.3,11.8,0.5,16.3
		c0.1,1.6,0.7,2.2,2.2,2.2h1.8c0.5,0,0.6,0.1,0.6,0.5v1.6c0,0.4-0.1,0.6-0.6,0.6c-1.2,0-3.5-0.2-9-0.2c-7,0-9,0.2-10.3,0.2
		c-0.6,0-0.7-0.2-0.7-0.7v-1.4c0-0.5,0.1-0.6,0.7-0.6h3c1.6,0,1.8-1.6,1.8-3c0.1-3.1,0.2-15.9,0.2-17.6V45.6z"/>
</g>
<g>
	<path fill="#434343" d="M76.3,141.1c-3.6-2.2-7.4-7.6-7.4-15c0-3.1,0.8-7.9,4.7-12.5c4.4-5.4,10.1-6.4,14.7-6.4
		c4.2,0,8.1,0.7,12.3,4c3.8,3,6.9,8.1,6.9,15.1c0,3.7-1.2,7.5-3.8,11c-3.3,4.1-7.6,7.1-15.5,7.1C84.6,144.3,80.2,143.5,76.3,141.1z
		 M99.5,126.6c0-11-7.3-17.1-11.5-17.1c-1,0-3.5-0.3-6.6,2.7c-3,2.8-4.5,8.1-4.5,12.2c0,12.9,7.4,17.5,11.6,17.5
		C97.8,142,99.5,130.7,99.5,126.6z"/>
	<path fill="#434343" d="M121.7,125.8c2,0,4-0.2,5-0.3c0.9-0.1,1.8-0.8,2.6-1.8c0.6-0.7,0.9-1.8,1.1-2.7c0.1-0.3,0.2-0.4,0.4-0.4
		l1.2,0.1c0.2,0,0.3,0.2,0.3,0.4c-0.1,0.9-0.1,5-0.1,5.7c0,1.8,0.2,4.2,0.3,5.2c0,0.3-0.1,0.4-0.4,0.4l-1.1,0.3
		c-0.2,0-0.4-0.1-0.4-0.4c-0.1-0.4-0.7-1.9-1-2.4c-0.6-0.9-1.6-1.8-2.5-2c-1.6-0.3-3.4-0.4-5.4-0.4v1.9c0,1.5,0.1,10,0.1,10.6
		c0,1.4,0.5,1.6,1.2,1.6h3c0.3,0,0.5,0.1,0.5,0.3v1.4c0,0.3-0.1,0.4-0.4,0.4c-0.5,0-2.5-0.2-7.8-0.2c-4.9,0-6.9,0.2-7.6,0.2
		c-0.2,0-0.3-0.1-0.3-0.5v-1.4c0-0.2,0.2-0.3,0.4-0.3h1.8c1.1,0,1.5-0.2,1.5-1c0.1-1,0.2-7.4,0.2-16v-3.5c0-2.2-0.1-9.3-0.1-9.8
		c0-1-0.7-1.5-2.1-1.5h-2.1c-0.3,0-0.5-0.1-0.5-0.3v-1.5c0-0.2,0.2-0.3,0.4-0.3c0.6,0,2.5,0.2,8.6,0.2c0.7,0,14-0.2,16.4-0.2
		c1.1,0,2.2-0.2,2.6-0.2c0.3,0,0.4,0.3,0.5,0.9l2,8.2c0.1,0.2,0,0.4-0.2,0.4l-1,0.6c-0.3,0.1-0.4,0-0.7-0.5
		c-0.7-0.9-1.9-2.5-3.9-4.6c-0.9-1-2.3-2-3.5-2.3c-1.3-0.4-6.6-0.5-8.9-0.5c0,0.7-0.1,10.7-0.1,13.8V125.8z"/>
	<path fill="#434343" d="M170.1,127.8c0,0.9,0,11.7,0.2,13.8h2.9c2.4,0,4.6,0,7.4-0.3c2.7-0.3,6.1-6.3,6.9-8.2
		c0.2-0.3,0.3-0.5,0.6-0.3l1,0.4c0.2,0.1,0.2,0.2,0.1,0.5c-0.2,0.4-2.2,8.7-2.5,10c-1.3-0.1-15.8-0.2-20.5-0.2c-5,0-6.8,0.2-7.5,0.2
		c-0.4,0-0.4-0.1-0.4-0.5V142c0-0.3,0.1-0.4,0.4-0.4h1.6c1.9,0,2.2-0.7,2.2-1.3c0-1,0.2-13.5,0.2-16.6V121c0-3.2-0.1-10.9-0.2-11.7
		c-0.1-1.3-0.4-1.8-1.5-1.8H159c-0.3,0-0.4-0.3-0.4-0.5v-1.2c0-0.3,0.1-0.4,0.4-0.4c0.6,0,2.4,0.2,7,0.2c5.9,0,8-0.2,8.5-0.2
		c0.4,0,0.5,0.2,0.5,0.5v1.2c0,0.3-0.1,0.4-0.5,0.4H172c-1.6,0-1.8,0.5-1.8,1.9c0,0.7-0.2,10.6-0.2,14.1V127.8z"/>
	<path fill="#434343" d="M193,122.5c0-1.2-0.2-10.3-0.2-10.9c-0.1-1.2-0.6-1.7-1.7-1.7h-2.4c-0.3,0-0.4-0.1-0.4-0.3v-1.5
		c0-0.2,0.2-0.3,0.4-0.3c0.6,0,3.2,0.2,8.1,0.2c5.1,0,6.8-0.2,7.5-0.2c0.3,0,0.4,0.2,0.4,0.5v1.3c0,0.3-0.2,0.4-0.4,0.4h-1.5
		c-1.3,0-2,0.4-2,1.3c0,0.5-0.2,11.6-0.2,12.2v3.9c0,0.5,0.2,12.1,0.2,12.6c0,1.6,0.8,1.8,1.7,1.8h2.1c0.3,0,0.4,0.1,0.4,0.4v1.4
		c0,0.2-0.2,0.3-0.5,0.3c-0.6,0-2.6-0.2-7.4-0.2c-5.3,0-7.5,0.2-8,0.2c-0.3,0-0.4-0.1-0.4-0.4V142c0-0.2,0.2-0.3,0.4-0.3h1.5
		c1,0,2.1-0.2,2.3-1.4c0.1-0.8,0.3-11.6,0.3-14.3V122.5z"/>
	<path fill="#434343" d="M220.2,110.2h-1.8c-1.6,0-4.6,0.1-6.8,0.8c-1.1,0.8-3.3,3.9-4.6,5.7c-0.2,0.3-0.3,0.4-0.5,0.4l-1.1-0.4
		c-0.2-0.1-0.3-0.3-0.2-0.5c0.6-2.1,2.2-8.8,2.4-9.8c0.2-0.7,0.4-0.9,0.8-0.9c0.4,0,0.5,0.2,1,0.8c0.6,0.7,1.5,1.2,3.3,1.3
		c2.7,0.2,4.8,0.3,10,0.3h2.9c5.5,0,7.7-0.2,9.8-0.3c1.1,0,3.1-0.7,3.7-1.3c0.5-0.5,0.8-0.8,1.2-0.8c0.4,0,0.5,0.2,0.6,0.8l1.5,10
		c0.1,0.2-0.1,0.4-0.2,0.5l-1.1,0.4c-0.2,0.1-0.3-0.1-0.5-0.5c-1.1-1.8-3.1-4.4-4.3-5.6c-1.3-0.8-5.7-1-6.9-1h-1.7v13.9
		c0,0.7,0,14.8,0.1,15.6c0.1,1.3,0.5,2,1.7,2h2.3c0.5,0,0.5,0.2,0.5,0.5v1.2c0,0.3-0.1,0.4-0.5,0.4c-0.5,0-2.1-0.2-7.7-0.2
		c-5.3,0-7.5,0.2-8.2,0.2c-0.4,0-0.5-0.2-0.5-0.6v-1c0-0.4,0.1-0.5,0.4-0.5h2.6c1,0,1.6-0.6,1.7-1.5c0.1-1.1,0.1-16.5,0.1-17.5
		V110.2z"/>
	<path fill="#434343" d="M255.2,124.3c2.3,0,4.5-0.2,5.1-0.3c0.9-0.2,1.6-0.7,2.3-1.6c0.6-0.8,1.2-2.2,1.2-3.1
		c0-0.4,0.2-0.5,0.4-0.5l1.4,0.2c0.3,0,0.5,0.1,0.4,0.4c-0.2,0.9-0.2,3.5-0.2,5.2c0,2.3,0.2,4.7,0.3,5.7c0,0.3-0.2,0.4-0.4,0.4
		l-1.2,0.3c-0.2,0.1-0.3-0.1-0.4-0.4c-0.2-0.8-0.7-2-1-2.6c-0.6-1-1.8-1.6-2.8-1.8c-1.4-0.2-2.9-0.3-5.1-0.3v3
		c0,2.7,0.3,7.6,0.3,8.5c0,2.6,0.6,3.5,1.2,3.8c0.8,0.3,1.7,0.5,4.2,0.5c0.9,0,3-0.1,4-0.2c1-0.1,2.5-0.6,3.8-1.7
		c1.3-1.1,4.1-4.2,5.1-5.4c0.2-0.2,0.4-0.3,0.5-0.2l0.9,0.5c0.2,0.1,0.3,0.3,0.2,0.4l-2.3,7.6c-0.2,0.5-0.5,0.8-1.1,0.8
		c-0.3,0-1.4,0-4.6-0.1c-3.3,0-8.6-0.1-17.3-0.1c-1.9,0-3.3,0.1-4.3,0.1c-1.1,0.1-1.7,0.1-2.2,0.1c-0.4,0-0.5-0.2-0.5-0.6v-1.1
		c0-0.3,0.2-0.5,0.5-0.5h1.5c2.3,0,2.5-0.4,2.5-2.1v-16.9c0-4.2-0.1-10.4-0.2-10.9c-0.2-1.6-0.7-2-2.1-2h-2c-0.2,0-0.3-0.2-0.3-0.5
		v-1.2c0-0.2,0.1-0.4,0.4-0.4c1.1,0,2.9,0.2,7.5,0.2l17.7,0c0.8,0,1.8-0.1,2-0.1c0.3,0,0.4,0.1,0.4,0.3c0.2,0.7,1.9,7.6,2.1,8.1
		c0.1,0.3,0.1,0.4-0.2,0.5l-0.8,0.4c-0.2,0.1-0.5,0.1-0.6-0.2c-0.3-0.4-4.8-4.9-5.9-5.6c-1.1-0.7-2.5-1.3-3.8-1.4l-6.7-0.2
		L255.2,124.3z"/>
	<path fill="#434343" d="M279.9,120.7c0-3.7,0-7,0-8.3c-0.1-1.7-0.7-2.5-1.4-2.5h-2c-0.3,0-0.3-0.2-0.3-0.4v-1.4
		c0-0.3,0-0.4,0.3-0.4c0.5,0,2,0.2,7.5,0.2c2.8,0,7.3-0.2,9.3-0.2c3.9,0,6.9,1.4,8.9,3.3c1.8,1.7,2.9,3.6,2.9,5.5
		c0,6.4-4.8,9.3-9.2,9.7v0.4c1.6,0.5,2.4,1.5,3.3,2.7c0.7,0.8,3.4,5.3,3.8,5.9c0.3,0.5,3,4.3,4,5.4c0.6,0.7,2.5,1.1,3.7,1.1
		c0.4,0,0.4,0.2,0.4,0.4v1.2c0,0.3-0.1,0.5-0.4,0.5c-0.4,0-1.7-0.2-5.6-0.2c-1.5,0-3.3,0.1-4.8,0.2c-1.5-1.2-4.6-7-5.5-8.7
		c-1.7-3.4-3.8-7.2-6.2-7.2h-1.7v2.6c0,3,0.2,8.6,0.3,9.3c0.1,1.1,0.5,2,1.3,2h2.1c0.4,0,0.4,0.2,0.4,0.4v1.2c0,0.4-0.1,0.5-0.8,0.5
		c-0.1,0-1.3-0.2-6.6-0.2c-5.3,0-6.5,0.2-7.1,0.2c-0.4,0-0.4-0.2-0.4-0.5v-1.2c0-0.3,0-0.4,0.3-0.4h1.5c1.1,0,2-0.4,2-1.6
		c0.1-5,0.1-9.7,0.1-14.5V120.7z M286.9,126.1c1,0,1.6,0,2,0c6.7,0,8.2-6.3,8.2-8.7c0-2.3-0.8-4.5-1.9-5.6c-1.8-1.6-4.1-2.2-5.6-2.2
		c-0.9,0-1.5,0.1-1.9,0.5c-0.3,0.2-0.5,0.8-0.6,1.4L286.9,126.1z"/>
	<path fill="#434343" d="M319.1,129.8c-0.4,1.1-2.9,8-2.9,9.6c0,1.1,0.5,2.3,2,2.3h1.8c0.5,0,0.6,0.2,0.6,0.4v1.1
		c0,0.4,0,0.6-0.5,0.6c-0.7,0-2.7-0.2-6.9-0.2c-3.7,0-4.8,0.2-5.5,0.2c-0.3,0-0.4-0.3-0.4-0.7v-1c0-0.3,0.1-0.5,0.4-0.5h1.3
		c1.2,0,2.4-0.7,3.4-2.2c0.7-1.1,4.3-9.8,5.9-14.3c0.4-1,4.5-11.8,4.9-13.2c0.2-0.5,0.4-1.2,0.1-1.7c-0.2-0.2-0.4-0.5-0.4-0.7
		c0-0.2,0.1-0.4,0.5-0.5c1.6-0.4,4.9-1.7,5.6-2.5c0.3-0.3,0.4-0.5,0.7-0.5c0.3,0,0.4,0.3,0.6,0.9c1,3.2,4.9,14.5,5.8,17.7
		c1.2,3.9,4.4,13.3,5.1,14.7c0.9,1.7,2.2,2.3,2.9,2.3h1.7c0.3,0,0.4,0.2,0.4,0.5v1c0,0.3-0.1,0.7-0.5,0.7c-1,0-2-0.2-8.5-0.2
		c-4.2,0-5.9,0.2-7,0.2c-0.5,0-0.6-0.3-0.6-0.7v-1c0-0.3,0.1-0.5,0.3-0.5h1.4c1.4,0,1.8-0.5,1.5-1.8c-0.5-1.8-2.4-8.3-3-10.1H319.1z
		 M329.7,127.8l-3.8-13.3c-0.2-0.8-0.3-1.1-0.6-1.1c-0.3,0-0.5,0.2-0.6,0.7c-0.3,0.7-4.6,12.5-5,13.8H329.7z"/>
	<path fill="#434343" d="M354,110.2h-1.8c-1.6,0-4.6,0.1-6.8,0.8c-1.1,0.8-3.3,3.9-4.6,5.7c-0.2,0.3-0.3,0.4-0.5,0.4l-1.1-0.4
		c-0.2-0.1-0.3-0.3-0.2-0.5c0.6-2.1,2.2-8.8,2.4-9.8c0.2-0.7,0.4-0.9,0.8-0.9c0.4,0,0.5,0.2,1,0.8c0.6,0.7,1.5,1.2,3.3,1.3
		c2.7,0.2,4.8,0.3,10,0.3h2.9c5.5,0,7.7-0.2,9.8-0.3c1.1,0,3.1-0.7,3.7-1.3c0.5-0.5,0.8-0.8,1.2-0.8s0.5,0.2,0.6,0.8l1.5,10
		c0.1,0.2,0,0.4-0.2,0.5l-1.1,0.4c-0.2,0.1-0.3-0.1-0.5-0.5c-1.1-1.8-3.1-4.4-4.3-5.6c-1.3-0.8-5.7-1-6.9-1h-1.7v13.9
		c0,0.7,0,14.8,0.1,15.6c0.1,1.3,0.5,2,1.7,2h2.3c0.5,0,0.5,0.2,0.5,0.5v1.2c0,0.3-0.1,0.4-0.5,0.4c-0.5,0-2.1-0.2-7.7-0.2
		c-5.3,0-7.5,0.2-8.2,0.2c-0.4,0-0.5-0.2-0.5-0.6v-1c0-0.4,0.1-0.5,0.4-0.5h2.6c1,0,1.6-0.6,1.7-1.5c0.1-1.1,0.1-16.5,0.1-17.5
		V110.2z"/>
	<path fill="#434343" d="M380.8,112.4c0-1.8-0.4-2.6-1.4-2.6H377c-0.3,0-0.4-0.1-0.4-0.5v-1.2c0-0.3,0.1-0.4,0.5-0.4
		c0.5,0,3,0.2,8.3,0.2c4.4,0,6.9-0.2,7.4-0.2c0.4,0,0.5,0.1,0.5,0.4v1.3c0,0.3,0,0.4-0.4,0.4h-1.7c-1.7,0-2.6,1-2.7,2
		c-0.1,0.6-0.1,4-0.1,6.5v3.3c0,2.7,0.2,9.1,0.3,10.7c0.1,2.3,0.5,4.6,1.6,6c1.7,2,4,2.8,6.3,2.8c1.9,0,4.6-1,5.9-2.2
		c2-1.8,3.2-4.6,3.2-8.2V123c0-4.2-0.5-9.8-0.7-10.9c-0.2-1.3-1-2.2-1.9-2.2h-1.6c-0.3,0-0.4-0.2-0.4-0.4v-1.3c0-0.3,0-0.4,0.4-0.4
		c0.5,0,2.8,0.2,6.2,0.2c2.7,0,4.3-0.2,4.8-0.2c0.5,0,0.5,0.2,0.5,0.5v1.1c0,0.3-0.1,0.5-0.3,0.5h-1.6c-1.9,0-2.1,1.4-2.2,1.9
		c-0.1,0.7-0.1,7.7-0.1,8.4c0,0.7-0.1,9.5-0.3,11.5c-0.3,4.1-1.7,7.3-4.3,9.6c-2.2,2-5.6,3.1-8.9,3.1c-2.4,0-5.6-0.4-7.7-1.3
		c-2.4-1.1-4.6-3.4-5.8-6.6c-0.9-2.2-1.1-5.5-1.1-12.1V112.4z"/>
	<path fill="#434343" d="M419,112.4c0-1.8-0.4-2.6-1.4-2.6h-2.4c-0.3,0-0.4-0.1-0.4-0.5v-1.2c0-0.3,0.1-0.4,0.5-0.4
		c0.5,0,3,0.2,8.3,0.2c4.4,0,6.9-0.2,7.4-0.2c0.4,0,0.5,0.1,0.5,0.4v1.3c0,0.3,0,0.4-0.4,0.4h-1.7c-1.7,0-2.6,1-2.7,2
		c-0.1,0.6-0.1,4-0.1,6.5v3.3c0,2.7,0.2,9.1,0.3,10.7c0.1,2.3,0.5,4.6,1.6,6c1.7,2,4,2.8,6.3,2.8c1.9,0,4.6-1,5.9-2.2
		c2-1.8,3.2-4.6,3.2-8.2V123c0-4.2-0.5-9.8-0.7-10.9c-0.2-1.3-1-2.2-1.9-2.2h-1.6c-0.3,0-0.4-0.2-0.4-0.4v-1.3c0-0.3,0-0.4,0.4-0.4
		c0.5,0,2.8,0.2,6.2,0.2c2.7,0,4.3-0.2,4.8-0.2s0.5,0.2,0.5,0.5v1.1c0,0.3-0.1,0.5-0.3,0.5h-1.6c-1.9,0-2.1,1.4-2.2,1.9
		c-0.1,0.7-0.1,7.7-0.1,8.4c0,0.7-0.1,9.5-0.3,11.5c-0.3,4.1-1.7,7.3-4.3,9.6c-2.2,2-5.6,3.1-8.9,3.1c-2.4,0-5.6-0.4-7.7-1.3
		c-2.4-1.1-4.6-3.4-5.8-6.6c-0.9-2.2-1.1-5.5-1.1-12.1V112.4z"/>
	<path fill="#434343" d="M456.7,120.7c0-3.7,0-7,0-8.3c-0.1-1.7-0.7-2.5-1.4-2.5h-2c-0.3,0-0.3-0.2-0.3-0.4v-1.4
		c0-0.3,0-0.4,0.3-0.4c0.5,0,2,0.2,7.5,0.2c2.8,0,7.3-0.2,9.3-0.2c3.9,0,6.9,1.4,8.9,3.3c1.8,1.7,2.9,3.6,2.9,5.5
		c0,6.4-4.8,9.3-9.2,9.7v0.4c1.6,0.5,2.4,1.5,3.3,2.7c0.7,0.8,3.4,5.3,3.8,5.9c0.3,0.5,3,4.3,4,5.4c0.6,0.7,2.5,1.1,3.7,1.1
		c0.4,0,0.4,0.2,0.4,0.4v1.2c0,0.3-0.1,0.5-0.4,0.5c-0.4,0-1.7-0.2-5.6-0.2c-1.5,0-3.3,0.1-4.8,0.2c-1.5-1.2-4.6-7-5.5-8.7
		c-1.7-3.4-3.8-7.2-6.2-7.2h-1.7v2.6c0,3,0.2,8.6,0.3,9.3c0.1,1.1,0.5,2,1.3,2h2.1c0.4,0,0.4,0.2,0.4,0.4v1.2c0,0.4-0.1,0.5-0.8,0.5
		c-0.1,0-1.3-0.2-6.6-0.2c-5.3,0-6.5,0.2-7.1,0.2c-0.4,0-0.4-0.2-0.4-0.5v-1.2c0-0.3,0-0.4,0.3-0.4h1.5c1.1,0,2-0.4,2-1.6
		c0.1-5,0.1-9.7,0.1-14.5V120.7z M463.7,126.1c1,0,1.6,0,2,0c6.7,0,8.2-6.3,8.2-8.7c0-2.3-0.8-4.5-1.9-5.6c-1.8-1.6-4.1-2.2-5.6-2.2
		c-0.9,0-1.5,0.1-1.9,0.5c-0.3,0.2-0.5,0.8-0.6,1.4L463.7,126.1z"/>
</g>
<g>
	<path fill="#434343" d="M120.6,179.6c-0.4,1.1-2.9,8-2.9,9.6c0,1.1,0.5,2.3,2,2.3h1.8c0.5,0,0.6,0.2,0.6,0.4v1.1
		c0,0.4-0.1,0.6-0.5,0.6c-0.7,0-2.7-0.2-6.9-0.2c-3.7,0-4.8,0.2-5.5,0.2c-0.3,0-0.4-0.3-0.4-0.7v-1c0-0.3,0.1-0.5,0.4-0.5h1.3
		c1.2,0,2.4-0.7,3.4-2.2c0.7-1.1,4.3-9.8,5.9-14.3c0.4-1,4.5-11.8,4.9-13.2c0.2-0.5,0.4-1.2,0.1-1.7c-0.2-0.2-0.4-0.5-0.4-0.7
		c0-0.2,0.1-0.4,0.5-0.5c1.6-0.4,4.9-1.7,5.6-2.5c0.3-0.3,0.4-0.5,0.7-0.5c0.3,0,0.4,0.3,0.6,0.9c1,3.2,4.9,14.5,5.8,17.7
		c1.2,3.9,4.4,13.3,5.1,14.7c0.9,1.7,2.2,2.3,2.9,2.3h1.7c0.3,0,0.4,0.2,0.4,0.5v1c0,0.3-0.1,0.7-0.5,0.7c-1,0-2-0.2-8.5-0.2
		c-4.2,0-5.9,0.2-7,0.2c-0.5,0-0.6-0.3-0.6-0.7v-1c0-0.3,0.1-0.5,0.3-0.5h1.4c1.4,0,1.8-0.5,1.5-1.8c-0.5-1.8-2.4-8.3-3-10.1H120.6z
		 M131.2,177.6l-3.8-13.3c-0.2-0.8-0.3-1.1-0.6-1.1c-0.3,0-0.5,0.2-0.6,0.7c-0.3,0.7-4.6,12.5-5,13.8H131.2z"/>
	<path fill="#434343" d="M161.2,177.6c0,0.9,0,11.7,0.2,13.8h2.9c2.4,0,4.6,0,7.4-0.3c2.7-0.3,6.1-6.3,6.9-8.2
		c0.2-0.3,0.3-0.5,0.6-0.3l1,0.4c0.2,0.1,0.2,0.2,0.1,0.5c-0.2,0.4-2.2,8.7-2.5,10c-1.3-0.1-15.8-0.2-20.5-0.2c-5,0-6.8,0.2-7.5,0.2
		c-0.4,0-0.4-0.1-0.4-0.5v-1.3c0-0.3,0.1-0.4,0.4-0.4h1.6c1.9,0,2.2-0.7,2.2-1.3c0-1,0.2-13.5,0.2-16.6v-2.8c0-3.2-0.1-8.6-0.2-9.4
		c-0.1-1.3-0.4-1.8-1.5-1.8h-1.9c-0.3,0-0.4-0.3-0.4-0.5v-1.2c0-0.3,0.1-0.4,0.4-0.4c0.6,0,2.4,0.2,7,0.2c5.9,0,8-0.2,8.5-0.2
		c0.4,0,0.5,0.2,0.5,0.5v1.2c0,0.3-0.1,0.4-0.5,0.4h-2.4c-1.6,0-1.8,0.5-1.8,1.9c0,0.7-0.2,8.3-0.2,11.8V177.6z"/>
	<path fill="#434343" d="M184.3,182.3c0.2,0,0.4,0.1,0.4,0.4c0.1,1.6,0.8,3.7,2,5.7c1.5,2.3,3.9,3.4,6.3,3.4c2.4,0,6.3-1.6,6.3-5.6
		c0-4.2-0.8-5.4-7.4-7.9c-1.5-0.6-4.7-2.2-7.3-4.4c-1.8-1.6-2.5-4.2-2.5-7.2c0-3.1,0.8-5.1,3.8-7.4c2.3-1.7,4.2-2.4,7.3-2.4
		c3.7,0,5.6,0.6,6.7,1c0.5,0.2,0.9,0.1,1.2-0.3l0.7-0.7c0.2-0.2,0.5-0.3,0.8-0.3c0.4,0,0.5,0.6,0.5,0.9l0.8,8.6
		c0,0.2-0.1,0.3-0.3,0.3l-1.1,0.4c-0.3,0.1-0.5,0-0.7-0.4c-0.6-1.5-1.4-3.4-3.1-5.2c-1.3-1.4-2.8-2.1-5-2.1c-3.8,0-5.3,3.3-5.3,4.6
		c0,1.9,0.1,3.4,1.3,4.6c1.3,1.4,4.2,2.6,6.7,3.3c2.4,0.7,4.4,2,6.4,3.8c2,1.8,2.8,4,2.8,7.5c0,6.1-4.4,11.1-11,11.1
		c-4.5,0-6.9-0.8-9-2.2c-0.6-0.4-0.9-0.6-1.2-0.6c-0.3,0-0.5,0.4-0.8,0.9c-0.3,0.6-0.6,0.6-0.9,0.6c-0.6,0-0.8-0.3-0.7-0.8l0.8-9.6
		c0.1-0.4,0.2-0.4,0.4-0.4L184.3,182.3z"/>
	<path fill="#434343" d="M235.7,177.6c0,0.9,0,11.7,0.2,13.8h2.9c2.4,0,4.6,0,7.4-0.3c2.7-0.3,6.1-6.3,6.9-8.2
		c0.2-0.3,0.3-0.5,0.6-0.3l1,0.4c0.2,0.1,0.2,0.2,0.1,0.5c-0.2,0.4-2.2,8.7-2.5,10c-1.3-0.1-15.8-0.2-20.5-0.2c-5,0-6.8,0.2-7.5,0.2
		c-0.4,0-0.4-0.1-0.4-0.5v-1.3c0-0.3,0.1-0.4,0.4-0.4h1.6c1.9,0,2.2-0.7,2.2-1.3c0-1,0.2-13.5,0.2-16.6v-2.8c0-3.2-0.1-8.6-0.2-9.4
		c-0.1-1.3-0.4-1.8-1.5-1.8h-1.9c-0.3,0-0.4-0.3-0.4-0.5v-1.2c0-0.3,0.1-0.4,0.4-0.4c0.6,0,2.4,0.2,7,0.2c5.9,0,8-0.2,8.5-0.2
		c0.4,0,0.5,0.2,0.5,0.5v1.2c0,0.3-0.1,0.4-0.5,0.4h-2.4c-1.6,0-1.8,0.5-1.8,1.9c0,0.7-0.2,8.3-0.2,11.8V177.6z"/>
	<path fill="#434343" d="M262.8,190.9c-3.6-2.2-7.4-7.6-7.4-15c0-3.1,0.8-7.9,4.7-12.5c4.4-5.4,10.1-6.4,14.7-6.4
		c4.2,0,8.1,0.7,12.3,4c3.8,3,6.9,8.1,6.9,15.1c0,3.7-1.2,7.5-3.8,11c-3.3,4.1-7.6,7.1-15.5,7.1
		C271.1,194.1,266.7,193.3,262.8,190.9z M286,176.4c0-11-7.3-17.1-11.5-17.1c-1,0-3.5-0.3-6.6,2.7c-3,2.8-4.5,8.1-4.5,12.2
		c0,12.9,7.4,17.5,11.6,17.5C284.3,191.8,286,180.5,286,176.4z"/>
	<path fill="#434343" d="M299.7,182.3c0.2,0,0.4,0.1,0.4,0.4c0.1,1.6,0.8,3.7,2,5.7c1.5,2.3,3.9,3.4,6.3,3.4c2.4,0,6.3-1.6,6.3-5.6
		c0-4.2-0.8-5.4-7.4-7.9c-1.5-0.6-4.7-2.2-7.3-4.4c-1.8-1.6-2.5-4.2-2.5-7.2c0-3.1,0.8-5.1,3.8-7.4c2.3-1.7,4.2-2.4,7.3-2.4
		c3.7,0,5.6,0.6,6.7,1c0.5,0.2,0.9,0.1,1.2-0.3l0.7-0.7c0.2-0.2,0.5-0.3,0.8-0.3c0.4,0,0.5,0.6,0.5,0.9l0.8,8.6
		c0,0.2-0.1,0.3-0.3,0.3l-1.1,0.4c-0.3,0.1-0.5,0-0.7-0.4c-0.6-1.5-1.4-3.4-3.1-5.2c-1.3-1.4-2.8-2.1-5-2.1c-3.8,0-5.3,3.3-5.3,4.6
		c0,1.9,0,3.4,1.3,4.6c1.3,1.4,4.2,2.6,6.6,3.3c2.4,0.7,4.4,2,6.4,3.8c2,1.8,2.8,4,2.8,7.5c0,6.1-4.4,11.1-11,11.1
		c-4.5,0-6.9-0.8-9-2.2c-0.6-0.4-0.9-0.6-1.2-0.6c-0.3,0-0.5,0.4-0.8,0.9c-0.3,0.6-0.6,0.6-0.9,0.6c-0.6,0-0.8-0.3-0.7-0.8l0.8-9.6
		c0.1-0.4,0.2-0.4,0.4-0.4L299.7,182.3z"/>
	<path fill="#434343" d="M334.8,180c0,2.4,0.1,9.2,0.1,9.8c0.1,1.1,0.6,1.6,1.4,1.6h2.6c0.4,0,0.4,0.2,0.4,0.4v1.3
		c0,0.3,0,0.4-0.5,0.4c-0.7,0-2.3-0.2-8.2-0.2c-4.4,0-6.4,0.2-7,0.2c-0.4,0-0.4-0.2-0.4-0.4v-1.4c0-0.3,0.1-0.4,0.3-0.4h1.3
		c1.7,0,2.1-0.3,2.2-1.5c0-0.5,0.2-8.4,0.2-14.2V170c0-3.3-0.1-8.6-0.1-9.2c-0.1-1-0.6-1.1-1.6-1.1h-2.4c-0.3,0-0.3-0.1-0.3-0.4
		v-1.3c0-0.3,0-0.4,0.3-0.4c0.6,0,2.4,0.2,7.7,0.2c0.9,0,3.9-0.2,5.5-0.2c6.2,0,9.2,0.5,12.1,2.8c2.1,1.6,3.6,4.5,3.6,7.8
		c0,6-4.8,10.2-13.3,10.2c-1.6,0-2.7-0.1-4.1-0.2V180z M334.8,176.2c1.1,0.3,2.3,0.3,3.1,0.3c1.6,0,4.1-1.6,5.2-3.4
		c1-1.6,1.2-3.5,1.2-5.3c0-7-5-8.4-7.1-8.4c-0.9,0-1.5,0.1-2.4,0.3V176.2z"/>
	<path fill="#434343" d="M358.3,170.5c0-3.7,0-7,0-8.3c-0.1-1.7-0.7-2.5-1.4-2.5h-2c-0.3,0-0.3-0.2-0.3-0.4v-1.4
		c0-0.3,0-0.4,0.3-0.4c0.5,0,2,0.2,7.5,0.2c2.8,0,7.3-0.2,9.3-0.2c3.9,0,6.9,1.4,8.9,3.3c1.8,1.7,2.9,3.6,2.9,5.5
		c0,6.4-4.8,9.3-9.2,9.7v0.4c1.6,0.5,2.4,1.5,3.3,2.7c0.7,0.8,3.4,5.3,3.8,5.9c0.3,0.5,3,4.3,4,5.4c0.6,0.7,2.5,1.1,3.7,1.1
		c0.4,0,0.4,0.2,0.4,0.4v1.2c0,0.3-0.1,0.5-0.4,0.5c-0.4,0-1.7-0.2-5.6-0.2c-1.5,0-3.3,0.1-4.8,0.2c-1.5-1.2-4.6-7-5.5-8.7
		c-1.7-3.4-3.8-7.2-6.2-7.2h-1.7v2.6c0,3,0.2,8.6,0.3,9.3c0.1,1.1,0.5,2,1.3,2h2.1c0.4,0,0.4,0.2,0.4,0.4v1.2c0,0.4-0.1,0.5-0.8,0.5
		c-0.1,0-1.3-0.2-6.6-0.2c-5.3,0-6.5,0.2-7.1,0.2c-0.4,0-0.4-0.2-0.4-0.5v-1.2c0-0.3,0-0.4,0.3-0.4h1.5c1.1,0,2-0.4,2-1.6
		c0.1-5,0.1-9.7,0.1-14.5V170.5z M365.4,175.9c1,0,1.6,0,2,0c6.7,0,8.2-6.3,8.2-8.7c0-2.3-0.8-4.5-1.9-5.6c-1.8-1.6-4.1-2.2-5.6-2.2
		c-0.9,0-1.5,0.1-1.9,0.5c-0.3,0.2-0.5,0.8-0.6,1.4L365.4,175.9z"/>
	<path fill="#434343" d="M393.3,172.3c0-1.2-0.2-10.3-0.2-10.9c-0.1-1.2-0.6-1.7-1.7-1.7H389c-0.3,0-0.4-0.1-0.4-0.3v-1.5
		c0-0.2,0.2-0.3,0.4-0.3c0.6,0,3.2,0.2,8.1,0.2c5.1,0,6.8-0.2,7.5-0.2c0.3,0,0.4,0.2,0.4,0.5v1.3c0,0.3-0.2,0.4-0.4,0.4H403
		c-1.3,0-2,0.4-2,1.3c0,0.5-0.2,11.6-0.2,12.2v3.9c0,0.5,0.2,12.1,0.2,12.6c0,1.6,0.8,1.8,1.7,1.8h2.1c0.3,0,0.4,0.1,0.4,0.4v1.4
		c0,0.2-0.2,0.3-0.5,0.3c-0.6,0-2.6-0.2-7.4-0.2c-5.3,0-7.5,0.2-8,0.2c-0.3,0-0.4-0.1-0.4-0.4v-1.4c0-0.2,0.2-0.3,0.4-0.3h1.5
		c1,0,2.1-0.2,2.3-1.4c0.1-0.8,0.3-11.6,0.3-14.3V172.3z"/>
	<path fill="#434343" d="M410.9,173.1c0-0.8,0-9.7-0.2-11.8c-0.3-1.1-0.5-1.7-2.2-1.7h-1.7c-0.2,0-0.4-0.1-0.4-0.3v-1.5
		c0-0.3,0.1-0.4,0.4-0.4c0.6,0,2.4,0.2,8,0.2c4.9,0,6.7-0.2,7.5-0.2c0.3,0,0.4,0.1,0.4,0.4v1.3c0,0.3-0.1,0.4-0.4,0.4h-1.8
		c-1.4,0-1.8,0.4-1.9,1.4c-0.1,0.8-0.2,7.3-0.2,13.3v2.3c0,6.4-0.2,11.3-0.2,12.5c0,2.7-0.4,4.8-2,7.7c-2.3,3.8-6.4,7.6-12.3,7.6
		c-1.4,0-3.8-0.9-3.8-3.6c0-1.7,1.3-3.2,3-3.2c2.5,0,3.6,2.1,4.5,4.1c1.1,0,2.2-1.2,2.7-3c1.1-3.7,0.5-18.3,0.5-22V173.1z"/>
	<path fill="#434343" d="M426.8,182.3c0.2,0,0.4,0.1,0.4,0.4c0.1,1.6,0.8,3.7,2,5.7c1.5,2.3,3.9,3.4,6.3,3.4c2.4,0,6.3-1.6,6.3-5.6
		c0-4.2-0.8-5.4-7.4-7.9c-1.5-0.6-4.7-2.2-7.3-4.4c-1.8-1.6-2.5-4.2-2.5-7.2c0-3.1,0.8-5.1,3.8-7.4c2.3-1.7,4.2-2.4,7.3-2.4
		c3.7,0,5.6,0.6,6.7,1c0.5,0.2,0.9,0.1,1.2-0.3l0.7-0.7c0.2-0.2,0.5-0.3,0.8-0.3c0.4,0,0.5,0.6,0.5,0.9l0.8,8.6
		c0,0.2-0.1,0.3-0.3,0.3l-1.1,0.4c-0.3,0.1-0.5,0-0.7-0.4c-0.6-1.5-1.4-3.4-3.1-5.2c-1.3-1.4-2.8-2.1-5-2.1c-3.8,0-5.3,3.3-5.3,4.6
		c0,1.9,0,3.4,1.3,4.6c1.3,1.4,4.2,2.6,6.6,3.3c2.4,0.7,4.4,2,6.4,3.8c2,1.8,2.8,4,2.8,7.5c0,6.1-4.4,11.1-11,11.1
		c-4.5,0-6.9-0.8-9-2.2c-0.6-0.4-0.9-0.6-1.2-0.6c-0.3,0-0.5,0.4-0.8,0.9c-0.3,0.6-0.6,0.6-0.9,0.6c-0.6,0-0.8-0.3-0.7-0.8l0.8-9.6
		c0.1-0.4,0.2-0.4,0.4-0.4L426.8,182.3z"/>
</g>
<g>
	<polygon fill="#434343" points="274.1,242.2 267.6,232.6 261,241.9 267.7,251.5 	"/>
	<polygon fill="#434343" points="275.3,243.4 268.7,252.8 275.4,262.4 281.8,253.1 	"/>
	<polygon fill="#434343" points="259.9,243.1 253.3,252.4 260,262 266.4,252.7 	"/>
	<polygon fill="#434343" points="261,263.3 267.7,272.9 274.1,263.6 267.6,254 	"/>
</g>
</svg>
